<?xml version="1.0" encoding="utf-8" standalone="no"?>
<!DOCTYPE svg PUBLIC "-//W3C//DTD SVG 1.1//EN"
  "http://www.w3.org/Graphics/SVG/1.1/DTD/svg11.dtd">
<svg xmlns:xlink="http://www.w3.org/1999/xlink" width="467.124086pt" height="711.496688pt" viewBox="0 0 467.124086 711.496688" xmlns="http://www.w3.org/2000/svg" version="1.1">
 <metadata>
  <rdf:RDF xmlns:dc="http://purl.org/dc/elements/1.1/" xmlns:cc="http://creativecommons.org/ns#" xmlns:rdf="http://www.w3.org/1999/02/22-rdf-syntax-ns#">
   <cc:Work>
    <dc:type rdf:resource="http://purl.org/dc/dcmitype/StillImage"/>
    <dc:date>2025-08-13T14:48:10.397907</dc:date>
    <dc:format>image/svg+xml</dc:format>
    <dc:creator>
     <cc:Agent>
      <dc:title>Matplotlib v3.6.3, https://matplotlib.org/</dc:title>
     </cc:Agent>
    </dc:creator>
   </cc:Work>
  </rdf:RDF>
 </metadata>
 <defs>
  <style type="text/css">*{stroke-linejoin: round; stroke-linecap: butt}</style>
 </defs>
 <g id="figure_1">
  <g id="patch_1">
   <path d="M 0 711.496688 
L 467.124086 711.496688 
L 467.124086 0 
L 0 0 
z
" style="fill: #ffffff"/>
  </g>
  <g id="axes_1">
   <g id="patch_2">
    <path d="M 45.997813 674.90825 
L 453.561586 674.90825 
L 453.561586 39.58825 
L 45.997813 39.58825 
z
" style="fill: #ffffff"/>
   </g>
   <g id="patch_3">
    <path d="M 117.920831 600.587797 
L 405.612907 600.587797 
L 405.612907 590.998061 
L 117.920831 590.998061 
z
" clip-path="url(#p4a7501ec32)" style="fill: #add8e6; opacity: 0.3; stroke: #add8e6; stroke-linejoin: miter"/>
   </g>
   <g id="patch_4">
    <path d="M 396.023171 590.998061 
L 405.612907 590.998061 
L 405.612907 111.511269 
L 396.023171 111.511269 
z
" clip-path="url(#p4a7501ec32)" style="fill: #90ee90; opacity: 0.3; stroke: #90ee90; stroke-linejoin: miter"/>
   </g>
   <g id="matplotlib.axis_1">
    <g id="xtick_1">
     <g id="line2d_1">
      <path d="M 69.972152 674.90825 
L 69.972152 39.58825 
" clip-path="url(#p4a7501ec32)" style="fill: none; stroke: #b0b0b0; stroke-opacity: 0.3; stroke-width: 0.5; stroke-linecap: square"/>
     </g>
     <g id="line2d_2">
      <defs>
       <path id="mcf17053f8e" d="M 0 0 
L 0 3.5 
" style="stroke: #000000; stroke-width: 0.8"/>
      </defs>
      <g>
       <use xlink:href="#mcf17053f8e" x="69.972152" y="674.90825" style="stroke: #000000; stroke-width: 0.8"/>
      </g>
     </g>
     <g id="text_1">
      <!-- −80 -->
      <g transform="translate(59.419808 689.506687) scale(0.1 -0.1)">
       <defs>
        <path id="DejaVuSans-2212" d="M 678 2272 
L 4684 2272 
L 4684 1741 
L 678 1741 
L 678 2272 
z
" transform="scale(0.015625)"/>
        <path id="DejaVuSans-38" d="M 2034 2216 
Q 1584 2216 1326 1975 
Q 1069 1734 1069 1313 
Q 1069 891 1326 650 
Q 1584 409 2034 409 
Q 2484 409 2743 651 
Q 3003 894 3003 1313 
Q 3003 1734 2745 1975 
Q 2488 2216 2034 2216 
z
M 1403 2484 
Q 997 2584 770 2862 
Q 544 3141 544 3541 
Q 544 4100 942 4425 
Q 1341 4750 2034 4750 
Q 2731 4750 3128 4425 
Q 3525 4100 3525 3541 
Q 3525 3141 3298 2862 
Q 3072 2584 2669 2484 
Q 3125 2378 3379 2068 
Q 3634 1759 3634 1313 
Q 3634 634 3220 271 
Q 2806 -91 2034 -91 
Q 1263 -91 848 271 
Q 434 634 434 1313 
Q 434 1759 690 2068 
Q 947 2378 1403 2484 
z
M 1172 3481 
Q 1172 3119 1398 2916 
Q 1625 2713 2034 2713 
Q 2441 2713 2670 2916 
Q 2900 3119 2900 3481 
Q 2900 3844 2670 4047 
Q 2441 4250 2034 4250 
Q 1625 4250 1398 4047 
Q 1172 3844 1172 3481 
z
" transform="scale(0.015625)"/>
        <path id="DejaVuSans-30" d="M 2034 4250 
Q 1547 4250 1301 3770 
Q 1056 3291 1056 2328 
Q 1056 1369 1301 889 
Q 1547 409 2034 409 
Q 2525 409 2770 889 
Q 3016 1369 3016 2328 
Q 3016 3291 2770 3770 
Q 2525 4250 2034 4250 
z
M 2034 4750 
Q 2819 4750 3233 4129 
Q 3647 3509 3647 2328 
Q 3647 1150 3233 529 
Q 2819 -91 2034 -91 
Q 1250 -91 836 529 
Q 422 1150 422 2328 
Q 422 3509 836 4129 
Q 1250 4750 2034 4750 
z
" transform="scale(0.015625)"/>
       </defs>
       <use xlink:href="#DejaVuSans-2212"/>
       <use xlink:href="#DejaVuSans-38" x="83.789062"/>
       <use xlink:href="#DejaVuSans-30" x="147.412109"/>
      </g>
     </g>
    </g>
    <g id="xtick_2">
     <g id="line2d_3">
      <path d="M 117.920831 674.90825 
L 117.920831 39.58825 
" clip-path="url(#p4a7501ec32)" style="fill: none; stroke: #b0b0b0; stroke-opacity: 0.3; stroke-width: 0.5; stroke-linecap: square"/>
     </g>
     <g id="line2d_4">
      <g>
       <use xlink:href="#mcf17053f8e" x="117.920831" y="674.90825" style="stroke: #000000; stroke-width: 0.8"/>
      </g>
     </g>
     <g id="text_2">
      <!-- −60 -->
      <g transform="translate(107.368488 689.506687) scale(0.1 -0.1)">
       <defs>
        <path id="DejaVuSans-36" d="M 2113 2584 
Q 1688 2584 1439 2293 
Q 1191 2003 1191 1497 
Q 1191 994 1439 701 
Q 1688 409 2113 409 
Q 2538 409 2786 701 
Q 3034 994 3034 1497 
Q 3034 2003 2786 2293 
Q 2538 2584 2113 2584 
z
M 3366 4563 
L 3366 3988 
Q 3128 4100 2886 4159 
Q 2644 4219 2406 4219 
Q 1781 4219 1451 3797 
Q 1122 3375 1075 2522 
Q 1259 2794 1537 2939 
Q 1816 3084 2150 3084 
Q 2853 3084 3261 2657 
Q 3669 2231 3669 1497 
Q 3669 778 3244 343 
Q 2819 -91 2113 -91 
Q 1303 -91 875 529 
Q 447 1150 447 2328 
Q 447 3434 972 4092 
Q 1497 4750 2381 4750 
Q 2619 4750 2861 4703 
Q 3103 4656 3366 4563 
z
" transform="scale(0.015625)"/>
       </defs>
       <use xlink:href="#DejaVuSans-2212"/>
       <use xlink:href="#DejaVuSans-36" x="83.789062"/>
       <use xlink:href="#DejaVuSans-30" x="147.412109"/>
      </g>
     </g>
    </g>
    <g id="xtick_3">
     <g id="line2d_5">
      <path d="M 165.869511 674.90825 
L 165.869511 39.58825 
" clip-path="url(#p4a7501ec32)" style="fill: none; stroke: #b0b0b0; stroke-opacity: 0.3; stroke-width: 0.5; stroke-linecap: square"/>
     </g>
     <g id="line2d_6">
      <g>
       <use xlink:href="#mcf17053f8e" x="165.869511" y="674.90825" style="stroke: #000000; stroke-width: 0.8"/>
      </g>
     </g>
     <g id="text_3">
      <!-- −40 -->
      <g transform="translate(155.317167 689.506687) scale(0.1 -0.1)">
       <defs>
        <path id="DejaVuSans-34" d="M 2419 4116 
L 825 1625 
L 2419 1625 
L 2419 4116 
z
M 2253 4666 
L 3047 4666 
L 3047 1625 
L 3713 1625 
L 3713 1100 
L 3047 1100 
L 3047 0 
L 2419 0 
L 2419 1100 
L 313 1100 
L 313 1709 
L 2253 4666 
z
" transform="scale(0.015625)"/>
       </defs>
       <use xlink:href="#DejaVuSans-2212"/>
       <use xlink:href="#DejaVuSans-34" x="83.789062"/>
       <use xlink:href="#DejaVuSans-30" x="147.412109"/>
      </g>
     </g>
    </g>
    <g id="xtick_4">
     <g id="line2d_7">
      <path d="M 213.81819 674.90825 
L 213.81819 39.58825 
" clip-path="url(#p4a7501ec32)" style="fill: none; stroke: #b0b0b0; stroke-opacity: 0.3; stroke-width: 0.5; stroke-linecap: square"/>
     </g>
     <g id="line2d_8">
      <g>
       <use xlink:href="#mcf17053f8e" x="213.81819" y="674.90825" style="stroke: #000000; stroke-width: 0.8"/>
      </g>
     </g>
     <g id="text_4">
      <!-- −20 -->
      <g transform="translate(203.265846 689.506687) scale(0.1 -0.1)">
       <defs>
        <path id="DejaVuSans-32" d="M 1228 531 
L 3431 531 
L 3431 0 
L 469 0 
L 469 531 
Q 828 903 1448 1529 
Q 2069 2156 2228 2338 
Q 2531 2678 2651 2914 
Q 2772 3150 2772 3378 
Q 2772 3750 2511 3984 
Q 2250 4219 1831 4219 
Q 1534 4219 1204 4116 
Q 875 4013 500 3803 
L 500 4441 
Q 881 4594 1212 4672 
Q 1544 4750 1819 4750 
Q 2544 4750 2975 4387 
Q 3406 4025 3406 3419 
Q 3406 3131 3298 2873 
Q 3191 2616 2906 2266 
Q 2828 2175 2409 1742 
Q 1991 1309 1228 531 
z
" transform="scale(0.015625)"/>
       </defs>
       <use xlink:href="#DejaVuSans-2212"/>
       <use xlink:href="#DejaVuSans-32" x="83.789062"/>
       <use xlink:href="#DejaVuSans-30" x="147.412109"/>
      </g>
     </g>
    </g>
    <g id="xtick_5">
     <g id="line2d_9">
      <path d="M 261.766869 674.90825 
L 261.766869 39.58825 
" clip-path="url(#p4a7501ec32)" style="fill: none; stroke: #b0b0b0; stroke-opacity: 0.3; stroke-width: 0.5; stroke-linecap: square"/>
     </g>
     <g id="line2d_10">
      <g>
       <use xlink:href="#mcf17053f8e" x="261.766869" y="674.90825" style="stroke: #000000; stroke-width: 0.8"/>
      </g>
     </g>
     <g id="text_5">
      <!-- 0 -->
      <g transform="translate(258.585619 689.506687) scale(0.1 -0.1)">
       <use xlink:href="#DejaVuSans-30"/>
      </g>
     </g>
    </g>
    <g id="xtick_6">
     <g id="line2d_11">
      <path d="M 309.715548 674.90825 
L 309.715548 39.58825 
" clip-path="url(#p4a7501ec32)" style="fill: none; stroke: #b0b0b0; stroke-opacity: 0.3; stroke-width: 0.5; stroke-linecap: square"/>
     </g>
     <g id="line2d_12">
      <g>
       <use xlink:href="#mcf17053f8e" x="309.715548" y="674.90825" style="stroke: #000000; stroke-width: 0.8"/>
      </g>
     </g>
     <g id="text_6">
      <!-- 20 -->
      <g transform="translate(303.353048 689.506687) scale(0.1 -0.1)">
       <use xlink:href="#DejaVuSans-32"/>
       <use xlink:href="#DejaVuSans-30" x="63.623047"/>
      </g>
     </g>
    </g>
    <g id="xtick_7">
     <g id="line2d_13">
      <path d="M 357.664228 674.90825 
L 357.664228 39.58825 
" clip-path="url(#p4a7501ec32)" style="fill: none; stroke: #b0b0b0; stroke-opacity: 0.3; stroke-width: 0.5; stroke-linecap: square"/>
     </g>
     <g id="line2d_14">
      <g>
       <use xlink:href="#mcf17053f8e" x="357.664228" y="674.90825" style="stroke: #000000; stroke-width: 0.8"/>
      </g>
     </g>
     <g id="text_7">
      <!-- 40 -->
      <g transform="translate(351.301728 689.506687) scale(0.1 -0.1)">
       <use xlink:href="#DejaVuSans-34"/>
       <use xlink:href="#DejaVuSans-30" x="63.623047"/>
      </g>
     </g>
    </g>
    <g id="xtick_8">
     <g id="line2d_15">
      <path d="M 405.612907 674.90825 
L 405.612907 39.58825 
" clip-path="url(#p4a7501ec32)" style="fill: none; stroke: #b0b0b0; stroke-opacity: 0.3; stroke-width: 0.5; stroke-linecap: square"/>
     </g>
     <g id="line2d_16">
      <g>
       <use xlink:href="#mcf17053f8e" x="405.612907" y="674.90825" style="stroke: #000000; stroke-width: 0.8"/>
      </g>
     </g>
     <g id="text_8">
      <!-- 60 -->
      <g transform="translate(399.250407 689.506687) scale(0.1 -0.1)">
       <use xlink:href="#DejaVuSans-36"/>
       <use xlink:href="#DejaVuSans-30" x="63.623047"/>
      </g>
     </g>
    </g>
    <g id="xtick_9">
     <g id="line2d_17">
      <path d="M 453.561586 674.90825 
L 453.561586 39.58825 
" clip-path="url(#p4a7501ec32)" style="fill: none; stroke: #b0b0b0; stroke-opacity: 0.3; stroke-width: 0.5; stroke-linecap: square"/>
     </g>
     <g id="line2d_18">
      <g>
       <use xlink:href="#mcf17053f8e" x="453.561586" y="674.90825" style="stroke: #000000; stroke-width: 0.8"/>
      </g>
     </g>
     <g id="text_9">
      <!-- 80 -->
      <g transform="translate(447.199086 689.506687) scale(0.1 -0.1)">
       <use xlink:href="#DejaVuSans-38"/>
       <use xlink:href="#DejaVuSans-30" x="63.623047"/>
      </g>
     </g>
    </g>
    <g id="text_10">
     <!-- X (mm) -->
     <g transform="translate(232.989074 702.424969) scale(0.09 -0.09)">
      <defs>
       <path id="DejaVuSans-58" d="M 403 4666 
L 1081 4666 
L 2241 2931 
L 3406 4666 
L 4084 4666 
L 2584 2425 
L 4184 0 
L 3506 0 
L 2194 1984 
L 872 0 
L 191 0 
L 1856 2491 
L 403 4666 
z
" transform="scale(0.015625)"/>
       <path id="DejaVuSans-20" transform="scale(0.015625)"/>
       <path id="DejaVuSans-28" d="M 1984 4856 
Q 1566 4138 1362 3434 
Q 1159 2731 1159 2009 
Q 1159 1288 1364 580 
Q 1569 -128 1984 -844 
L 1484 -844 
Q 1016 -109 783 600 
Q 550 1309 550 2009 
Q 550 2706 781 3412 
Q 1013 4119 1484 4856 
L 1984 4856 
z
" transform="scale(0.015625)"/>
       <path id="DejaVuSans-6d" d="M 3328 2828 
Q 3544 3216 3844 3400 
Q 4144 3584 4550 3584 
Q 5097 3584 5394 3201 
Q 5691 2819 5691 2113 
L 5691 0 
L 5113 0 
L 5113 2094 
Q 5113 2597 4934 2840 
Q 4756 3084 4391 3084 
Q 3944 3084 3684 2787 
Q 3425 2491 3425 1978 
L 3425 0 
L 2847 0 
L 2847 2094 
Q 2847 2600 2669 2842 
Q 2491 3084 2119 3084 
Q 1678 3084 1418 2786 
Q 1159 2488 1159 1978 
L 1159 0 
L 581 0 
L 581 3500 
L 1159 3500 
L 1159 2956 
Q 1356 3278 1631 3431 
Q 1906 3584 2284 3584 
Q 2666 3584 2933 3390 
Q 3200 3197 3328 2828 
z
" transform="scale(0.015625)"/>
       <path id="DejaVuSans-29" d="M 513 4856 
L 1013 4856 
Q 1481 4119 1714 3412 
Q 1947 2706 1947 2009 
Q 1947 1309 1714 600 
Q 1481 -109 1013 -844 
L 513 -844 
Q 928 -128 1133 580 
Q 1338 1288 1338 2009 
Q 1338 2731 1133 3434 
Q 928 4138 513 4856 
z
" transform="scale(0.015625)"/>
      </defs>
      <use xlink:href="#DejaVuSans-58"/>
      <use xlink:href="#DejaVuSans-20" x="68.505859"/>
      <use xlink:href="#DejaVuSans-28" x="100.292969"/>
      <use xlink:href="#DejaVuSans-6d" x="139.306641"/>
      <use xlink:href="#DejaVuSans-6d" x="236.71875"/>
      <use xlink:href="#DejaVuSans-29" x="334.130859"/>
     </g>
    </g>
   </g>
   <g id="matplotlib.axis_2">
    <g id="ytick_1">
     <g id="line2d_19">
      <path d="M 45.997813 590.998061 
L 453.561586 590.998061 
" clip-path="url(#p4a7501ec32)" style="fill: none; stroke: #b0b0b0; stroke-opacity: 0.3; stroke-width: 0.5; stroke-linecap: square"/>
     </g>
     <g id="line2d_20">
      <defs>
       <path id="m86af5113ae" d="M 0 0 
L -3.5 0 
" style="stroke: #000000; stroke-width: 0.8"/>
      </defs>
      <g>
       <use xlink:href="#m86af5113ae" x="45.997813" y="590.998061" style="stroke: #000000; stroke-width: 0.8"/>
      </g>
     </g>
     <g id="text_11">
      <!-- 0 -->
      <g transform="translate(32.635313 594.79728) scale(0.1 -0.1)">
       <use xlink:href="#DejaVuSans-30"/>
      </g>
     </g>
    </g>
    <g id="ytick_2">
     <g id="line2d_21">
      <path d="M 45.997813 471.126363 
L 453.561586 471.126363 
" clip-path="url(#p4a7501ec32)" style="fill: none; stroke: #b0b0b0; stroke-opacity: 0.3; stroke-width: 0.5; stroke-linecap: square"/>
     </g>
     <g id="line2d_22">
      <g>
       <use xlink:href="#m86af5113ae" x="45.997813" y="471.126363" style="stroke: #000000; stroke-width: 0.8"/>
      </g>
     </g>
     <g id="text_12">
      <!-- 50 -->
      <g transform="translate(26.272813 474.925582) scale(0.1 -0.1)">
       <defs>
        <path id="DejaVuSans-35" d="M 691 4666 
L 3169 4666 
L 3169 4134 
L 1269 4134 
L 1269 2991 
Q 1406 3038 1543 3061 
Q 1681 3084 1819 3084 
Q 2600 3084 3056 2656 
Q 3513 2228 3513 1497 
Q 3513 744 3044 326 
Q 2575 -91 1722 -91 
Q 1428 -91 1123 -41 
Q 819 9 494 109 
L 494 744 
Q 775 591 1075 516 
Q 1375 441 1709 441 
Q 2250 441 2565 725 
Q 2881 1009 2881 1497 
Q 2881 1984 2565 2268 
Q 2250 2553 1709 2553 
Q 1456 2553 1204 2497 
Q 953 2441 691 2322 
L 691 4666 
z
" transform="scale(0.015625)"/>
       </defs>
       <use xlink:href="#DejaVuSans-35"/>
       <use xlink:href="#DejaVuSans-30" x="63.623047"/>
      </g>
     </g>
    </g>
    <g id="ytick_3">
     <g id="line2d_23">
      <path d="M 45.997813 351.254665 
L 453.561586 351.254665 
" clip-path="url(#p4a7501ec32)" style="fill: none; stroke: #b0b0b0; stroke-opacity: 0.3; stroke-width: 0.5; stroke-linecap: square"/>
     </g>
     <g id="line2d_24">
      <g>
       <use xlink:href="#m86af5113ae" x="45.997813" y="351.254665" style="stroke: #000000; stroke-width: 0.8"/>
      </g>
     </g>
     <g id="text_13">
      <!-- 100 -->
      <g transform="translate(19.910313 355.053884) scale(0.1 -0.1)">
       <defs>
        <path id="DejaVuSans-31" d="M 794 531 
L 1825 531 
L 1825 4091 
L 703 3866 
L 703 4441 
L 1819 4666 
L 2450 4666 
L 2450 531 
L 3481 531 
L 3481 0 
L 794 0 
L 794 531 
z
" transform="scale(0.015625)"/>
       </defs>
       <use xlink:href="#DejaVuSans-31"/>
       <use xlink:href="#DejaVuSans-30" x="63.623047"/>
       <use xlink:href="#DejaVuSans-30" x="127.246094"/>
      </g>
     </g>
    </g>
    <g id="ytick_4">
     <g id="line2d_25">
      <path d="M 45.997813 231.382967 
L 453.561586 231.382967 
" clip-path="url(#p4a7501ec32)" style="fill: none; stroke: #b0b0b0; stroke-opacity: 0.3; stroke-width: 0.5; stroke-linecap: square"/>
     </g>
     <g id="line2d_26">
      <g>
       <use xlink:href="#m86af5113ae" x="45.997813" y="231.382967" style="stroke: #000000; stroke-width: 0.8"/>
      </g>
     </g>
     <g id="text_14">
      <!-- 150 -->
      <g transform="translate(19.910313 235.182186) scale(0.1 -0.1)">
       <use xlink:href="#DejaVuSans-31"/>
       <use xlink:href="#DejaVuSans-35" x="63.623047"/>
       <use xlink:href="#DejaVuSans-30" x="127.246094"/>
      </g>
     </g>
    </g>
    <g id="ytick_5">
     <g id="line2d_27">
      <path d="M 45.997813 111.511269 
L 453.561586 111.511269 
" clip-path="url(#p4a7501ec32)" style="fill: none; stroke: #b0b0b0; stroke-opacity: 0.3; stroke-width: 0.5; stroke-linecap: square"/>
     </g>
     <g id="line2d_28">
      <g>
       <use xlink:href="#m86af5113ae" x="45.997813" y="111.511269" style="stroke: #000000; stroke-width: 0.8"/>
      </g>
     </g>
     <g id="text_15">
      <!-- 200 -->
      <g transform="translate(19.910313 115.310488) scale(0.1 -0.1)">
       <use xlink:href="#DejaVuSans-32"/>
       <use xlink:href="#DejaVuSans-30" x="63.623047"/>
       <use xlink:href="#DejaVuSans-30" x="127.246094"/>
      </g>
     </g>
    </g>
    <g id="text_16">
     <!-- Z (mm) -->
     <g transform="translate(14.038594 374.038875) rotate(-90) scale(0.09 -0.09)">
      <defs>
       <path id="DejaVuSans-5a" d="M 359 4666 
L 4025 4666 
L 4025 4184 
L 1075 531 
L 4097 531 
L 4097 0 
L 288 0 
L 288 481 
L 3238 4134 
L 359 4134 
L 359 4666 
z
" transform="scale(0.015625)"/>
      </defs>
      <use xlink:href="#DejaVuSans-5a"/>
      <use xlink:href="#DejaVuSans-20" x="68.505859"/>
      <use xlink:href="#DejaVuSans-28" x="100.292969"/>
      <use xlink:href="#DejaVuSans-6d" x="139.306641"/>
      <use xlink:href="#DejaVuSans-6d" x="236.71875"/>
      <use xlink:href="#DejaVuSans-29" x="334.130859"/>
     </g>
    </g>
   </g>
   <g id="line2d_29">
    <path d="M 117.920831 600.587797 
L 405.612907 600.587797 
L 405.612907 590.998061 
L 117.920831 590.998061 
L 117.920831 600.587797 
" clip-path="url(#p4a7501ec32)" style="fill: none; stroke: #000000; stroke-width: 2; stroke-linecap: square"/>
   </g>
   <g id="line2d_30">
    <path d="M 396.023171 590.998061 
L 405.612907 590.998061 
L 405.612907 111.511269 
L 396.023171 111.511269 
L 396.023171 590.998061 
" clip-path="url(#p4a7501ec32)" style="fill: none; stroke: #000000; stroke-width: 2; stroke-linecap: square"/>
   </g>
   <g id="line2d_31">
    <path d="M 396.023171 590.998061 
L 403.215473 583.805759 
" clip-path="url(#p4a7501ec32)" style="fill: none; stroke: #ff0000; stroke-width: 2; stroke-linecap: square"/>
   </g>
   <g id="line2d_32">
    <path d="M 93.946492 590.998061 
L 429.587246 590.998061 
" clip-path="url(#p4a7501ec32)" style="fill: none; stroke-dasharray: 1.85,0.8; stroke-dashoffset: 0; stroke: #808080; stroke-opacity: 0.7; stroke-width: 0.5"/>
   </g>
   <g id="line2d_33">
    <path d="M 372.048831 351.254665 
L 429.587246 351.254665 
" clip-path="url(#p4a7501ec32)" style="fill: none; stroke-dasharray: 1.85,0.8; stroke-dashoffset: 0; stroke: #808080; stroke-opacity: 0.7; stroke-width: 0.5"/>
   </g>
   <g id="patch_5">
    <path d="M 45.997813 674.90825 
L 45.997813 39.58825 
" style="fill: none; stroke: #000000; stroke-width: 0.8; stroke-linejoin: miter; stroke-linecap: square"/>
   </g>
   <g id="patch_6">
    <path d="M 453.561586 674.90825 
L 453.561586 39.58825 
" style="fill: none; stroke: #000000; stroke-width: 0.8; stroke-linejoin: miter; stroke-linecap: square"/>
   </g>
   <g id="patch_7">
    <path d="M 45.997813 674.90825 
L 453.561586 674.90825 
" style="fill: none; stroke: #000000; stroke-width: 0.8; stroke-linejoin: miter; stroke-linecap: square"/>
   </g>
   <g id="patch_8">
    <path d="M 45.997813 39.58825 
L 453.561586 39.58825 
" style="fill: none; stroke: #000000; stroke-width: 0.8; stroke-linejoin: miter; stroke-linecap: square"/>
   </g>
   <g id="patch_9">
    <path d="M 121.036239 626.959571 
Q 261.765084 626.959571 402.493929 626.959571 
" style="fill: none; stroke: #000000; stroke-linecap: round"/>
    <path d="M 125.036239 628.959571 
L 121.036239 626.959571 
L 125.036239 624.959571 
" style="fill: none; stroke: #000000; stroke-linecap: round"/>
    <path d="M 398.493929 624.959571 
L 402.493929 626.959571 
L 398.493929 628.959571 
" style="fill: none; stroke: #000000; stroke-linecap: round"/>
   </g>
   <g id="text_17">
    <!-- 120 -->
    <g transform="translate(249.242807 623.078519) scale(0.12 -0.12)">
     <defs>
      <path id="DejaVuSans-Bold-31" d="M 750 831 
L 1813 831 
L 1813 3847 
L 722 3622 
L 722 4441 
L 1806 4666 
L 2950 4666 
L 2950 831 
L 4013 831 
L 4013 0 
L 750 0 
L 750 831 
z
" transform="scale(0.015625)"/>
      <path id="DejaVuSans-Bold-32" d="M 1844 884 
L 3897 884 
L 3897 0 
L 506 0 
L 506 884 
L 2209 2388 
Q 2438 2594 2547 2791 
Q 2656 2988 2656 3200 
Q 2656 3528 2436 3728 
Q 2216 3928 1850 3928 
Q 1569 3928 1234 3808 
Q 900 3688 519 3450 
L 519 4475 
Q 925 4609 1322 4679 
Q 1719 4750 2100 4750 
Q 2938 4750 3402 4381 
Q 3866 4013 3866 3353 
Q 3866 2972 3669 2642 
Q 3472 2313 2841 1759 
L 1844 884 
z
" transform="scale(0.015625)"/>
      <path id="DejaVuSans-Bold-30" d="M 2944 2338 
Q 2944 3213 2780 3570 
Q 2616 3928 2228 3928 
Q 1841 3928 1675 3570 
Q 1509 3213 1509 2338 
Q 1509 1453 1675 1090 
Q 1841 728 2228 728 
Q 2613 728 2778 1090 
Q 2944 1453 2944 2338 
z
M 4147 2328 
Q 4147 1169 3647 539 
Q 3147 -91 2228 -91 
Q 1306 -91 806 539 
Q 306 1169 306 2328 
Q 306 3491 806 4120 
Q 1306 4750 2228 4750 
Q 3147 4750 3647 4120 
Q 4147 3491 4147 2328 
z
" transform="scale(0.015625)"/>
     </defs>
     <use xlink:href="#DejaVuSans-Bold-31"/>
     <use xlink:href="#DejaVuSans-Bold-32" x="69.580078"/>
     <use xlink:href="#DejaVuSans-Bold-30" x="139.160156"/>
    </g>
   </g>
   <g id="patch_10">
    <path d="M 81.959322 597.473487 
Q 81.959322 356.052891 81.959322 114.632296 
" style="fill: none; stroke: #000000; stroke-linecap: round"/>
    <path d="M 83.959322 593.473487 
L 81.959322 597.473487 
L 79.959322 593.473487 
" style="fill: none; stroke: #000000; stroke-linecap: round"/>
    <path d="M 79.959322 118.632296 
L 81.959322 114.632296 
L 83.959322 118.632296 
" style="fill: none; stroke: #000000; stroke-linecap: round"/>
   </g>
   <g id="text_18">
    <!-- 200 -->
    <g transform="translate(78.07827 368.573596) rotate(-90) scale(0.12 -0.12)">
     <use xlink:href="#DejaVuSans-Bold-32"/>
     <use xlink:href="#DejaVuSans-Bold-30" x="69.580078"/>
     <use xlink:href="#DejaVuSans-Bold-30" x="139.160156"/>
    </g>
   </g>
   <g id="patch_11">
    <path d="M 419.997511 597.470341 
Q 419.997511 595.792041 419.997511 594.113741 
" style="fill: none; stroke: #0000ff; stroke-linecap: round"/>
    <path d="M 421.997511 593.470341 
L 419.997511 597.470341 
L 417.997511 593.470341 
" style="fill: none; stroke: #0000ff; stroke-linecap: round"/>
    <path d="M 417.997511 598.113741 
L 419.997511 594.113741 
L 421.997511 598.113741 
" style="fill: none; stroke: #0000ff; stroke-linecap: round"/>
   </g>
   <g id="text_19">
    <!-- 4 -->
    <g style="fill: #0000ff" transform="translate(429.949188 598.974179) rotate(-90) scale(0.1 -0.1)">
     <use xlink:href="#DejaVuSans-34"/>
    </g>
   </g>
   <g id="patch_12">
    <path d="M 399.140627 99.524099 
Q 400.818927 99.524099 402.497227 99.524099 
" style="fill: none; stroke: #0000ff; stroke-linecap: round"/>
    <path d="M 403.140627 101.524099 
L 399.140627 99.524099 
L 403.140627 97.524099 
" style="fill: none; stroke: #0000ff; stroke-linecap: round"/>
    <path d="M 398.497227 97.524099 
L 402.497227 99.524099 
L 398.497227 101.524099 
" style="fill: none; stroke: #0000ff; stroke-linecap: round"/>
   </g>
   <g id="text_20">
    <!-- 4 -->
    <g style="fill: #0000ff" transform="translate(397.636789 95.091172) scale(0.1 -0.1)">
     <use xlink:href="#DejaVuSans-34"/>
    </g>
   </g>
   <g id="text_21">
    <g id="patch_13">
     <path d="M 105.933662 587.217767 
C 108.11015 587.217767 110.197789 586.353038 111.736799 584.814028 
C 113.275808 583.275019 114.140537 581.18738 114.140537 579.010892 
C 114.140537 576.834403 113.275808 574.746764 111.736799 573.207755 
C 110.197789 571.668745 108.11015 570.804017 105.933662 570.804017 
C 103.757173 570.804017 101.669535 571.668745 100.130525 573.207755 
C 98.591515 574.746764 97.726787 576.834403 97.726787 579.010892 
C 97.726787 581.18738 98.591515 583.275019 100.130525 584.814028 
C 101.669535 586.353038 103.757173 587.217767 105.933662 587.217767 
z
" style="fill: #ffffff; stroke: #000000; stroke-linejoin: miter"/>
    </g>
    <!-- A -->
    <g transform="translate(101.290224 582.322142) scale(0.12 -0.12)">
     <defs>
      <path id="DejaVuSans-Bold-41" d="M 3419 850 
L 1538 850 
L 1241 0 
L 31 0 
L 1759 4666 
L 3194 4666 
L 4922 0 
L 3713 0 
L 3419 850 
z
M 1838 1716 
L 3116 1716 
L 2478 3572 
L 1838 1716 
z
" transform="scale(0.015625)"/>
     </defs>
     <use xlink:href="#DejaVuSans-Bold-41"/>
    </g>
   </g>
   <g id="text_22">
    <g id="patch_14">
     <path d="M 441.574416 131.705314 
C 443.750905 131.705314 445.838543 130.840586 447.377553 129.301576 
C 448.916563 127.762566 449.781291 125.674927 449.781291 123.498439 
C 449.781291 121.32195 448.916563 119.234312 447.377553 117.695302 
C 445.838543 116.156292 443.750905 115.291564 441.574416 115.291564 
C 439.397928 115.291564 437.310289 116.156292 435.771279 117.695302 
C 434.232269 119.234312 433.367541 121.32195 433.367541 123.498439 
C 433.367541 125.674927 434.232269 127.762566 435.771279 129.301576 
C 437.310289 130.840586 439.397928 131.705314 441.574416 131.705314 
z
" style="fill: #ffffff; stroke: #000000; stroke-linejoin: miter"/>
    </g>
    <!-- A -->
    <g transform="translate(436.930979 126.809689) scale(0.12 -0.12)">
     <use xlink:href="#DejaVuSans-Bold-41"/>
    </g>
   </g>
   <g id="patch_15">
    <path d="M 190.477449 520.97584 
Q 201.832269 555.0403 212.833536 588.0441 
" style="fill: none; stroke: #000000; stroke-linecap: round"/>
    <path d="M 213.465992 583.616911 
L 212.833536 588.0441 
L 209.671258 584.881822 
" style="fill: none; stroke: #000000; stroke-linecap: round"/>
   </g>
   <g id="text_23">
    <g id="patch_16">
     <path d="M 150.520881 531.169214 
L 229.166819 531.169214 
Q 231.866819 531.169214 231.866819 528.469214 
L 231.866819 509.680871 
Q 231.866819 506.980871 229.166819 506.980871 
L 150.520881 506.980871 
Q 147.820881 506.980871 147.820881 509.680871 
L 147.820881 528.469214 
Q 147.820881 531.169214 150.520881 531.169214 
z
" style="fill: #ffff00; opacity: 0.8; stroke: #000000; stroke-linejoin: miter"/>
    </g>
    <!-- 4mm THICK -->
    <g transform="translate(163.230569 516.519464) scale(0.09 -0.09)">
     <defs>
      <path id="DejaVuSans-54" d="M -19 4666 
L 3928 4666 
L 3928 4134 
L 2272 4134 
L 2272 0 
L 1638 0 
L 1638 4134 
L -19 4134 
L -19 4666 
z
" transform="scale(0.015625)"/>
      <path id="DejaVuSans-48" d="M 628 4666 
L 1259 4666 
L 1259 2753 
L 3553 2753 
L 3553 4666 
L 4184 4666 
L 4184 0 
L 3553 0 
L 3553 2222 
L 1259 2222 
L 1259 0 
L 628 0 
L 628 4666 
z
" transform="scale(0.015625)"/>
      <path id="DejaVuSans-49" d="M 628 4666 
L 1259 4666 
L 1259 0 
L 628 0 
L 628 4666 
z
" transform="scale(0.015625)"/>
      <path id="DejaVuSans-43" d="M 4122 4306 
L 4122 3641 
Q 3803 3938 3442 4084 
Q 3081 4231 2675 4231 
Q 1875 4231 1450 3742 
Q 1025 3253 1025 2328 
Q 1025 1406 1450 917 
Q 1875 428 2675 428 
Q 3081 428 3442 575 
Q 3803 722 4122 1019 
L 4122 359 
Q 3791 134 3420 21 
Q 3050 -91 2638 -91 
Q 1578 -91 968 557 
Q 359 1206 359 2328 
Q 359 3453 968 4101 
Q 1578 4750 2638 4750 
Q 3056 4750 3426 4639 
Q 3797 4528 4122 4306 
z
" transform="scale(0.015625)"/>
      <path id="DejaVuSans-4b" d="M 628 4666 
L 1259 4666 
L 1259 2694 
L 3353 4666 
L 4166 4666 
L 1850 2491 
L 4331 0 
L 3500 0 
L 1259 2247 
L 1259 0 
L 628 0 
L 628 4666 
z
" transform="scale(0.015625)"/>
     </defs>
     <use xlink:href="#DejaVuSans-34"/>
     <use xlink:href="#DejaVuSans-6d" x="63.623047"/>
     <use xlink:href="#DejaVuSans-6d" x="161.035156"/>
     <use xlink:href="#DejaVuSans-20" x="258.447266"/>
     <use xlink:href="#DejaVuSans-54" x="290.234375"/>
     <use xlink:href="#DejaVuSans-48" x="351.318359"/>
     <use xlink:href="#DejaVuSans-49" x="426.513672"/>
     <use xlink:href="#DejaVuSans-43" x="456.005859"/>
     <use xlink:href="#DejaVuSans-4b" x="525.830078"/>
    </g>
    <!-- STAINLESS STEEL -->
    <g transform="translate(150.520881 526.597496) scale(0.09 -0.09)">
     <defs>
      <path id="DejaVuSans-53" d="M 3425 4513 
L 3425 3897 
Q 3066 4069 2747 4153 
Q 2428 4238 2131 4238 
Q 1616 4238 1336 4038 
Q 1056 3838 1056 3469 
Q 1056 3159 1242 3001 
Q 1428 2844 1947 2747 
L 2328 2669 
Q 3034 2534 3370 2195 
Q 3706 1856 3706 1288 
Q 3706 609 3251 259 
Q 2797 -91 1919 -91 
Q 1588 -91 1214 -16 
Q 841 59 441 206 
L 441 856 
Q 825 641 1194 531 
Q 1563 422 1919 422 
Q 2459 422 2753 634 
Q 3047 847 3047 1241 
Q 3047 1584 2836 1778 
Q 2625 1972 2144 2069 
L 1759 2144 
Q 1053 2284 737 2584 
Q 422 2884 422 3419 
Q 422 4038 858 4394 
Q 1294 4750 2059 4750 
Q 2388 4750 2728 4690 
Q 3069 4631 3425 4513 
z
" transform="scale(0.015625)"/>
      <path id="DejaVuSans-41" d="M 2188 4044 
L 1331 1722 
L 3047 1722 
L 2188 4044 
z
M 1831 4666 
L 2547 4666 
L 4325 0 
L 3669 0 
L 3244 1197 
L 1141 1197 
L 716 0 
L 50 0 
L 1831 4666 
z
" transform="scale(0.015625)"/>
      <path id="DejaVuSans-4e" d="M 628 4666 
L 1478 4666 
L 3547 763 
L 3547 4666 
L 4159 4666 
L 4159 0 
L 3309 0 
L 1241 3903 
L 1241 0 
L 628 0 
L 628 4666 
z
" transform="scale(0.015625)"/>
      <path id="DejaVuSans-4c" d="M 628 4666 
L 1259 4666 
L 1259 531 
L 3531 531 
L 3531 0 
L 628 0 
L 628 4666 
z
" transform="scale(0.015625)"/>
      <path id="DejaVuSans-45" d="M 628 4666 
L 3578 4666 
L 3578 4134 
L 1259 4134 
L 1259 2753 
L 3481 2753 
L 3481 2222 
L 1259 2222 
L 1259 531 
L 3634 531 
L 3634 0 
L 628 0 
L 628 4666 
z
" transform="scale(0.015625)"/>
     </defs>
     <use xlink:href="#DejaVuSans-53"/>
     <use xlink:href="#DejaVuSans-54" x="63.476562"/>
     <use xlink:href="#DejaVuSans-41" x="116.810547"/>
     <use xlink:href="#DejaVuSans-49" x="185.21875"/>
     <use xlink:href="#DejaVuSans-4e" x="214.710938"/>
     <use xlink:href="#DejaVuSans-4c" x="289.515625"/>
     <use xlink:href="#DejaVuSans-45" x="345.228516"/>
     <use xlink:href="#DejaVuSans-53" x="408.412109"/>
     <use xlink:href="#DejaVuSans-53" x="471.888672"/>
     <use xlink:href="#DejaVuSans-20" x="535.365234"/>
     <use xlink:href="#DejaVuSans-53" x="567.152344"/>
     <use xlink:href="#DejaVuSans-54" x="630.628906"/>
     <use xlink:href="#DejaVuSans-45" x="691.712891"/>
     <use xlink:href="#DejaVuSans-45" x="754.896484"/>
     <use xlink:href="#DejaVuSans-4c" x="818.080078"/>
    </g>
   </g>
   <g id="patch_17">
    <path d="M 299.033988 232.901117 
Q 349.275264 291.321206 398.787538 348.893617 
" style="fill: none; stroke: #000000; stroke-linecap: round"/>
    <path d="M 397.695751 344.556798 
L 398.787538 348.893617 
L 394.66301 347.164955 
" style="fill: none; stroke: #000000; stroke-linecap: round"/>
   </g>
   <g id="text_24">
    <g id="patch_18">
     <path d="M 258.40541 243.477139 
L 337.051347 243.477139 
Q 339.751347 243.477139 339.751347 240.777139 
L 339.751347 221.988795 
Q 339.751347 219.288795 337.051347 219.288795 
L 258.40541 219.288795 
Q 255.70541 219.288795 255.70541 221.988795 
L 255.70541 240.777139 
Q 255.70541 243.477139 258.40541 243.477139 
z
" style="fill: #ffff00; opacity: 0.8; stroke: #000000; stroke-linejoin: miter"/>
    </g>
    <!-- 4mm THICK -->
    <g transform="translate(271.115097 228.827389) scale(0.09 -0.09)">
     <use xlink:href="#DejaVuSans-34"/>
     <use xlink:href="#DejaVuSans-6d" x="63.623047"/>
     <use xlink:href="#DejaVuSans-6d" x="161.035156"/>
     <use xlink:href="#DejaVuSans-20" x="258.447266"/>
     <use xlink:href="#DejaVuSans-54" x="290.234375"/>
     <use xlink:href="#DejaVuSans-48" x="351.318359"/>
     <use xlink:href="#DejaVuSans-49" x="426.513672"/>
     <use xlink:href="#DejaVuSans-43" x="456.005859"/>
     <use xlink:href="#DejaVuSans-4b" x="525.830078"/>
    </g>
    <!-- STAINLESS STEEL -->
    <g transform="translate(258.40541 238.90542) scale(0.09 -0.09)">
     <use xlink:href="#DejaVuSans-53"/>
     <use xlink:href="#DejaVuSans-54" x="63.476562"/>
     <use xlink:href="#DejaVuSans-41" x="116.810547"/>
     <use xlink:href="#DejaVuSans-49" x="185.21875"/>
     <use xlink:href="#DejaVuSans-4e" x="214.710938"/>
     <use xlink:href="#DejaVuSans-4c" x="289.515625"/>
     <use xlink:href="#DejaVuSans-45" x="345.228516"/>
     <use xlink:href="#DejaVuSans-53" x="408.412109"/>
     <use xlink:href="#DejaVuSans-53" x="471.888672"/>
     <use xlink:href="#DejaVuSans-20" x="535.365234"/>
     <use xlink:href="#DejaVuSans-53" x="567.152344"/>
     <use xlink:href="#DejaVuSans-54" x="630.628906"/>
     <use xlink:href="#DejaVuSans-45" x="691.712891"/>
     <use xlink:href="#DejaVuSans-45" x="754.896484"/>
     <use xlink:href="#DejaVuSans-4c" x="818.080078"/>
    </g>
   </g>
   <g id="patch_19">
    <path d="M 310.744086 448.866253 
Q 352.868982 519.074413 394.418654 588.323866 
" style="fill: none; stroke: #ff0000; stroke-linecap: round"/>
    <path d="M 394.075657 583.864903 
L 394.418654 588.323866 
L 390.645685 585.922886 
" style="fill: none; stroke: #ff0000; stroke-linecap: round"/>
   </g>
   <g id="text_25">
    <g id="patch_20">
     <path d="M 281.970939 459.246195 
L 337.460158 459.246195 
Q 340.160158 459.246195 340.160158 456.546195 
L 340.160158 437.757852 
Q 340.160158 435.057852 337.460158 435.057852 
L 281.970939 435.057852 
Q 279.270939 435.057852 279.270939 437.757852 
L 279.270939 456.546195 
Q 279.270939 459.246195 281.970939 459.246195 
z
" style="fill: #ffc0cb; opacity: 0.8; stroke: #000000; stroke-linejoin: miter"/>
    </g>
    <!-- FLUSH WITH -->
    <g style="fill: #ff0000" transform="translate(281.970939 444.596445) scale(0.09 -0.09)">
     <defs>
      <path id="DejaVuSans-46" d="M 628 4666 
L 3309 4666 
L 3309 4134 
L 1259 4134 
L 1259 2759 
L 3109 2759 
L 3109 2228 
L 1259 2228 
L 1259 0 
L 628 0 
L 628 4666 
z
" transform="scale(0.015625)"/>
      <path id="DejaVuSans-55" d="M 556 4666 
L 1191 4666 
L 1191 1831 
Q 1191 1081 1462 751 
Q 1734 422 2344 422 
Q 2950 422 3222 751 
Q 3494 1081 3494 1831 
L 3494 4666 
L 4128 4666 
L 4128 1753 
Q 4128 841 3676 375 
Q 3225 -91 2344 -91 
Q 1459 -91 1007 375 
Q 556 841 556 1753 
L 556 4666 
z
" transform="scale(0.015625)"/>
      <path id="DejaVuSans-57" d="M 213 4666 
L 850 4666 
L 1831 722 
L 2809 4666 
L 3519 4666 
L 4500 722 
L 5478 4666 
L 6119 4666 
L 4947 0 
L 4153 0 
L 3169 4050 
L 2175 0 
L 1381 0 
L 213 4666 
z
" transform="scale(0.015625)"/>
     </defs>
     <use xlink:href="#DejaVuSans-46"/>
     <use xlink:href="#DejaVuSans-4c" x="57.519531"/>
     <use xlink:href="#DejaVuSans-55" x="108.232422"/>
     <use xlink:href="#DejaVuSans-53" x="181.425781"/>
     <use xlink:href="#DejaVuSans-48" x="244.902344"/>
     <use xlink:href="#DejaVuSans-20" x="320.097656"/>
     <use xlink:href="#DejaVuSans-57" x="351.884766"/>
     <use xlink:href="#DejaVuSans-49" x="450.761719"/>
     <use xlink:href="#DejaVuSans-54" x="480.253906"/>
     <use xlink:href="#DejaVuSans-48" x="541.337891"/>
    </g>
    <!-- BACK EDGE -->
    <g style="fill: #ff0000" transform="translate(283.466486 454.674477) scale(0.09 -0.09)">
     <defs>
      <path id="DejaVuSans-42" d="M 1259 2228 
L 1259 519 
L 2272 519 
Q 2781 519 3026 730 
Q 3272 941 3272 1375 
Q 3272 1813 3026 2020 
Q 2781 2228 2272 2228 
L 1259 2228 
z
M 1259 4147 
L 1259 2741 
L 2194 2741 
Q 2656 2741 2882 2914 
Q 3109 3088 3109 3444 
Q 3109 3797 2882 3972 
Q 2656 4147 2194 4147 
L 1259 4147 
z
M 628 4666 
L 2241 4666 
Q 2963 4666 3353 4366 
Q 3744 4066 3744 3513 
Q 3744 3084 3544 2831 
Q 3344 2578 2956 2516 
Q 3422 2416 3680 2098 
Q 3938 1781 3938 1306 
Q 3938 681 3513 340 
Q 3088 0 2303 0 
L 628 0 
L 628 4666 
z
" transform="scale(0.015625)"/>
      <path id="DejaVuSans-44" d="M 1259 4147 
L 1259 519 
L 2022 519 
Q 2988 519 3436 956 
Q 3884 1394 3884 2338 
Q 3884 3275 3436 3711 
Q 2988 4147 2022 4147 
L 1259 4147 
z
M 628 4666 
L 1925 4666 
Q 3281 4666 3915 4102 
Q 4550 3538 4550 2338 
Q 4550 1131 3912 565 
Q 3275 0 1925 0 
L 628 0 
L 628 4666 
z
" transform="scale(0.015625)"/>
      <path id="DejaVuSans-47" d="M 3809 666 
L 3809 1919 
L 2778 1919 
L 2778 2438 
L 4434 2438 
L 4434 434 
Q 4069 175 3628 42 
Q 3188 -91 2688 -91 
Q 1594 -91 976 548 
Q 359 1188 359 2328 
Q 359 3472 976 4111 
Q 1594 4750 2688 4750 
Q 3144 4750 3555 4637 
Q 3966 4525 4313 4306 
L 4313 3634 
Q 3963 3931 3569 4081 
Q 3175 4231 2741 4231 
Q 1884 4231 1454 3753 
Q 1025 3275 1025 2328 
Q 1025 1384 1454 906 
Q 1884 428 2741 428 
Q 3075 428 3337 486 
Q 3600 544 3809 666 
z
" transform="scale(0.015625)"/>
     </defs>
     <use xlink:href="#DejaVuSans-42"/>
     <use xlink:href="#DejaVuSans-41" x="68.603516"/>
     <use xlink:href="#DejaVuSans-43" x="135.261719"/>
     <use xlink:href="#DejaVuSans-4b" x="205.085938"/>
     <use xlink:href="#DejaVuSans-20" x="270.662109"/>
     <use xlink:href="#DejaVuSans-45" x="302.449219"/>
     <use xlink:href="#DejaVuSans-44" x="365.632812"/>
     <use xlink:href="#DejaVuSans-47" x="442.634766"/>
     <use xlink:href="#DejaVuSans-45" x="520.125"/>
    </g>
   </g>
   <g id="text_26">
    <g id="patch_21">
     <path d="M 93.946492 183.389769 
L 256.250242 183.389769 
Q 258.950242 183.389769 258.950242 180.689769 
L 258.950242 111.511269 
Q 258.950242 108.811269 256.250242 108.811269 
L 93.946492 108.811269 
Q 91.246492 108.811269 91.246492 111.511269 
L 91.246492 180.689769 
Q 91.246492 183.389769 93.946492 183.389769 
z
" style="fill: #d3d3d3; opacity: 0.8; stroke: #000000; stroke-linejoin: miter"/>
    </g>
    <!-- NOTES: -->
    <g transform="translate(93.946492 118.349863) scale(0.09 -0.09)">
     <defs>
      <path id="DejaVuSans-4f" d="M 2522 4238 
Q 1834 4238 1429 3725 
Q 1025 3213 1025 2328 
Q 1025 1447 1429 934 
Q 1834 422 2522 422 
Q 3209 422 3611 934 
Q 4013 1447 4013 2328 
Q 4013 3213 3611 3725 
Q 3209 4238 2522 4238 
z
M 2522 4750 
Q 3503 4750 4090 4092 
Q 4678 3434 4678 2328 
Q 4678 1225 4090 567 
Q 3503 -91 2522 -91 
Q 1538 -91 948 565 
Q 359 1222 359 2328 
Q 359 3434 948 4092 
Q 1538 4750 2522 4750 
z
" transform="scale(0.015625)"/>
      <path id="DejaVuSans-3a" d="M 750 794 
L 1409 794 
L 1409 0 
L 750 0 
L 750 794 
z
M 750 3309 
L 1409 3309 
L 1409 2516 
L 750 2516 
L 750 3309 
z
" transform="scale(0.015625)"/>
     </defs>
     <use xlink:href="#DejaVuSans-4e"/>
     <use xlink:href="#DejaVuSans-4f" x="74.804688"/>
     <use xlink:href="#DejaVuSans-54" x="153.515625"/>
     <use xlink:href="#DejaVuSans-45" x="214.599609"/>
     <use xlink:href="#DejaVuSans-53" x="277.783203"/>
     <use xlink:href="#DejaVuSans-3a" x="341.259766"/>
    </g>
    <!-- • All dimensions in mm -->
    <g transform="translate(93.946492 128.427894) scale(0.09 -0.09)">
     <defs>
      <path id="DejaVuSans-2022" d="M 959 2381 
Q 959 2769 1229 3036 
Q 1500 3303 1894 3303 
Q 2281 3303 2548 3036 
Q 2816 2769 2816 2381 
Q 2816 1991 2547 1722 
Q 2278 1453 1888 1453 
Q 1497 1453 1228 1722 
Q 959 1991 959 2381 
z
" transform="scale(0.015625)"/>
      <path id="DejaVuSans-6c" d="M 603 4863 
L 1178 4863 
L 1178 0 
L 603 0 
L 603 4863 
z
" transform="scale(0.015625)"/>
      <path id="DejaVuSans-64" d="M 2906 2969 
L 2906 4863 
L 3481 4863 
L 3481 0 
L 2906 0 
L 2906 525 
Q 2725 213 2448 61 
Q 2172 -91 1784 -91 
Q 1150 -91 751 415 
Q 353 922 353 1747 
Q 353 2572 751 3078 
Q 1150 3584 1784 3584 
Q 2172 3584 2448 3432 
Q 2725 3281 2906 2969 
z
M 947 1747 
Q 947 1113 1208 752 
Q 1469 391 1925 391 
Q 2381 391 2643 752 
Q 2906 1113 2906 1747 
Q 2906 2381 2643 2742 
Q 2381 3103 1925 3103 
Q 1469 3103 1208 2742 
Q 947 2381 947 1747 
z
" transform="scale(0.015625)"/>
      <path id="DejaVuSans-69" d="M 603 3500 
L 1178 3500 
L 1178 0 
L 603 0 
L 603 3500 
z
M 603 4863 
L 1178 4863 
L 1178 4134 
L 603 4134 
L 603 4863 
z
" transform="scale(0.015625)"/>
      <path id="DejaVuSans-65" d="M 3597 1894 
L 3597 1613 
L 953 1613 
Q 991 1019 1311 708 
Q 1631 397 2203 397 
Q 2534 397 2845 478 
Q 3156 559 3463 722 
L 3463 178 
Q 3153 47 2828 -22 
Q 2503 -91 2169 -91 
Q 1331 -91 842 396 
Q 353 884 353 1716 
Q 353 2575 817 3079 
Q 1281 3584 2069 3584 
Q 2775 3584 3186 3129 
Q 3597 2675 3597 1894 
z
M 3022 2063 
Q 3016 2534 2758 2815 
Q 2500 3097 2075 3097 
Q 1594 3097 1305 2825 
Q 1016 2553 972 2059 
L 3022 2063 
z
" transform="scale(0.015625)"/>
      <path id="DejaVuSans-6e" d="M 3513 2113 
L 3513 0 
L 2938 0 
L 2938 2094 
Q 2938 2591 2744 2837 
Q 2550 3084 2163 3084 
Q 1697 3084 1428 2787 
Q 1159 2491 1159 1978 
L 1159 0 
L 581 0 
L 581 3500 
L 1159 3500 
L 1159 2956 
Q 1366 3272 1645 3428 
Q 1925 3584 2291 3584 
Q 2894 3584 3203 3211 
Q 3513 2838 3513 2113 
z
" transform="scale(0.015625)"/>
      <path id="DejaVuSans-73" d="M 2834 3397 
L 2834 2853 
Q 2591 2978 2328 3040 
Q 2066 3103 1784 3103 
Q 1356 3103 1142 2972 
Q 928 2841 928 2578 
Q 928 2378 1081 2264 
Q 1234 2150 1697 2047 
L 1894 2003 
Q 2506 1872 2764 1633 
Q 3022 1394 3022 966 
Q 3022 478 2636 193 
Q 2250 -91 1575 -91 
Q 1294 -91 989 -36 
Q 684 19 347 128 
L 347 722 
Q 666 556 975 473 
Q 1284 391 1588 391 
Q 1994 391 2212 530 
Q 2431 669 2431 922 
Q 2431 1156 2273 1281 
Q 2116 1406 1581 1522 
L 1381 1569 
Q 847 1681 609 1914 
Q 372 2147 372 2553 
Q 372 3047 722 3315 
Q 1072 3584 1716 3584 
Q 2034 3584 2315 3537 
Q 2597 3491 2834 3397 
z
" transform="scale(0.015625)"/>
      <path id="DejaVuSans-6f" d="M 1959 3097 
Q 1497 3097 1228 2736 
Q 959 2375 959 1747 
Q 959 1119 1226 758 
Q 1494 397 1959 397 
Q 2419 397 2687 759 
Q 2956 1122 2956 1747 
Q 2956 2369 2687 2733 
Q 2419 3097 1959 3097 
z
M 1959 3584 
Q 2709 3584 3137 3096 
Q 3566 2609 3566 1747 
Q 3566 888 3137 398 
Q 2709 -91 1959 -91 
Q 1206 -91 779 398 
Q 353 888 353 1747 
Q 353 2609 779 3096 
Q 1206 3584 1959 3584 
z
" transform="scale(0.015625)"/>
     </defs>
     <use xlink:href="#DejaVuSans-2022"/>
     <use xlink:href="#DejaVuSans-20" x="58.984375"/>
     <use xlink:href="#DejaVuSans-41" x="90.771484"/>
     <use xlink:href="#DejaVuSans-6c" x="159.179688"/>
     <use xlink:href="#DejaVuSans-6c" x="186.962891"/>
     <use xlink:href="#DejaVuSans-20" x="214.746094"/>
     <use xlink:href="#DejaVuSans-64" x="246.533203"/>
     <use xlink:href="#DejaVuSans-69" x="310.009766"/>
     <use xlink:href="#DejaVuSans-6d" x="337.792969"/>
     <use xlink:href="#DejaVuSans-65" x="435.205078"/>
     <use xlink:href="#DejaVuSans-6e" x="496.728516"/>
     <use xlink:href="#DejaVuSans-73" x="560.107422"/>
     <use xlink:href="#DejaVuSans-69" x="612.207031"/>
     <use xlink:href="#DejaVuSans-6f" x="639.990234"/>
     <use xlink:href="#DejaVuSans-6e" x="701.171875"/>
     <use xlink:href="#DejaVuSans-73" x="764.550781"/>
     <use xlink:href="#DejaVuSans-20" x="816.650391"/>
     <use xlink:href="#DejaVuSans-69" x="848.4375"/>
     <use xlink:href="#DejaVuSans-6e" x="876.220703"/>
     <use xlink:href="#DejaVuSans-20" x="939.599609"/>
     <use xlink:href="#DejaVuSans-6d" x="971.386719"/>
     <use xlink:href="#DejaVuSans-6d" x="1068.798828"/>
    </g>
    <!-- • Material: 4mm Stainless Steel -->
    <g transform="translate(93.946492 138.505925) scale(0.09 -0.09)">
     <defs>
      <path id="DejaVuSans-4d" d="M 628 4666 
L 1569 4666 
L 2759 1491 
L 3956 4666 
L 4897 4666 
L 4897 0 
L 4281 0 
L 4281 4097 
L 3078 897 
L 2444 897 
L 1241 4097 
L 1241 0 
L 628 0 
L 628 4666 
z
" transform="scale(0.015625)"/>
      <path id="DejaVuSans-61" d="M 2194 1759 
Q 1497 1759 1228 1600 
Q 959 1441 959 1056 
Q 959 750 1161 570 
Q 1363 391 1709 391 
Q 2188 391 2477 730 
Q 2766 1069 2766 1631 
L 2766 1759 
L 2194 1759 
z
M 3341 1997 
L 3341 0 
L 2766 0 
L 2766 531 
Q 2569 213 2275 61 
Q 1981 -91 1556 -91 
Q 1019 -91 701 211 
Q 384 513 384 1019 
Q 384 1609 779 1909 
Q 1175 2209 1959 2209 
L 2766 2209 
L 2766 2266 
Q 2766 2663 2505 2880 
Q 2244 3097 1772 3097 
Q 1472 3097 1187 3025 
Q 903 2953 641 2809 
L 641 3341 
Q 956 3463 1253 3523 
Q 1550 3584 1831 3584 
Q 2591 3584 2966 3190 
Q 3341 2797 3341 1997 
z
" transform="scale(0.015625)"/>
      <path id="DejaVuSans-74" d="M 1172 4494 
L 1172 3500 
L 2356 3500 
L 2356 3053 
L 1172 3053 
L 1172 1153 
Q 1172 725 1289 603 
Q 1406 481 1766 481 
L 2356 481 
L 2356 0 
L 1766 0 
Q 1100 0 847 248 
Q 594 497 594 1153 
L 594 3053 
L 172 3053 
L 172 3500 
L 594 3500 
L 594 4494 
L 1172 4494 
z
" transform="scale(0.015625)"/>
      <path id="DejaVuSans-72" d="M 2631 2963 
Q 2534 3019 2420 3045 
Q 2306 3072 2169 3072 
Q 1681 3072 1420 2755 
Q 1159 2438 1159 1844 
L 1159 0 
L 581 0 
L 581 3500 
L 1159 3500 
L 1159 2956 
Q 1341 3275 1631 3429 
Q 1922 3584 2338 3584 
Q 2397 3584 2469 3576 
Q 2541 3569 2628 3553 
L 2631 2963 
z
" transform="scale(0.015625)"/>
     </defs>
     <use xlink:href="#DejaVuSans-2022"/>
     <use xlink:href="#DejaVuSans-20" x="58.984375"/>
     <use xlink:href="#DejaVuSans-4d" x="90.771484"/>
     <use xlink:href="#DejaVuSans-61" x="177.050781"/>
     <use xlink:href="#DejaVuSans-74" x="238.330078"/>
     <use xlink:href="#DejaVuSans-65" x="277.539062"/>
     <use xlink:href="#DejaVuSans-72" x="339.0625"/>
     <use xlink:href="#DejaVuSans-69" x="380.175781"/>
     <use xlink:href="#DejaVuSans-61" x="407.958984"/>
     <use xlink:href="#DejaVuSans-6c" x="469.238281"/>
     <use xlink:href="#DejaVuSans-3a" x="497.021484"/>
     <use xlink:href="#DejaVuSans-20" x="530.712891"/>
     <use xlink:href="#DejaVuSans-34" x="562.5"/>
     <use xlink:href="#DejaVuSans-6d" x="626.123047"/>
     <use xlink:href="#DejaVuSans-6d" x="723.535156"/>
     <use xlink:href="#DejaVuSans-20" x="820.947266"/>
     <use xlink:href="#DejaVuSans-53" x="852.734375"/>
     <use xlink:href="#DejaVuSans-74" x="916.210938"/>
     <use xlink:href="#DejaVuSans-61" x="955.419922"/>
     <use xlink:href="#DejaVuSans-69" x="1016.699219"/>
     <use xlink:href="#DejaVuSans-6e" x="1044.482422"/>
     <use xlink:href="#DejaVuSans-6c" x="1107.861328"/>
     <use xlink:href="#DejaVuSans-65" x="1135.644531"/>
     <use xlink:href="#DejaVuSans-73" x="1197.167969"/>
     <use xlink:href="#DejaVuSans-73" x="1249.267578"/>
     <use xlink:href="#DejaVuSans-20" x="1301.367188"/>
     <use xlink:href="#DejaVuSans-53" x="1333.154297"/>
     <use xlink:href="#DejaVuSans-74" x="1396.630859"/>
     <use xlink:href="#DejaVuSans-65" x="1435.839844"/>
     <use xlink:href="#DejaVuSans-65" x="1497.363281"/>
     <use xlink:href="#DejaVuSans-6c" x="1558.886719"/>
    </g>
    <!-- • Continuous fillet weld -->
    <g transform="translate(93.946492 148.583956) scale(0.09 -0.09)">
     <defs>
      <path id="DejaVuSans-75" d="M 544 1381 
L 544 3500 
L 1119 3500 
L 1119 1403 
Q 1119 906 1312 657 
Q 1506 409 1894 409 
Q 2359 409 2629 706 
Q 2900 1003 2900 1516 
L 2900 3500 
L 3475 3500 
L 3475 0 
L 2900 0 
L 2900 538 
Q 2691 219 2414 64 
Q 2138 -91 1772 -91 
Q 1169 -91 856 284 
Q 544 659 544 1381 
z
M 1991 3584 
L 1991 3584 
z
" transform="scale(0.015625)"/>
      <path id="DejaVuSans-66" d="M 2375 4863 
L 2375 4384 
L 1825 4384 
Q 1516 4384 1395 4259 
Q 1275 4134 1275 3809 
L 1275 3500 
L 2222 3500 
L 2222 3053 
L 1275 3053 
L 1275 0 
L 697 0 
L 697 3053 
L 147 3053 
L 147 3500 
L 697 3500 
L 697 3744 
Q 697 4328 969 4595 
Q 1241 4863 1831 4863 
L 2375 4863 
z
" transform="scale(0.015625)"/>
      <path id="DejaVuSans-77" d="M 269 3500 
L 844 3500 
L 1563 769 
L 2278 3500 
L 2956 3500 
L 3675 769 
L 4391 3500 
L 4966 3500 
L 4050 0 
L 3372 0 
L 2619 2869 
L 1863 0 
L 1184 0 
L 269 3500 
z
" transform="scale(0.015625)"/>
     </defs>
     <use xlink:href="#DejaVuSans-2022"/>
     <use xlink:href="#DejaVuSans-20" x="58.984375"/>
     <use xlink:href="#DejaVuSans-43" x="90.771484"/>
     <use xlink:href="#DejaVuSans-6f" x="160.595703"/>
     <use xlink:href="#DejaVuSans-6e" x="221.777344"/>
     <use xlink:href="#DejaVuSans-74" x="285.15625"/>
     <use xlink:href="#DejaVuSans-69" x="324.365234"/>
     <use xlink:href="#DejaVuSans-6e" x="352.148438"/>
     <use xlink:href="#DejaVuSans-75" x="415.527344"/>
     <use xlink:href="#DejaVuSans-6f" x="478.90625"/>
     <use xlink:href="#DejaVuSans-75" x="540.087891"/>
     <use xlink:href="#DejaVuSans-73" x="603.466797"/>
     <use xlink:href="#DejaVuSans-20" x="655.566406"/>
     <use xlink:href="#DejaVuSans-66" x="687.353516"/>
     <use xlink:href="#DejaVuSans-69" x="722.558594"/>
     <use xlink:href="#DejaVuSans-6c" x="750.341797"/>
     <use xlink:href="#DejaVuSans-6c" x="778.125"/>
     <use xlink:href="#DejaVuSans-65" x="805.908203"/>
     <use xlink:href="#DejaVuSans-74" x="867.431641"/>
     <use xlink:href="#DejaVuSans-20" x="906.640625"/>
     <use xlink:href="#DejaVuSans-77" x="938.427734"/>
     <use xlink:href="#DejaVuSans-65" x="1020.214844"/>
     <use xlink:href="#DejaVuSans-6c" x="1081.738281"/>
     <use xlink:href="#DejaVuSans-64" x="1109.521484"/>
    </g>
    <!-- • Remove all burrs and sharp edges -->
    <g transform="translate(93.946492 158.661988) scale(0.09 -0.09)">
     <defs>
      <path id="DejaVuSans-52" d="M 2841 2188 
Q 3044 2119 3236 1894 
Q 3428 1669 3622 1275 
L 4263 0 
L 3584 0 
L 2988 1197 
Q 2756 1666 2539 1819 
Q 2322 1972 1947 1972 
L 1259 1972 
L 1259 0 
L 628 0 
L 628 4666 
L 2053 4666 
Q 2853 4666 3247 4331 
Q 3641 3997 3641 3322 
Q 3641 2881 3436 2590 
Q 3231 2300 2841 2188 
z
M 1259 4147 
L 1259 2491 
L 2053 2491 
Q 2509 2491 2742 2702 
Q 2975 2913 2975 3322 
Q 2975 3731 2742 3939 
Q 2509 4147 2053 4147 
L 1259 4147 
z
" transform="scale(0.015625)"/>
      <path id="DejaVuSans-76" d="M 191 3500 
L 800 3500 
L 1894 563 
L 2988 3500 
L 3597 3500 
L 2284 0 
L 1503 0 
L 191 3500 
z
" transform="scale(0.015625)"/>
      <path id="DejaVuSans-62" d="M 3116 1747 
Q 3116 2381 2855 2742 
Q 2594 3103 2138 3103 
Q 1681 3103 1420 2742 
Q 1159 2381 1159 1747 
Q 1159 1113 1420 752 
Q 1681 391 2138 391 
Q 2594 391 2855 752 
Q 3116 1113 3116 1747 
z
M 1159 2969 
Q 1341 3281 1617 3432 
Q 1894 3584 2278 3584 
Q 2916 3584 3314 3078 
Q 3713 2572 3713 1747 
Q 3713 922 3314 415 
Q 2916 -91 2278 -91 
Q 1894 -91 1617 61 
Q 1341 213 1159 525 
L 1159 0 
L 581 0 
L 581 4863 
L 1159 4863 
L 1159 2969 
z
" transform="scale(0.015625)"/>
      <path id="DejaVuSans-68" d="M 3513 2113 
L 3513 0 
L 2938 0 
L 2938 2094 
Q 2938 2591 2744 2837 
Q 2550 3084 2163 3084 
Q 1697 3084 1428 2787 
Q 1159 2491 1159 1978 
L 1159 0 
L 581 0 
L 581 4863 
L 1159 4863 
L 1159 2956 
Q 1366 3272 1645 3428 
Q 1925 3584 2291 3584 
Q 2894 3584 3203 3211 
Q 3513 2838 3513 2113 
z
" transform="scale(0.015625)"/>
      <path id="DejaVuSans-70" d="M 1159 525 
L 1159 -1331 
L 581 -1331 
L 581 3500 
L 1159 3500 
L 1159 2969 
Q 1341 3281 1617 3432 
Q 1894 3584 2278 3584 
Q 2916 3584 3314 3078 
Q 3713 2572 3713 1747 
Q 3713 922 3314 415 
Q 2916 -91 2278 -91 
Q 1894 -91 1617 61 
Q 1341 213 1159 525 
z
M 3116 1747 
Q 3116 2381 2855 2742 
Q 2594 3103 2138 3103 
Q 1681 3103 1420 2742 
Q 1159 2381 1159 1747 
Q 1159 1113 1420 752 
Q 1681 391 2138 391 
Q 2594 391 2855 752 
Q 3116 1113 3116 1747 
z
" transform="scale(0.015625)"/>
      <path id="DejaVuSans-67" d="M 2906 1791 
Q 2906 2416 2648 2759 
Q 2391 3103 1925 3103 
Q 1463 3103 1205 2759 
Q 947 2416 947 1791 
Q 947 1169 1205 825 
Q 1463 481 1925 481 
Q 2391 481 2648 825 
Q 2906 1169 2906 1791 
z
M 3481 434 
Q 3481 -459 3084 -895 
Q 2688 -1331 1869 -1331 
Q 1566 -1331 1297 -1286 
Q 1028 -1241 775 -1147 
L 775 -588 
Q 1028 -725 1275 -790 
Q 1522 -856 1778 -856 
Q 2344 -856 2625 -561 
Q 2906 -266 2906 331 
L 2906 616 
Q 2728 306 2450 153 
Q 2172 0 1784 0 
Q 1141 0 747 490 
Q 353 981 353 1791 
Q 353 2603 747 3093 
Q 1141 3584 1784 3584 
Q 2172 3584 2450 3431 
Q 2728 3278 2906 2969 
L 2906 3500 
L 3481 3500 
L 3481 434 
z
" transform="scale(0.015625)"/>
     </defs>
     <use xlink:href="#DejaVuSans-2022"/>
     <use xlink:href="#DejaVuSans-20" x="58.984375"/>
     <use xlink:href="#DejaVuSans-52" x="90.771484"/>
     <use xlink:href="#DejaVuSans-65" x="155.753906"/>
     <use xlink:href="#DejaVuSans-6d" x="217.277344"/>
     <use xlink:href="#DejaVuSans-6f" x="314.689453"/>
     <use xlink:href="#DejaVuSans-76" x="375.871094"/>
     <use xlink:href="#DejaVuSans-65" x="435.050781"/>
     <use xlink:href="#DejaVuSans-20" x="496.574219"/>
     <use xlink:href="#DejaVuSans-61" x="528.361328"/>
     <use xlink:href="#DejaVuSans-6c" x="589.640625"/>
     <use xlink:href="#DejaVuSans-6c" x="617.423828"/>
     <use xlink:href="#DejaVuSans-20" x="645.207031"/>
     <use xlink:href="#DejaVuSans-62" x="676.994141"/>
     <use xlink:href="#DejaVuSans-75" x="740.470703"/>
     <use xlink:href="#DejaVuSans-72" x="803.849609"/>
     <use xlink:href="#DejaVuSans-72" x="843.212891"/>
     <use xlink:href="#DejaVuSans-73" x="884.326172"/>
     <use xlink:href="#DejaVuSans-20" x="936.425781"/>
     <use xlink:href="#DejaVuSans-61" x="968.212891"/>
     <use xlink:href="#DejaVuSans-6e" x="1029.492188"/>
     <use xlink:href="#DejaVuSans-64" x="1092.871094"/>
     <use xlink:href="#DejaVuSans-20" x="1156.347656"/>
     <use xlink:href="#DejaVuSans-73" x="1188.134766"/>
     <use xlink:href="#DejaVuSans-68" x="1240.234375"/>
     <use xlink:href="#DejaVuSans-61" x="1303.613281"/>
     <use xlink:href="#DejaVuSans-72" x="1364.892578"/>
     <use xlink:href="#DejaVuSans-70" x="1406.005859"/>
     <use xlink:href="#DejaVuSans-20" x="1469.482422"/>
     <use xlink:href="#DejaVuSans-65" x="1501.269531"/>
     <use xlink:href="#DejaVuSans-64" x="1562.792969"/>
     <use xlink:href="#DejaVuSans-67" x="1626.269531"/>
     <use xlink:href="#DejaVuSans-65" x="1689.746094"/>
     <use xlink:href="#DejaVuSans-73" x="1751.269531"/>
    </g>
    <!-- • U-arm flush with back edge -->
    <g transform="translate(93.946492 168.740019) scale(0.09 -0.09)">
     <defs>
      <path id="DejaVuSans-2d" d="M 313 2009 
L 1997 2009 
L 1997 1497 
L 313 1497 
L 313 2009 
z
" transform="scale(0.015625)"/>
      <path id="DejaVuSans-63" d="M 3122 3366 
L 3122 2828 
Q 2878 2963 2633 3030 
Q 2388 3097 2138 3097 
Q 1578 3097 1268 2742 
Q 959 2388 959 1747 
Q 959 1106 1268 751 
Q 1578 397 2138 397 
Q 2388 397 2633 464 
Q 2878 531 3122 666 
L 3122 134 
Q 2881 22 2623 -34 
Q 2366 -91 2075 -91 
Q 1284 -91 818 406 
Q 353 903 353 1747 
Q 353 2603 823 3093 
Q 1294 3584 2113 3584 
Q 2378 3584 2631 3529 
Q 2884 3475 3122 3366 
z
" transform="scale(0.015625)"/>
      <path id="DejaVuSans-6b" d="M 581 4863 
L 1159 4863 
L 1159 1991 
L 2875 3500 
L 3609 3500 
L 1753 1863 
L 3688 0 
L 2938 0 
L 1159 1709 
L 1159 0 
L 581 0 
L 581 4863 
z
" transform="scale(0.015625)"/>
     </defs>
     <use xlink:href="#DejaVuSans-2022"/>
     <use xlink:href="#DejaVuSans-20" x="58.984375"/>
     <use xlink:href="#DejaVuSans-55" x="90.771484"/>
     <use xlink:href="#DejaVuSans-2d" x="163.964844"/>
     <use xlink:href="#DejaVuSans-61" x="200.048828"/>
     <use xlink:href="#DejaVuSans-72" x="261.328125"/>
     <use xlink:href="#DejaVuSans-6d" x="300.691406"/>
     <use xlink:href="#DejaVuSans-20" x="398.103516"/>
     <use xlink:href="#DejaVuSans-66" x="429.890625"/>
     <use xlink:href="#DejaVuSans-6c" x="465.095703"/>
     <use xlink:href="#DejaVuSans-75" x="492.878906"/>
     <use xlink:href="#DejaVuSans-73" x="556.257812"/>
     <use xlink:href="#DejaVuSans-68" x="608.357422"/>
     <use xlink:href="#DejaVuSans-20" x="671.736328"/>
     <use xlink:href="#DejaVuSans-77" x="703.523438"/>
     <use xlink:href="#DejaVuSans-69" x="785.310547"/>
     <use xlink:href="#DejaVuSans-74" x="813.09375"/>
     <use xlink:href="#DejaVuSans-68" x="852.302734"/>
     <use xlink:href="#DejaVuSans-20" x="915.681641"/>
     <use xlink:href="#DejaVuSans-62" x="947.46875"/>
     <use xlink:href="#DejaVuSans-61" x="1010.945312"/>
     <use xlink:href="#DejaVuSans-63" x="1072.224609"/>
     <use xlink:href="#DejaVuSans-6b" x="1127.205078"/>
     <use xlink:href="#DejaVuSans-20" x="1185.115234"/>
     <use xlink:href="#DejaVuSans-65" x="1216.902344"/>
     <use xlink:href="#DejaVuSans-64" x="1278.425781"/>
     <use xlink:href="#DejaVuSans-67" x="1341.902344"/>
     <use xlink:href="#DejaVuSans-65" x="1405.378906"/>
    </g>
    <!-- • Profile view Section A-A -->
    <g transform="translate(93.946492 178.81805) scale(0.09 -0.09)">
     <defs>
      <path id="DejaVuSans-50" d="M 1259 4147 
L 1259 2394 
L 2053 2394 
Q 2494 2394 2734 2622 
Q 2975 2850 2975 3272 
Q 2975 3691 2734 3919 
Q 2494 4147 2053 4147 
L 1259 4147 
z
M 628 4666 
L 2053 4666 
Q 2838 4666 3239 4311 
Q 3641 3956 3641 3272 
Q 3641 2581 3239 2228 
Q 2838 1875 2053 1875 
L 1259 1875 
L 1259 0 
L 628 0 
L 628 4666 
z
" transform="scale(0.015625)"/>
     </defs>
     <use xlink:href="#DejaVuSans-2022"/>
     <use xlink:href="#DejaVuSans-20" x="58.984375"/>
     <use xlink:href="#DejaVuSans-50" x="90.771484"/>
     <use xlink:href="#DejaVuSans-72" x="149.324219"/>
     <use xlink:href="#DejaVuSans-6f" x="188.1875"/>
     <use xlink:href="#DejaVuSans-66" x="249.369141"/>
     <use xlink:href="#DejaVuSans-69" x="284.574219"/>
     <use xlink:href="#DejaVuSans-6c" x="312.357422"/>
     <use xlink:href="#DejaVuSans-65" x="340.140625"/>
     <use xlink:href="#DejaVuSans-20" x="401.664062"/>
     <use xlink:href="#DejaVuSans-76" x="433.451172"/>
     <use xlink:href="#DejaVuSans-69" x="492.630859"/>
     <use xlink:href="#DejaVuSans-65" x="520.414062"/>
     <use xlink:href="#DejaVuSans-77" x="581.9375"/>
     <use xlink:href="#DejaVuSans-20" x="663.724609"/>
     <use xlink:href="#DejaVuSans-53" x="695.511719"/>
     <use xlink:href="#DejaVuSans-65" x="758.988281"/>
     <use xlink:href="#DejaVuSans-63" x="820.511719"/>
     <use xlink:href="#DejaVuSans-74" x="875.492188"/>
     <use xlink:href="#DejaVuSans-69" x="914.701172"/>
     <use xlink:href="#DejaVuSans-6f" x="942.484375"/>
     <use xlink:href="#DejaVuSans-6e" x="1003.666016"/>
     <use xlink:href="#DejaVuSans-20" x="1067.044922"/>
     <use xlink:href="#DejaVuSans-41" x="1098.832031"/>
     <use xlink:href="#DejaVuSans-2d" x="1164.990234"/>
     <use xlink:href="#DejaVuSans-41" x="1198.824219"/>
    </g>
   </g>
   <g id="text_27">
    <!-- MOUNTING BRACKET - FRONT VIEW (L-PROFILE) -->
    <g transform="translate(60.842043 17.837812) scale(0.14 -0.14)">
     <defs>
      <path id="DejaVuSans-Bold-4d" d="M 588 4666 
L 2119 4666 
L 3181 2169 
L 4250 4666 
L 5778 4666 
L 5778 0 
L 4641 0 
L 4641 3413 
L 3566 897 
L 2803 897 
L 1728 3413 
L 1728 0 
L 588 0 
L 588 4666 
z
" transform="scale(0.015625)"/>
      <path id="DejaVuSans-Bold-4f" d="M 2719 3878 
Q 2169 3878 1866 3472 
Q 1563 3066 1563 2328 
Q 1563 1594 1866 1187 
Q 2169 781 2719 781 
Q 3272 781 3575 1187 
Q 3878 1594 3878 2328 
Q 3878 3066 3575 3472 
Q 3272 3878 2719 3878 
z
M 2719 4750 
Q 3844 4750 4481 4106 
Q 5119 3463 5119 2328 
Q 5119 1197 4481 553 
Q 3844 -91 2719 -91 
Q 1597 -91 958 553 
Q 319 1197 319 2328 
Q 319 3463 958 4106 
Q 1597 4750 2719 4750 
z
" transform="scale(0.015625)"/>
      <path id="DejaVuSans-Bold-55" d="M 588 4666 
L 1791 4666 
L 1791 1869 
Q 1791 1291 1980 1042 
Q 2169 794 2597 794 
Q 3028 794 3217 1042 
Q 3406 1291 3406 1869 
L 3406 4666 
L 4609 4666 
L 4609 1869 
Q 4609 878 4112 393 
Q 3616 -91 2597 -91 
Q 1581 -91 1084 393 
Q 588 878 588 1869 
L 588 4666 
z
" transform="scale(0.015625)"/>
      <path id="DejaVuSans-Bold-4e" d="M 588 4666 
L 1931 4666 
L 3628 1466 
L 3628 4666 
L 4769 4666 
L 4769 0 
L 3425 0 
L 1728 3200 
L 1728 0 
L 588 0 
L 588 4666 
z
" transform="scale(0.015625)"/>
      <path id="DejaVuSans-Bold-54" d="M 31 4666 
L 4331 4666 
L 4331 3756 
L 2784 3756 
L 2784 0 
L 1581 0 
L 1581 3756 
L 31 3756 
L 31 4666 
z
" transform="scale(0.015625)"/>
      <path id="DejaVuSans-Bold-49" d="M 588 4666 
L 1791 4666 
L 1791 0 
L 588 0 
L 588 4666 
z
" transform="scale(0.015625)"/>
      <path id="DejaVuSans-Bold-47" d="M 4781 347 
Q 4331 128 3847 18 
Q 3363 -91 2847 -91 
Q 1681 -91 1000 561 
Q 319 1213 319 2328 
Q 319 3456 1012 4103 
Q 1706 4750 2913 4750 
Q 3378 4750 3804 4662 
Q 4231 4575 4609 4403 
L 4609 3438 
Q 4219 3659 3833 3768 
Q 3447 3878 3059 3878 
Q 2341 3878 1952 3476 
Q 1563 3075 1563 2328 
Q 1563 1588 1938 1184 
Q 2313 781 3003 781 
Q 3191 781 3352 804 
Q 3513 828 3641 878 
L 3641 1784 
L 2906 1784 
L 2906 2591 
L 4781 2591 
L 4781 347 
z
" transform="scale(0.015625)"/>
      <path id="DejaVuSans-Bold-20" transform="scale(0.015625)"/>
      <path id="DejaVuSans-Bold-42" d="M 2456 2859 
Q 2741 2859 2887 2984 
Q 3034 3109 3034 3353 
Q 3034 3594 2887 3720 
Q 2741 3847 2456 3847 
L 1791 3847 
L 1791 2859 
L 2456 2859 
z
M 2497 819 
Q 2859 819 3042 972 
Q 3225 1125 3225 1434 
Q 3225 1738 3044 1889 
Q 2863 2041 2497 2041 
L 1791 2041 
L 1791 819 
L 2497 819 
z
M 3616 2497 
Q 4003 2384 4215 2081 
Q 4428 1778 4428 1338 
Q 4428 663 3972 331 
Q 3516 0 2584 0 
L 588 0 
L 588 4666 
L 2394 4666 
Q 3366 4666 3802 4372 
Q 4238 4078 4238 3431 
Q 4238 3091 4078 2852 
Q 3919 2613 3616 2497 
z
" transform="scale(0.015625)"/>
      <path id="DejaVuSans-Bold-52" d="M 2297 2597 
Q 2675 2597 2839 2737 
Q 3003 2878 3003 3200 
Q 3003 3519 2839 3656 
Q 2675 3794 2297 3794 
L 1791 3794 
L 1791 2597 
L 2297 2597 
z
M 1791 1766 
L 1791 0 
L 588 0 
L 588 4666 
L 2425 4666 
Q 3347 4666 3776 4356 
Q 4206 4047 4206 3378 
Q 4206 2916 3982 2619 
Q 3759 2322 3309 2181 
Q 3556 2125 3751 1926 
Q 3947 1728 4147 1325 
L 4800 0 
L 3519 0 
L 2950 1159 
Q 2778 1509 2601 1637 
Q 2425 1766 2131 1766 
L 1791 1766 
z
" transform="scale(0.015625)"/>
      <path id="DejaVuSans-Bold-43" d="M 4288 256 
Q 3956 84 3597 -3 
Q 3238 -91 2847 -91 
Q 1681 -91 1000 561 
Q 319 1213 319 2328 
Q 319 3447 1000 4098 
Q 1681 4750 2847 4750 
Q 3238 4750 3597 4662 
Q 3956 4575 4288 4403 
L 4288 3438 
Q 3953 3666 3628 3772 
Q 3303 3878 2944 3878 
Q 2300 3878 1931 3465 
Q 1563 3053 1563 2328 
Q 1563 1606 1931 1193 
Q 2300 781 2944 781 
Q 3303 781 3628 887 
Q 3953 994 4288 1222 
L 4288 256 
z
" transform="scale(0.015625)"/>
      <path id="DejaVuSans-Bold-4b" d="M 588 4666 
L 1791 4666 
L 1791 2963 
L 3525 4666 
L 4922 4666 
L 2675 2456 
L 5153 0 
L 3647 0 
L 1791 1838 
L 1791 0 
L 588 0 
L 588 4666 
z
" transform="scale(0.015625)"/>
      <path id="DejaVuSans-Bold-45" d="M 588 4666 
L 3834 4666 
L 3834 3756 
L 1791 3756 
L 1791 2888 
L 3713 2888 
L 3713 1978 
L 1791 1978 
L 1791 909 
L 3903 909 
L 3903 0 
L 588 0 
L 588 4666 
z
" transform="scale(0.015625)"/>
      <path id="DejaVuSans-Bold-2d" d="M 347 2297 
L 2309 2297 
L 2309 1388 
L 347 1388 
L 347 2297 
z
" transform="scale(0.015625)"/>
      <path id="DejaVuSans-Bold-46" d="M 588 4666 
L 3834 4666 
L 3834 3756 
L 1791 3756 
L 1791 2888 
L 3713 2888 
L 3713 1978 
L 1791 1978 
L 1791 0 
L 588 0 
L 588 4666 
z
" transform="scale(0.015625)"/>
      <path id="DejaVuSans-Bold-56" d="M 31 4666 
L 1241 4666 
L 2478 1222 
L 3713 4666 
L 4922 4666 
L 3194 0 
L 1759 0 
L 31 4666 
z
" transform="scale(0.015625)"/>
      <path id="DejaVuSans-Bold-57" d="M 191 4666 
L 1344 4666 
L 2150 1275 
L 2950 4666 
L 4109 4666 
L 4909 1275 
L 5716 4666 
L 6859 4666 
L 5759 0 
L 4372 0 
L 3525 3547 
L 2688 0 
L 1300 0 
L 191 4666 
z
" transform="scale(0.015625)"/>
      <path id="DejaVuSans-Bold-28" d="M 2413 -844 
L 1484 -844 
Q 1006 -72 778 623 
Q 550 1319 550 2003 
Q 550 2688 779 3389 
Q 1009 4091 1484 4856 
L 2413 4856 
Q 2013 4116 1813 3408 
Q 1613 2700 1613 2009 
Q 1613 1319 1811 609 
Q 2009 -100 2413 -844 
z
" transform="scale(0.015625)"/>
      <path id="DejaVuSans-Bold-4c" d="M 588 4666 
L 1791 4666 
L 1791 909 
L 3903 909 
L 3903 0 
L 588 0 
L 588 4666 
z
" transform="scale(0.015625)"/>
      <path id="DejaVuSans-Bold-50" d="M 588 4666 
L 2584 4666 
Q 3475 4666 3951 4270 
Q 4428 3875 4428 3144 
Q 4428 2409 3951 2014 
Q 3475 1619 2584 1619 
L 1791 1619 
L 1791 0 
L 588 0 
L 588 4666 
z
M 1791 3794 
L 1791 2491 
L 2456 2491 
Q 2806 2491 2997 2661 
Q 3188 2831 3188 3144 
Q 3188 3456 2997 3625 
Q 2806 3794 2456 3794 
L 1791 3794 
z
" transform="scale(0.015625)"/>
      <path id="DejaVuSans-Bold-29" d="M 513 -844 
Q 913 -100 1113 609 
Q 1313 1319 1313 2009 
Q 1313 2700 1113 3408 
Q 913 4116 513 4856 
L 1441 4856 
Q 1916 4091 2145 3389 
Q 2375 2688 2375 2003 
Q 2375 1319 2147 623 
Q 1919 -72 1441 -844 
L 513 -844 
z
" transform="scale(0.015625)"/>
     </defs>
     <use xlink:href="#DejaVuSans-Bold-4d"/>
     <use xlink:href="#DejaVuSans-Bold-4f" x="99.511719"/>
     <use xlink:href="#DejaVuSans-Bold-55" x="184.521484"/>
     <use xlink:href="#DejaVuSans-Bold-4e" x="265.722656"/>
     <use xlink:href="#DejaVuSans-Bold-54" x="349.414062"/>
     <use xlink:href="#DejaVuSans-Bold-49" x="417.626953"/>
     <use xlink:href="#DejaVuSans-Bold-4e" x="454.833984"/>
     <use xlink:href="#DejaVuSans-Bold-47" x="538.525391"/>
     <use xlink:href="#DejaVuSans-Bold-20" x="620.605469"/>
     <use xlink:href="#DejaVuSans-Bold-42" x="655.419922"/>
     <use xlink:href="#DejaVuSans-Bold-52" x="731.640625"/>
     <use xlink:href="#DejaVuSans-Bold-41" x="808.642578"/>
     <use xlink:href="#DejaVuSans-Bold-43" x="886.035156"/>
     <use xlink:href="#DejaVuSans-Bold-4b" x="959.423828"/>
     <use xlink:href="#DejaVuSans-Bold-45" x="1036.914062"/>
     <use xlink:href="#DejaVuSans-Bold-54" x="1105.224609"/>
     <use xlink:href="#DejaVuSans-Bold-20" x="1173.4375"/>
     <use xlink:href="#DejaVuSans-Bold-2d" x="1208.251953"/>
     <use xlink:href="#DejaVuSans-Bold-20" x="1249.755859"/>
     <use xlink:href="#DejaVuSans-Bold-46" x="1284.570312"/>
     <use xlink:href="#DejaVuSans-Bold-52" x="1352.880859"/>
     <use xlink:href="#DejaVuSans-Bold-4f" x="1429.882812"/>
     <use xlink:href="#DejaVuSans-Bold-4e" x="1514.892578"/>
     <use xlink:href="#DejaVuSans-Bold-54" x="1598.583984"/>
     <use xlink:href="#DejaVuSans-Bold-20" x="1666.796875"/>
     <use xlink:href="#DejaVuSans-Bold-56" x="1701.611328"/>
     <use xlink:href="#DejaVuSans-Bold-49" x="1779.003906"/>
     <use xlink:href="#DejaVuSans-Bold-45" x="1816.210938"/>
     <use xlink:href="#DejaVuSans-Bold-57" x="1884.521484"/>
     <use xlink:href="#DejaVuSans-Bold-20" x="1994.824219"/>
     <use xlink:href="#DejaVuSans-Bold-28" x="2029.638672"/>
     <use xlink:href="#DejaVuSans-Bold-4c" x="2075.341797"/>
     <use xlink:href="#DejaVuSans-Bold-2d" x="2139.0625"/>
     <use xlink:href="#DejaVuSans-Bold-50" x="2180.566406"/>
     <use xlink:href="#DejaVuSans-Bold-52" x="2253.857422"/>
     <use xlink:href="#DejaVuSans-Bold-4f" x="2330.859375"/>
     <use xlink:href="#DejaVuSans-Bold-46" x="2415.869141"/>
     <use xlink:href="#DejaVuSans-Bold-49" x="2484.179688"/>
     <use xlink:href="#DejaVuSans-Bold-4c" x="2521.386719"/>
     <use xlink:href="#DejaVuSans-Bold-45" x="2585.107422"/>
     <use xlink:href="#DejaVuSans-Bold-29" x="2653.417969"/>
    </g>
    <!-- 4mm Stainless Steel | Scale 1:2 -->
    <g transform="translate(125.721106 33.58825) scale(0.14 -0.14)">
     <defs>
      <path id="DejaVuSans-Bold-34" d="M 2356 3675 
L 1038 1722 
L 2356 1722 
L 2356 3675 
z
M 2156 4666 
L 3494 4666 
L 3494 1722 
L 4159 1722 
L 4159 850 
L 3494 850 
L 3494 0 
L 2356 0 
L 2356 850 
L 288 850 
L 288 1881 
L 2156 4666 
z
" transform="scale(0.015625)"/>
      <path id="DejaVuSans-Bold-6d" d="M 3781 2919 
Q 3994 3244 4286 3414 
Q 4578 3584 4928 3584 
Q 5531 3584 5847 3212 
Q 6163 2841 6163 2131 
L 6163 0 
L 5038 0 
L 5038 1825 
Q 5041 1866 5042 1909 
Q 5044 1953 5044 2034 
Q 5044 2406 4934 2573 
Q 4825 2741 4581 2741 
Q 4263 2741 4089 2478 
Q 3916 2216 3909 1719 
L 3909 0 
L 2784 0 
L 2784 1825 
Q 2784 2406 2684 2573 
Q 2584 2741 2328 2741 
Q 2006 2741 1831 2477 
Q 1656 2213 1656 1722 
L 1656 0 
L 531 0 
L 531 3500 
L 1656 3500 
L 1656 2988 
Q 1863 3284 2130 3434 
Q 2397 3584 2719 3584 
Q 3081 3584 3359 3409 
Q 3638 3234 3781 2919 
z
" transform="scale(0.015625)"/>
      <path id="DejaVuSans-Bold-53" d="M 3834 4519 
L 3834 3531 
Q 3450 3703 3084 3790 
Q 2719 3878 2394 3878 
Q 1963 3878 1756 3759 
Q 1550 3641 1550 3391 
Q 1550 3203 1689 3098 
Q 1828 2994 2194 2919 
L 2706 2816 
Q 3484 2659 3812 2340 
Q 4141 2022 4141 1434 
Q 4141 663 3683 286 
Q 3225 -91 2284 -91 
Q 1841 -91 1394 -6 
Q 947 78 500 244 
L 500 1259 
Q 947 1022 1364 901 
Q 1781 781 2169 781 
Q 2563 781 2772 912 
Q 2981 1044 2981 1288 
Q 2981 1506 2839 1625 
Q 2697 1744 2272 1838 
L 1806 1941 
Q 1106 2091 782 2419 
Q 459 2747 459 3303 
Q 459 4000 909 4375 
Q 1359 4750 2203 4750 
Q 2588 4750 2994 4692 
Q 3400 4634 3834 4519 
z
" transform="scale(0.015625)"/>
      <path id="DejaVuSans-Bold-74" d="M 1759 4494 
L 1759 3500 
L 2913 3500 
L 2913 2700 
L 1759 2700 
L 1759 1216 
Q 1759 972 1856 886 
Q 1953 800 2241 800 
L 2816 800 
L 2816 0 
L 1856 0 
Q 1194 0 917 276 
Q 641 553 641 1216 
L 641 2700 
L 84 2700 
L 84 3500 
L 641 3500 
L 641 4494 
L 1759 4494 
z
" transform="scale(0.015625)"/>
      <path id="DejaVuSans-Bold-61" d="M 2106 1575 
Q 1756 1575 1579 1456 
Q 1403 1338 1403 1106 
Q 1403 894 1545 773 
Q 1688 653 1941 653 
Q 2256 653 2472 879 
Q 2688 1106 2688 1447 
L 2688 1575 
L 2106 1575 
z
M 3816 1997 
L 3816 0 
L 2688 0 
L 2688 519 
Q 2463 200 2181 54 
Q 1900 -91 1497 -91 
Q 953 -91 614 226 
Q 275 544 275 1050 
Q 275 1666 698 1953 
Q 1122 2241 2028 2241 
L 2688 2241 
L 2688 2328 
Q 2688 2594 2478 2717 
Q 2269 2841 1825 2841 
Q 1466 2841 1156 2769 
Q 847 2697 581 2553 
L 581 3406 
Q 941 3494 1303 3539 
Q 1666 3584 2028 3584 
Q 2975 3584 3395 3211 
Q 3816 2838 3816 1997 
z
" transform="scale(0.015625)"/>
      <path id="DejaVuSans-Bold-69" d="M 538 3500 
L 1656 3500 
L 1656 0 
L 538 0 
L 538 3500 
z
M 538 4863 
L 1656 4863 
L 1656 3950 
L 538 3950 
L 538 4863 
z
" transform="scale(0.015625)"/>
      <path id="DejaVuSans-Bold-6e" d="M 4056 2131 
L 4056 0 
L 2931 0 
L 2931 347 
L 2931 1631 
Q 2931 2084 2911 2256 
Q 2891 2428 2841 2509 
Q 2775 2619 2662 2680 
Q 2550 2741 2406 2741 
Q 2056 2741 1856 2470 
Q 1656 2200 1656 1722 
L 1656 0 
L 538 0 
L 538 3500 
L 1656 3500 
L 1656 2988 
Q 1909 3294 2193 3439 
Q 2478 3584 2822 3584 
Q 3428 3584 3742 3212 
Q 4056 2841 4056 2131 
z
" transform="scale(0.015625)"/>
      <path id="DejaVuSans-Bold-6c" d="M 538 4863 
L 1656 4863 
L 1656 0 
L 538 0 
L 538 4863 
z
" transform="scale(0.015625)"/>
      <path id="DejaVuSans-Bold-65" d="M 4031 1759 
L 4031 1441 
L 1416 1441 
Q 1456 1047 1700 850 
Q 1944 653 2381 653 
Q 2734 653 3104 758 
Q 3475 863 3866 1075 
L 3866 213 
Q 3469 63 3072 -14 
Q 2675 -91 2278 -91 
Q 1328 -91 801 392 
Q 275 875 275 1747 
Q 275 2603 792 3093 
Q 1309 3584 2216 3584 
Q 3041 3584 3536 3087 
Q 4031 2591 4031 1759 
z
M 2881 2131 
Q 2881 2450 2695 2645 
Q 2509 2841 2209 2841 
Q 1884 2841 1681 2658 
Q 1478 2475 1428 2131 
L 2881 2131 
z
" transform="scale(0.015625)"/>
      <path id="DejaVuSans-Bold-73" d="M 3272 3391 
L 3272 2541 
Q 2913 2691 2578 2766 
Q 2244 2841 1947 2841 
Q 1628 2841 1473 2761 
Q 1319 2681 1319 2516 
Q 1319 2381 1436 2309 
Q 1553 2238 1856 2203 
L 2053 2175 
Q 2913 2066 3209 1816 
Q 3506 1566 3506 1031 
Q 3506 472 3093 190 
Q 2681 -91 1863 -91 
Q 1516 -91 1145 -36 
Q 775 19 384 128 
L 384 978 
Q 719 816 1070 734 
Q 1422 653 1784 653 
Q 2113 653 2278 743 
Q 2444 834 2444 1013 
Q 2444 1163 2330 1236 
Q 2216 1309 1875 1350 
L 1678 1375 
Q 931 1469 631 1722 
Q 331 1975 331 2491 
Q 331 3047 712 3315 
Q 1094 3584 1881 3584 
Q 2191 3584 2531 3537 
Q 2872 3491 3272 3391 
z
" transform="scale(0.015625)"/>
      <path id="DejaVuSans-Bold-7c" d="M 1522 4891 
L 1522 -1509 
L 813 -1509 
L 813 4891 
L 1522 4891 
z
" transform="scale(0.015625)"/>
      <path id="DejaVuSans-Bold-63" d="M 3366 3391 
L 3366 2478 
Q 3138 2634 2908 2709 
Q 2678 2784 2431 2784 
Q 1963 2784 1702 2511 
Q 1441 2238 1441 1747 
Q 1441 1256 1702 982 
Q 1963 709 2431 709 
Q 2694 709 2930 787 
Q 3166 866 3366 1019 
L 3366 103 
Q 3103 6 2833 -42 
Q 2563 -91 2291 -91 
Q 1344 -91 809 395 
Q 275 881 275 1747 
Q 275 2613 809 3098 
Q 1344 3584 2291 3584 
Q 2566 3584 2833 3536 
Q 3100 3488 3366 3391 
z
" transform="scale(0.015625)"/>
      <path id="DejaVuSans-Bold-3a" d="M 716 3500 
L 1844 3500 
L 1844 2291 
L 716 2291 
L 716 3500 
z
M 716 1209 
L 1844 1209 
L 1844 0 
L 716 0 
L 716 1209 
z
" transform="scale(0.015625)"/>
     </defs>
     <use xlink:href="#DejaVuSans-Bold-34"/>
     <use xlink:href="#DejaVuSans-Bold-6d" x="69.580078"/>
     <use xlink:href="#DejaVuSans-Bold-6d" x="173.779297"/>
     <use xlink:href="#DejaVuSans-Bold-20" x="277.978516"/>
     <use xlink:href="#DejaVuSans-Bold-53" x="312.792969"/>
     <use xlink:href="#DejaVuSans-Bold-74" x="384.814453"/>
     <use xlink:href="#DejaVuSans-Bold-61" x="432.617188"/>
     <use xlink:href="#DejaVuSans-Bold-69" x="500.097656"/>
     <use xlink:href="#DejaVuSans-Bold-6e" x="534.375"/>
     <use xlink:href="#DejaVuSans-Bold-6c" x="605.566406"/>
     <use xlink:href="#DejaVuSans-Bold-65" x="639.84375"/>
     <use xlink:href="#DejaVuSans-Bold-73" x="707.666016"/>
     <use xlink:href="#DejaVuSans-Bold-73" x="767.1875"/>
     <use xlink:href="#DejaVuSans-Bold-20" x="826.708984"/>
     <use xlink:href="#DejaVuSans-Bold-53" x="861.523438"/>
     <use xlink:href="#DejaVuSans-Bold-74" x="933.544922"/>
     <use xlink:href="#DejaVuSans-Bold-65" x="981.347656"/>
     <use xlink:href="#DejaVuSans-Bold-65" x="1049.169922"/>
     <use xlink:href="#DejaVuSans-Bold-6c" x="1116.992188"/>
     <use xlink:href="#DejaVuSans-Bold-20" x="1151.269531"/>
     <use xlink:href="#DejaVuSans-Bold-7c" x="1186.083984"/>
     <use xlink:href="#DejaVuSans-Bold-20" x="1222.607422"/>
     <use xlink:href="#DejaVuSans-Bold-53" x="1257.421875"/>
     <use xlink:href="#DejaVuSans-Bold-63" x="1329.443359"/>
     <use xlink:href="#DejaVuSans-Bold-61" x="1388.720703"/>
     <use xlink:href="#DejaVuSans-Bold-6c" x="1456.201172"/>
     <use xlink:href="#DejaVuSans-Bold-65" x="1490.478516"/>
     <use xlink:href="#DejaVuSans-Bold-20" x="1558.300781"/>
     <use xlink:href="#DejaVuSans-Bold-31" x="1593.115234"/>
     <use xlink:href="#DejaVuSans-Bold-3a" x="1662.695312"/>
     <use xlink:href="#DejaVuSans-Bold-32" x="1702.685547"/>
    </g>
   </g>
   <g id="legend_1">
    <g id="patch_22">
     <path d="M 52.997813 106.30075 
L 141.911875 106.30075 
Q 143.911875 106.30075 143.911875 104.30075 
L 143.911875 46.58825 
Q 143.911875 44.58825 141.911875 44.58825 
L 52.997813 44.58825 
Q 50.997813 44.58825 50.997813 46.58825 
L 50.997813 104.30075 
Q 50.997813 106.30075 52.997813 106.30075 
z
" style="fill: #ffffff; opacity: 0.8; stroke: #cccccc; stroke-linejoin: miter"/>
    </g>
    <g id="patch_23">
     <path d="M 54.997813 56.186687 
L 74.997813 56.186687 
L 74.997813 49.186687 
L 54.997813 49.186687 
z
" style="fill: #add8e6; opacity: 0.3; stroke: #000000; stroke-linejoin: miter"/>
    </g>
    <g id="text_28">
     <!-- Base Plate -->
     <g transform="translate(82.997813 56.186687) scale(0.1 -0.1)">
      <use xlink:href="#DejaVuSans-42"/>
      <use xlink:href="#DejaVuSans-61" x="68.603516"/>
      <use xlink:href="#DejaVuSans-73" x="129.882812"/>
      <use xlink:href="#DejaVuSans-65" x="181.982422"/>
      <use xlink:href="#DejaVuSans-20" x="243.505859"/>
      <use xlink:href="#DejaVuSans-50" x="275.292969"/>
      <use xlink:href="#DejaVuSans-6c" x="335.595703"/>
      <use xlink:href="#DejaVuSans-61" x="363.378906"/>
      <use xlink:href="#DejaVuSans-74" x="424.658203"/>
      <use xlink:href="#DejaVuSans-65" x="463.867188"/>
     </g>
    </g>
    <g id="patch_24">
     <path d="M 54.997813 70.864812 
L 74.997813 70.864812 
L 74.997813 63.864812 
L 54.997813 63.864812 
z
" style="fill: #90ee90; opacity: 0.3; stroke: #000000; stroke-linejoin: miter"/>
    </g>
    <g id="text_29">
     <!-- U-Arm -->
     <g transform="translate(82.997813 70.864812) scale(0.1 -0.1)">
      <use xlink:href="#DejaVuSans-55"/>
      <use xlink:href="#DejaVuSans-2d" x="73.193359"/>
      <use xlink:href="#DejaVuSans-41" x="107.027344"/>
      <use xlink:href="#DejaVuSans-72" x="175.435547"/>
      <use xlink:href="#DejaVuSans-6d" x="214.798828"/>
     </g>
    </g>
    <g id="line2d_34">
     <path d="M 54.997813 82.042937 
L 64.997813 82.042937 
L 74.997813 82.042937 
" style="fill: none; stroke: #ff0000; stroke-width: 2; stroke-linecap: square"/>
    </g>
    <g id="text_30">
     <!-- Fillet Weld -->
     <g transform="translate(82.997813 85.542937) scale(0.1 -0.1)">
      <use xlink:href="#DejaVuSans-46"/>
      <use xlink:href="#DejaVuSans-69" x="50.269531"/>
      <use xlink:href="#DejaVuSans-6c" x="78.052734"/>
      <use xlink:href="#DejaVuSans-6c" x="105.835938"/>
      <use xlink:href="#DejaVuSans-65" x="133.619141"/>
      <use xlink:href="#DejaVuSans-74" x="195.142578"/>
      <use xlink:href="#DejaVuSans-20" x="234.351562"/>
      <use xlink:href="#DejaVuSans-57" x="266.138672"/>
      <use xlink:href="#DejaVuSans-65" x="359.140625"/>
      <use xlink:href="#DejaVuSans-6c" x="420.664062"/>
      <use xlink:href="#DejaVuSans-64" x="448.447266"/>
     </g>
    </g>
    <g id="line2d_35">
     <path d="M 54.997813 96.721062 
L 64.997813 96.721062 
L 74.997813 96.721062 
" style="fill: none; stroke-dasharray: 1.85,0.8; stroke-dashoffset: 0; stroke: #808080; stroke-width: 0.5"/>
    </g>
    <g id="text_31">
     <!-- Centerlines -->
     <g transform="translate(82.997813 100.221062) scale(0.1 -0.1)">
      <use xlink:href="#DejaVuSans-43"/>
      <use xlink:href="#DejaVuSans-65" x="69.824219"/>
      <use xlink:href="#DejaVuSans-6e" x="131.347656"/>
      <use xlink:href="#DejaVuSans-74" x="194.726562"/>
      <use xlink:href="#DejaVuSans-65" x="233.935547"/>
      <use xlink:href="#DejaVuSans-72" x="295.458984"/>
      <use xlink:href="#DejaVuSans-6c" x="336.572266"/>
      <use xlink:href="#DejaVuSans-69" x="364.355469"/>
      <use xlink:href="#DejaVuSans-6e" x="392.138672"/>
      <use xlink:href="#DejaVuSans-65" x="455.517578"/>
      <use xlink:href="#DejaVuSans-73" x="517.041016"/>
     </g>
    </g>
   </g>
  </g>
 </g>
 <defs>
  <clipPath id="p4a7501ec32">
   <rect x="45.997813" y="39.58825" width="407.563774" height="635.32"/>
  </clipPath>
 </defs>
</svg>
