<?xml version="1.0" encoding="utf-8" standalone="no"?>
<!DOCTYPE svg PUBLIC "-//W3C//DTD SVG 1.1//EN"
  "http://www.w3.org/Graphics/SVG/1.1/DTD/svg11.dtd">
<svg xmlns:xlink="http://www.w3.org/1999/xlink" width="614.308212pt" height="855.496687pt" viewBox="0 0 614.308212 855.496687" xmlns="http://www.w3.org/2000/svg" version="1.1">
 <metadata>
  <rdf:RDF xmlns:dc="http://purl.org/dc/elements/1.1/" xmlns:cc="http://creativecommons.org/ns#" xmlns:rdf="http://www.w3.org/1999/02/22-rdf-syntax-ns#">
   <cc:Work>
    <dc:type rdf:resource="http://purl.org/dc/dcmitype/StillImage"/>
    <dc:date>2025-08-13T13:03:28.570531</dc:date>
    <dc:format>image/svg+xml</dc:format>
    <dc:creator>
     <cc:Agent>
      <dc:title>Matplotlib v3.6.3, https://matplotlib.org/</dc:title>
     </cc:Agent>
    </dc:creator>
   </cc:Work>
  </rdf:RDF>
 </metadata>
 <defs>
  <style type="text/css">*{stroke-linejoin: round; stroke-linecap: butt}</style>
 </defs>
 <g id="figure_1">
  <g id="patch_1">
   <path d="M 0 855.496687 
L 614.308212 855.496687 
L 614.308212 0 
L 0 0 
z
" style="fill: #ffffff"/>
  </g>
  <g id="axes_1">
   <g id="patch_2">
    <path d="M 45.997813 818.90825 
L 607.108212 818.90825 
L 607.108212 39.58825 
L 45.997813 39.58825 
z
" style="fill: #ffffff"/>
   </g>
   <g id="patch_3">
    <path d="M 201.861812 731.62441 
C 205.168662 731.62441 208.340516 730.310585 210.678812 727.972289 
C 213.017107 725.633994 214.330932 722.462139 214.330932 719.15529 
C 214.330932 715.848441 213.017107 712.676586 210.678812 710.338291 
C 208.340516 707.999995 205.168662 706.68617 201.861812 706.68617 
C 198.554963 706.68617 195.383109 707.999995 193.044813 710.338291 
C 190.706518 712.676586 189.392692 715.848441 189.392692 719.15529 
C 189.392692 722.462139 190.706518 725.633994 193.044813 727.972289 
C 195.383109 730.310585 198.554963 731.62441 201.861812 731.62441 
L 201.861812 731.62441 
z
" clip-path="url(#p31f4fa6fbf)" style="fill: none; stroke: #0000ff; stroke-width: 1.5; stroke-linejoin: miter"/>
   </g>
   <g id="patch_4">
    <path d="M 326.553012 731.62441 
C 329.859862 731.62441 333.031716 730.310585 335.370012 727.972289 
C 337.708307 725.633994 339.022132 722.462139 339.022132 719.15529 
C 339.022132 715.848441 337.708307 712.676586 335.370012 710.338291 
C 333.031716 707.999995 329.859862 706.68617 326.553012 706.68617 
C 323.246163 706.68617 320.074309 707.999995 317.736013 710.338291 
C 315.397718 712.676586 314.083892 715.848441 314.083892 719.15529 
C 314.083892 722.462139 315.397718 725.633994 317.736013 727.972289 
C 320.074309 730.310585 323.246163 731.62441 326.553012 731.62441 
L 326.553012 731.62441 
z
" clip-path="url(#p31f4fa6fbf)" style="fill: none; stroke: #0000ff; stroke-width: 1.5; stroke-linejoin: miter"/>
   </g>
   <g id="patch_5">
    <path d="M 451.244212 731.62441 
C 454.551062 731.62441 457.722916 730.310585 460.061212 727.972289 
C 462.399507 725.633994 463.713332 722.462139 463.713332 719.15529 
C 463.713332 715.848441 462.399507 712.676586 460.061212 710.338291 
C 457.722916 707.999995 454.551062 706.68617 451.244212 706.68617 
C 447.937363 706.68617 444.765509 707.999995 442.427213 710.338291 
C 440.088918 712.676586 438.775092 715.848441 438.775092 719.15529 
C 438.775092 722.462139 440.088918 725.633994 442.427213 727.972289 
C 444.765509 730.310585 447.937363 731.62441 451.244212 731.62441 
L 451.244212 731.62441 
z
" clip-path="url(#p31f4fa6fbf)" style="fill: none; stroke: #0000ff; stroke-width: 1.5; stroke-linejoin: miter"/>
   </g>
   <g id="patch_6">
    <path d="M 201.861812 731.62441 
C 205.168662 731.62441 208.340516 730.310585 210.678812 727.972289 
C 213.017107 725.633994 214.330932 722.462139 214.330932 719.15529 
C 214.330932 715.848441 213.017107 712.676586 210.678812 710.338291 
C 208.340516 707.999995 205.168662 706.68617 201.861812 706.68617 
C 198.554963 706.68617 195.383109 707.999995 193.044813 710.338291 
C 190.706518 712.676586 189.392692 715.848441 189.392692 719.15529 
C 189.392692 722.462139 190.706518 725.633994 193.044813 727.972289 
C 195.383109 730.310585 198.554963 731.62441 201.861812 731.62441 
L 201.861812 731.62441 
z
" clip-path="url(#p31f4fa6fbf)" style="fill: none; stroke: #0000ff; stroke-width: 1.5; stroke-linejoin: miter"/>
   </g>
   <g id="patch_7">
    <path d="M 326.553012 731.62441 
C 329.859862 731.62441 333.031716 730.310585 335.370012 727.972289 
C 337.708307 725.633994 339.022132 722.462139 339.022132 719.15529 
C 339.022132 715.848441 337.708307 712.676586 335.370012 710.338291 
C 333.031716 707.999995 329.859862 706.68617 326.553012 706.68617 
C 323.246163 706.68617 320.074309 707.999995 317.736013 710.338291 
C 315.397718 712.676586 314.083892 715.848441 314.083892 719.15529 
C 314.083892 722.462139 315.397718 725.633994 317.736013 727.972289 
C 320.074309 730.310585 323.246163 731.62441 326.553012 731.62441 
L 326.553012 731.62441 
z
" clip-path="url(#p31f4fa6fbf)" style="fill: none; stroke: #0000ff; stroke-width: 1.5; stroke-linejoin: miter"/>
   </g>
   <g id="patch_8">
    <path d="M 451.244212 731.62441 
C 454.551062 731.62441 457.722916 730.310585 460.061212 727.972289 
C 462.399507 725.633994 463.713332 722.462139 463.713332 719.15529 
C 463.713332 715.848441 462.399507 712.676586 460.061212 710.338291 
C 457.722916 707.999995 454.551062 706.68617 451.244212 706.68617 
C 447.937363 706.68617 444.765509 707.999995 442.427213 710.338291 
C 440.088918 712.676586 438.775092 715.848441 438.775092 719.15529 
C 438.775092 722.462139 440.088918 725.633994 442.427213 727.972289 
C 444.765509 730.310585 447.937363 731.62441 451.244212 731.62441 
L 451.244212 731.62441 
z
" clip-path="url(#p31f4fa6fbf)" style="fill: none; stroke: #0000ff; stroke-width: 1.5; stroke-linejoin: miter"/>
   </g>
   <g id="patch_9">
    <path d="M 466.830612 301.43977 
C 470.137462 301.43977 473.309316 300.125945 475.647612 297.787649 
C 477.985907 295.449354 479.299732 292.277499 479.299732 288.97065 
C 479.299732 285.663801 477.985907 282.491946 475.647612 280.153651 
C 473.309316 277.815355 470.137462 276.50153 466.830612 276.50153 
C 463.523763 276.50153 460.351909 277.815355 458.013613 280.153651 
C 455.675318 282.491946 454.361492 285.663801 454.361492 288.97065 
C 454.361492 292.277499 455.675318 295.449354 458.013613 297.787649 
C 460.351909 300.125945 463.523763 301.43977 466.830612 301.43977 
L 466.830612 301.43977 
z
" clip-path="url(#p31f4fa6fbf)" style="fill: none; stroke: #ff0000; stroke-width: 1.5; stroke-linejoin: miter"/>
   </g>
   <g id="patch_10">
    <path d="M 425.744255 202.248528 
C 429.051104 202.248528 432.222958 200.934703 434.561254 198.596407 
C 436.89955 196.258112 438.213375 193.086257 438.213375 189.779408 
C 438.213375 186.472559 436.89955 183.300704 434.561254 180.962408 
C 432.222958 178.624113 429.051104 177.310288 425.744255 177.310288 
C 422.437405 177.310288 419.265551 178.624113 416.927255 180.962408 
C 414.58896 183.300704 413.275135 186.472559 413.275135 189.779408 
C 413.275135 193.086257 414.58896 196.258112 416.927255 198.596407 
C 419.265551 200.934703 422.437405 202.248528 425.744255 202.248528 
L 425.744255 202.248528 
z
" clip-path="url(#p31f4fa6fbf)" style="fill: none; stroke: #ff0000; stroke-width: 1.5; stroke-linejoin: miter"/>
   </g>
   <g id="patch_11">
    <path d="M 326.553012 161.16217 
C 329.859862 161.16217 333.031716 159.848345 335.370012 157.510049 
C 337.708307 155.171754 339.022132 151.999899 339.022132 148.69305 
C 339.022132 145.386201 337.708307 142.214346 335.370012 139.876051 
C 333.031716 137.537755 329.859862 136.22393 326.553012 136.22393 
C 323.246163 136.22393 320.074309 137.537755 317.736013 139.876051 
C 315.397718 142.214346 314.083892 145.386201 314.083892 148.69305 
C 314.083892 151.999899 315.397718 155.171754 317.736013 157.510049 
C 320.074309 159.848345 323.246163 161.16217 326.553012 161.16217 
L 326.553012 161.16217 
z
" clip-path="url(#p31f4fa6fbf)" style="fill: none; stroke: #ff0000; stroke-width: 1.5; stroke-linejoin: miter"/>
   </g>
   <g id="patch_12">
    <path d="M 227.36177 202.248528 
C 230.66862 202.248528 233.840474 200.934703 236.17877 198.596407 
C 238.517065 196.258112 239.83089 193.086257 239.83089 189.779408 
C 239.83089 186.472559 238.517065 183.300704 236.17877 180.962408 
C 233.840474 178.624113 230.66862 177.310288 227.36177 177.310288 
C 224.054921 177.310288 220.883067 178.624113 218.544771 180.962408 
C 216.206475 183.300704 214.89265 186.472559 214.89265 189.779408 
C 214.89265 193.086257 216.206475 196.258112 218.544771 198.596407 
C 220.883067 200.934703 224.054921 202.248528 227.36177 202.248528 
L 227.36177 202.248528 
z
" clip-path="url(#p31f4fa6fbf)" style="fill: none; stroke: #ff0000; stroke-width: 1.5; stroke-linejoin: miter"/>
   </g>
   <g id="patch_13">
    <path d="M 186.275412 301.43977 
C 189.582262 301.43977 192.754116 300.125945 195.092412 297.787649 
C 197.430707 295.449354 198.744532 292.277499 198.744532 288.97065 
C 198.744532 285.663801 197.430707 282.491946 195.092412 280.153651 
C 192.754116 277.815355 189.582262 276.50153 186.275412 276.50153 
C 182.968563 276.50153 179.796709 277.815355 177.458413 280.153651 
C 175.120118 282.491946 173.806292 285.663801 173.806292 288.97065 
C 173.806292 292.277499 175.120118 295.449354 177.458413 297.787649 
C 179.796709 300.125945 182.968563 301.43977 186.275412 301.43977 
L 186.275412 301.43977 
z
" clip-path="url(#p31f4fa6fbf)" style="fill: none; stroke: #ff0000; stroke-width: 1.5; stroke-linejoin: miter"/>
   </g>
   <g id="patch_14">
    <path d="M 227.36177 400.631012 
C 230.66862 400.631012 233.840474 399.317187 236.17877 396.978892 
C 238.517065 394.640596 239.83089 391.468741 239.83089 388.161892 
C 239.83089 384.855043 238.517065 381.683188 236.17877 379.344893 
C 233.840474 377.006597 230.66862 375.692772 227.36177 375.692772 
C 224.054921 375.692772 220.883067 377.006597 218.544771 379.344893 
C 216.206475 381.683188 214.89265 384.855043 214.89265 388.161892 
C 214.89265 391.468741 216.206475 394.640596 218.544771 396.978892 
C 220.883067 399.317187 224.054921 400.631012 227.36177 400.631012 
L 227.36177 400.631012 
z
" clip-path="url(#p31f4fa6fbf)" style="fill: none; stroke: #ff0000; stroke-width: 1.5; stroke-linejoin: miter"/>
   </g>
   <g id="patch_15">
    <path d="M 326.553012 441.71737 
C 329.859862 441.71737 333.031716 440.403545 335.370012 438.065249 
C 337.708307 435.726954 339.022132 432.555099 339.022132 429.24825 
C 339.022132 425.941401 337.708307 422.769546 335.370012 420.431251 
C 333.031716 418.092955 329.859862 416.77913 326.553012 416.77913 
C 323.246163 416.77913 320.074309 418.092955 317.736013 420.431251 
C 315.397718 422.769546 314.083892 425.941401 314.083892 429.24825 
C 314.083892 432.555099 315.397718 435.726954 317.736013 438.065249 
C 320.074309 440.403545 323.246163 441.71737 326.553012 441.71737 
L 326.553012 441.71737 
z
" clip-path="url(#p31f4fa6fbf)" style="fill: none; stroke: #ff0000; stroke-width: 1.5; stroke-linejoin: miter"/>
   </g>
   <g id="patch_16">
    <path d="M 425.744255 400.631012 
C 429.051104 400.631012 432.222958 399.317187 434.561254 396.978892 
C 436.89955 394.640596 438.213375 391.468741 438.213375 388.161892 
C 438.213375 384.855043 436.89955 381.683188 434.561254 379.344893 
C 432.222958 377.006597 429.051104 375.692772 425.744255 375.692772 
C 422.437405 375.692772 419.265551 377.006597 416.927255 379.344893 
C 414.58896 381.683188 413.275135 384.855043 413.275135 388.161892 
C 413.275135 391.468741 414.58896 394.640596 416.927255 396.978892 
C 419.265551 399.317187 422.437405 400.631012 425.744255 400.631012 
L 425.744255 400.631012 
z
" clip-path="url(#p31f4fa6fbf)" style="fill: none; stroke: #ff0000; stroke-width: 1.5; stroke-linejoin: miter"/>
   </g>
   <g id="patch_17">
    <path d="M 326.553012 429.24825 
C 363.755067 429.24825 399.43843 414.467717 425.744255 388.161892 
C 452.05008 361.856067 466.830612 326.172704 466.830612 288.97065 
C 466.830612 251.768596 452.05008 216.085233 425.744255 189.779408 
C 399.43843 163.473583 363.755067 148.69305 326.553012 148.69305 
C 289.350958 148.69305 253.667595 163.473583 227.36177 189.779408 
C 201.055945 216.085233 186.275412 251.768596 186.275412 288.97065 
C 186.275412 326.172704 201.055945 361.856067 227.36177 388.161892 
C 253.667595 414.467717 289.350958 429.24825 326.553012 429.24825 
L 326.553012 429.24825 
z
" clip-path="url(#p31f4fa6fbf)" style="fill: none; opacity: 0.7; stroke-dasharray: 1.85,0.8; stroke-dashoffset: 0; stroke: #808080; stroke-width: 0.5; stroke-linejoin: miter"/>
   </g>
   <g id="matplotlib.axis_1">
    <g id="xtick_1">
     <g id="line2d_1">
      <path d="M 77.170612 818.90825 
L 77.170612 39.58825 
" clip-path="url(#p31f4fa6fbf)" style="fill: none; stroke: #b0b0b0; stroke-opacity: 0.3; stroke-width: 0.5; stroke-linecap: square"/>
     </g>
     <g id="line2d_2">
      <defs>
       <path id="m23c9108162" d="M 0 0 
L 0 3.5 
" style="stroke: #000000; stroke-width: 0.8"/>
      </defs>
      <g>
       <use xlink:href="#m23c9108162" x="77.170612" y="818.90825" style="stroke: #000000; stroke-width: 0.8"/>
      </g>
     </g>
     <g id="text_1">
      <!-- −80 -->
      <g transform="translate(66.618269 833.506687) scale(0.1 -0.1)">
       <defs>
        <path id="DejaVuSans-2212" d="M 678 2272 
L 4684 2272 
L 4684 1741 
L 678 1741 
L 678 2272 
z
" transform="scale(0.015625)"/>
        <path id="DejaVuSans-38" d="M 2034 2216 
Q 1584 2216 1326 1975 
Q 1069 1734 1069 1313 
Q 1069 891 1326 650 
Q 1584 409 2034 409 
Q 2484 409 2743 651 
Q 3003 894 3003 1313 
Q 3003 1734 2745 1975 
Q 2488 2216 2034 2216 
z
M 1403 2484 
Q 997 2584 770 2862 
Q 544 3141 544 3541 
Q 544 4100 942 4425 
Q 1341 4750 2034 4750 
Q 2731 4750 3128 4425 
Q 3525 4100 3525 3541 
Q 3525 3141 3298 2862 
Q 3072 2584 2669 2484 
Q 3125 2378 3379 2068 
Q 3634 1759 3634 1313 
Q 3634 634 3220 271 
Q 2806 -91 2034 -91 
Q 1263 -91 848 271 
Q 434 634 434 1313 
Q 434 1759 690 2068 
Q 947 2378 1403 2484 
z
M 1172 3481 
Q 1172 3119 1398 2916 
Q 1625 2713 2034 2713 
Q 2441 2713 2670 2916 
Q 2900 3119 2900 3481 
Q 2900 3844 2670 4047 
Q 2441 4250 2034 4250 
Q 1625 4250 1398 4047 
Q 1172 3844 1172 3481 
z
" transform="scale(0.015625)"/>
        <path id="DejaVuSans-30" d="M 2034 4250 
Q 1547 4250 1301 3770 
Q 1056 3291 1056 2328 
Q 1056 1369 1301 889 
Q 1547 409 2034 409 
Q 2525 409 2770 889 
Q 3016 1369 3016 2328 
Q 3016 3291 2770 3770 
Q 2525 4250 2034 4250 
z
M 2034 4750 
Q 2819 4750 3233 4129 
Q 3647 3509 3647 2328 
Q 3647 1150 3233 529 
Q 2819 -91 2034 -91 
Q 1250 -91 836 529 
Q 422 1150 422 2328 
Q 422 3509 836 4129 
Q 1250 4750 2034 4750 
z
" transform="scale(0.015625)"/>
       </defs>
       <use xlink:href="#DejaVuSans-2212"/>
       <use xlink:href="#DejaVuSans-38" x="83.789062"/>
       <use xlink:href="#DejaVuSans-30" x="147.412109"/>
      </g>
     </g>
    </g>
    <g id="xtick_2">
     <g id="line2d_3">
      <path d="M 139.516212 818.90825 
L 139.516212 39.58825 
" clip-path="url(#p31f4fa6fbf)" style="fill: none; stroke: #b0b0b0; stroke-opacity: 0.3; stroke-width: 0.5; stroke-linecap: square"/>
     </g>
     <g id="line2d_4">
      <g>
       <use xlink:href="#m23c9108162" x="139.516212" y="818.90825" style="stroke: #000000; stroke-width: 0.8"/>
      </g>
     </g>
     <g id="text_2">
      <!-- −60 -->
      <g transform="translate(128.963869 833.506687) scale(0.1 -0.1)">
       <defs>
        <path id="DejaVuSans-36" d="M 2113 2584 
Q 1688 2584 1439 2293 
Q 1191 2003 1191 1497 
Q 1191 994 1439 701 
Q 1688 409 2113 409 
Q 2538 409 2786 701 
Q 3034 994 3034 1497 
Q 3034 2003 2786 2293 
Q 2538 2584 2113 2584 
z
M 3366 4563 
L 3366 3988 
Q 3128 4100 2886 4159 
Q 2644 4219 2406 4219 
Q 1781 4219 1451 3797 
Q 1122 3375 1075 2522 
Q 1259 2794 1537 2939 
Q 1816 3084 2150 3084 
Q 2853 3084 3261 2657 
Q 3669 2231 3669 1497 
Q 3669 778 3244 343 
Q 2819 -91 2113 -91 
Q 1303 -91 875 529 
Q 447 1150 447 2328 
Q 447 3434 972 4092 
Q 1497 4750 2381 4750 
Q 2619 4750 2861 4703 
Q 3103 4656 3366 4563 
z
" transform="scale(0.015625)"/>
       </defs>
       <use xlink:href="#DejaVuSans-2212"/>
       <use xlink:href="#DejaVuSans-36" x="83.789062"/>
       <use xlink:href="#DejaVuSans-30" x="147.412109"/>
      </g>
     </g>
    </g>
    <g id="xtick_3">
     <g id="line2d_5">
      <path d="M 201.861812 818.90825 
L 201.861812 39.58825 
" clip-path="url(#p31f4fa6fbf)" style="fill: none; stroke: #b0b0b0; stroke-opacity: 0.3; stroke-width: 0.5; stroke-linecap: square"/>
     </g>
     <g id="line2d_6">
      <g>
       <use xlink:href="#m23c9108162" x="201.861812" y="818.90825" style="stroke: #000000; stroke-width: 0.8"/>
      </g>
     </g>
     <g id="text_3">
      <!-- −40 -->
      <g transform="translate(191.309469 833.506687) scale(0.1 -0.1)">
       <defs>
        <path id="DejaVuSans-34" d="M 2419 4116 
L 825 1625 
L 2419 1625 
L 2419 4116 
z
M 2253 4666 
L 3047 4666 
L 3047 1625 
L 3713 1625 
L 3713 1100 
L 3047 1100 
L 3047 0 
L 2419 0 
L 2419 1100 
L 313 1100 
L 313 1709 
L 2253 4666 
z
" transform="scale(0.015625)"/>
       </defs>
       <use xlink:href="#DejaVuSans-2212"/>
       <use xlink:href="#DejaVuSans-34" x="83.789062"/>
       <use xlink:href="#DejaVuSans-30" x="147.412109"/>
      </g>
     </g>
    </g>
    <g id="xtick_4">
     <g id="line2d_7">
      <path d="M 264.207412 818.90825 
L 264.207412 39.58825 
" clip-path="url(#p31f4fa6fbf)" style="fill: none; stroke: #b0b0b0; stroke-opacity: 0.3; stroke-width: 0.5; stroke-linecap: square"/>
     </g>
     <g id="line2d_8">
      <g>
       <use xlink:href="#m23c9108162" x="264.207412" y="818.90825" style="stroke: #000000; stroke-width: 0.8"/>
      </g>
     </g>
     <g id="text_4">
      <!-- −20 -->
      <g transform="translate(253.655069 833.506687) scale(0.1 -0.1)">
       <defs>
        <path id="DejaVuSans-32" d="M 1228 531 
L 3431 531 
L 3431 0 
L 469 0 
L 469 531 
Q 828 903 1448 1529 
Q 2069 2156 2228 2338 
Q 2531 2678 2651 2914 
Q 2772 3150 2772 3378 
Q 2772 3750 2511 3984 
Q 2250 4219 1831 4219 
Q 1534 4219 1204 4116 
Q 875 4013 500 3803 
L 500 4441 
Q 881 4594 1212 4672 
Q 1544 4750 1819 4750 
Q 2544 4750 2975 4387 
Q 3406 4025 3406 3419 
Q 3406 3131 3298 2873 
Q 3191 2616 2906 2266 
Q 2828 2175 2409 1742 
Q 1991 1309 1228 531 
z
" transform="scale(0.015625)"/>
       </defs>
       <use xlink:href="#DejaVuSans-2212"/>
       <use xlink:href="#DejaVuSans-32" x="83.789062"/>
       <use xlink:href="#DejaVuSans-30" x="147.412109"/>
      </g>
     </g>
    </g>
    <g id="xtick_5">
     <g id="line2d_9">
      <path d="M 326.553012 818.90825 
L 326.553012 39.58825 
" clip-path="url(#p31f4fa6fbf)" style="fill: none; stroke: #b0b0b0; stroke-opacity: 0.3; stroke-width: 0.5; stroke-linecap: square"/>
     </g>
     <g id="line2d_10">
      <g>
       <use xlink:href="#m23c9108162" x="326.553012" y="818.90825" style="stroke: #000000; stroke-width: 0.8"/>
      </g>
     </g>
     <g id="text_5">
      <!-- 0 -->
      <g transform="translate(323.371762 833.506687) scale(0.1 -0.1)">
       <use xlink:href="#DejaVuSans-30"/>
      </g>
     </g>
    </g>
    <g id="xtick_6">
     <g id="line2d_11">
      <path d="M 388.898612 818.90825 
L 388.898612 39.58825 
" clip-path="url(#p31f4fa6fbf)" style="fill: none; stroke: #b0b0b0; stroke-opacity: 0.3; stroke-width: 0.5; stroke-linecap: square"/>
     </g>
     <g id="line2d_12">
      <g>
       <use xlink:href="#m23c9108162" x="388.898612" y="818.90825" style="stroke: #000000; stroke-width: 0.8"/>
      </g>
     </g>
     <g id="text_6">
      <!-- 20 -->
      <g transform="translate(382.536112 833.506687) scale(0.1 -0.1)">
       <use xlink:href="#DejaVuSans-32"/>
       <use xlink:href="#DejaVuSans-30" x="63.623047"/>
      </g>
     </g>
    </g>
    <g id="xtick_7">
     <g id="line2d_13">
      <path d="M 451.244212 818.90825 
L 451.244212 39.58825 
" clip-path="url(#p31f4fa6fbf)" style="fill: none; stroke: #b0b0b0; stroke-opacity: 0.3; stroke-width: 0.5; stroke-linecap: square"/>
     </g>
     <g id="line2d_14">
      <g>
       <use xlink:href="#m23c9108162" x="451.244212" y="818.90825" style="stroke: #000000; stroke-width: 0.8"/>
      </g>
     </g>
     <g id="text_7">
      <!-- 40 -->
      <g transform="translate(444.881712 833.506687) scale(0.1 -0.1)">
       <use xlink:href="#DejaVuSans-34"/>
       <use xlink:href="#DejaVuSans-30" x="63.623047"/>
      </g>
     </g>
    </g>
    <g id="xtick_8">
     <g id="line2d_15">
      <path d="M 513.589812 818.90825 
L 513.589812 39.58825 
" clip-path="url(#p31f4fa6fbf)" style="fill: none; stroke: #b0b0b0; stroke-opacity: 0.3; stroke-width: 0.5; stroke-linecap: square"/>
     </g>
     <g id="line2d_16">
      <g>
       <use xlink:href="#m23c9108162" x="513.589812" y="818.90825" style="stroke: #000000; stroke-width: 0.8"/>
      </g>
     </g>
     <g id="text_8">
      <!-- 60 -->
      <g transform="translate(507.227312 833.506687) scale(0.1 -0.1)">
       <use xlink:href="#DejaVuSans-36"/>
       <use xlink:href="#DejaVuSans-30" x="63.623047"/>
      </g>
     </g>
    </g>
    <g id="xtick_9">
     <g id="line2d_17">
      <path d="M 575.935412 818.90825 
L 575.935412 39.58825 
" clip-path="url(#p31f4fa6fbf)" style="fill: none; stroke: #b0b0b0; stroke-opacity: 0.3; stroke-width: 0.5; stroke-linecap: square"/>
     </g>
     <g id="line2d_18">
      <g>
       <use xlink:href="#m23c9108162" x="575.935412" y="818.90825" style="stroke: #000000; stroke-width: 0.8"/>
      </g>
     </g>
     <g id="text_9">
      <!-- 80 -->
      <g transform="translate(569.572912 833.506687) scale(0.1 -0.1)">
       <use xlink:href="#DejaVuSans-38"/>
       <use xlink:href="#DejaVuSans-30" x="63.623047"/>
      </g>
     </g>
    </g>
    <g id="text_10">
     <!-- X (mm) -->
     <g transform="translate(309.762387 846.424969) scale(0.09 -0.09)">
      <defs>
       <path id="DejaVuSans-58" d="M 403 4666 
L 1081 4666 
L 2241 2931 
L 3406 4666 
L 4084 4666 
L 2584 2425 
L 4184 0 
L 3506 0 
L 2194 1984 
L 872 0 
L 191 0 
L 1856 2491 
L 403 4666 
z
" transform="scale(0.015625)"/>
       <path id="DejaVuSans-20" transform="scale(0.015625)"/>
       <path id="DejaVuSans-28" d="M 1984 4856 
Q 1566 4138 1362 3434 
Q 1159 2731 1159 2009 
Q 1159 1288 1364 580 
Q 1569 -128 1984 -844 
L 1484 -844 
Q 1016 -109 783 600 
Q 550 1309 550 2009 
Q 550 2706 781 3412 
Q 1013 4119 1484 4856 
L 1984 4856 
z
" transform="scale(0.015625)"/>
       <path id="DejaVuSans-6d" d="M 3328 2828 
Q 3544 3216 3844 3400 
Q 4144 3584 4550 3584 
Q 5097 3584 5394 3201 
Q 5691 2819 5691 2113 
L 5691 0 
L 5113 0 
L 5113 2094 
Q 5113 2597 4934 2840 
Q 4756 3084 4391 3084 
Q 3944 3084 3684 2787 
Q 3425 2491 3425 1978 
L 3425 0 
L 2847 0 
L 2847 2094 
Q 2847 2600 2669 2842 
Q 2491 3084 2119 3084 
Q 1678 3084 1418 2786 
Q 1159 2488 1159 1978 
L 1159 0 
L 581 0 
L 581 3500 
L 1159 3500 
L 1159 2956 
Q 1356 3278 1631 3431 
Q 1906 3584 2284 3584 
Q 2666 3584 2933 3390 
Q 3200 3197 3328 2828 
z
" transform="scale(0.015625)"/>
       <path id="DejaVuSans-29" d="M 513 4856 
L 1013 4856 
Q 1481 4119 1714 3412 
Q 1947 2706 1947 2009 
Q 1947 1309 1714 600 
Q 1481 -109 1013 -844 
L 513 -844 
Q 928 -128 1133 580 
Q 1338 1288 1338 2009 
Q 1338 2731 1133 3434 
Q 928 4138 513 4856 
z
" transform="scale(0.015625)"/>
      </defs>
      <use xlink:href="#DejaVuSans-58"/>
      <use xlink:href="#DejaVuSans-20" x="68.505859"/>
      <use xlink:href="#DejaVuSans-28" x="100.292969"/>
      <use xlink:href="#DejaVuSans-6d" x="139.306641"/>
      <use xlink:href="#DejaVuSans-6d" x="236.71875"/>
      <use xlink:href="#DejaVuSans-29" x="334.130859"/>
     </g>
    </g>
   </g>
   <g id="matplotlib.axis_2">
    <g id="ytick_1">
     <g id="line2d_19">
      <path d="M 45.997813 725.38985 
L 607.108212 725.38985 
" clip-path="url(#p31f4fa6fbf)" style="fill: none; stroke: #b0b0b0; stroke-opacity: 0.3; stroke-width: 0.5; stroke-linecap: square"/>
     </g>
     <g id="line2d_20">
      <defs>
       <path id="m9ea1b10cb4" d="M 0 0 
L -3.5 0 
" style="stroke: #000000; stroke-width: 0.8"/>
      </defs>
      <g>
       <use xlink:href="#m9ea1b10cb4" x="45.997813" y="725.38985" style="stroke: #000000; stroke-width: 0.8"/>
      </g>
     </g>
     <g id="text_11">
      <!-- 0 -->
      <g transform="translate(32.635313 729.189069) scale(0.1 -0.1)">
       <use xlink:href="#DejaVuSans-30"/>
      </g>
     </g>
    </g>
    <g id="ytick_2">
     <g id="line2d_21">
      <path d="M 45.997813 569.52585 
L 607.108212 569.52585 
" clip-path="url(#p31f4fa6fbf)" style="fill: none; stroke: #b0b0b0; stroke-opacity: 0.3; stroke-width: 0.5; stroke-linecap: square"/>
     </g>
     <g id="line2d_22">
      <g>
       <use xlink:href="#m9ea1b10cb4" x="45.997813" y="569.52585" style="stroke: #000000; stroke-width: 0.8"/>
      </g>
     </g>
     <g id="text_12">
      <!-- 50 -->
      <g transform="translate(26.272813 573.325069) scale(0.1 -0.1)">
       <defs>
        <path id="DejaVuSans-35" d="M 691 4666 
L 3169 4666 
L 3169 4134 
L 1269 4134 
L 1269 2991 
Q 1406 3038 1543 3061 
Q 1681 3084 1819 3084 
Q 2600 3084 3056 2656 
Q 3513 2228 3513 1497 
Q 3513 744 3044 326 
Q 2575 -91 1722 -91 
Q 1428 -91 1123 -41 
Q 819 9 494 109 
L 494 744 
Q 775 591 1075 516 
Q 1375 441 1709 441 
Q 2250 441 2565 725 
Q 2881 1009 2881 1497 
Q 2881 1984 2565 2268 
Q 2250 2553 1709 2553 
Q 1456 2553 1204 2497 
Q 953 2441 691 2322 
L 691 4666 
z
" transform="scale(0.015625)"/>
       </defs>
       <use xlink:href="#DejaVuSans-35"/>
       <use xlink:href="#DejaVuSans-30" x="63.623047"/>
      </g>
     </g>
    </g>
    <g id="ytick_3">
     <g id="line2d_23">
      <path d="M 45.997813 413.66185 
L 607.108212 413.66185 
" clip-path="url(#p31f4fa6fbf)" style="fill: none; stroke: #b0b0b0; stroke-opacity: 0.3; stroke-width: 0.5; stroke-linecap: square"/>
     </g>
     <g id="line2d_24">
      <g>
       <use xlink:href="#m9ea1b10cb4" x="45.997813" y="413.66185" style="stroke: #000000; stroke-width: 0.8"/>
      </g>
     </g>
     <g id="text_13">
      <!-- 100 -->
      <g transform="translate(19.910313 417.461069) scale(0.1 -0.1)">
       <defs>
        <path id="DejaVuSans-31" d="M 794 531 
L 1825 531 
L 1825 4091 
L 703 3866 
L 703 4441 
L 1819 4666 
L 2450 4666 
L 2450 531 
L 3481 531 
L 3481 0 
L 794 0 
L 794 531 
z
" transform="scale(0.015625)"/>
       </defs>
       <use xlink:href="#DejaVuSans-31"/>
       <use xlink:href="#DejaVuSans-30" x="63.623047"/>
       <use xlink:href="#DejaVuSans-30" x="127.246094"/>
      </g>
     </g>
    </g>
    <g id="ytick_4">
     <g id="line2d_25">
      <path d="M 45.997813 257.79785 
L 607.108212 257.79785 
" clip-path="url(#p31f4fa6fbf)" style="fill: none; stroke: #b0b0b0; stroke-opacity: 0.3; stroke-width: 0.5; stroke-linecap: square"/>
     </g>
     <g id="line2d_26">
      <g>
       <use xlink:href="#m9ea1b10cb4" x="45.997813" y="257.79785" style="stroke: #000000; stroke-width: 0.8"/>
      </g>
     </g>
     <g id="text_14">
      <!-- 150 -->
      <g transform="translate(19.910313 261.597069) scale(0.1 -0.1)">
       <use xlink:href="#DejaVuSans-31"/>
       <use xlink:href="#DejaVuSans-35" x="63.623047"/>
       <use xlink:href="#DejaVuSans-30" x="127.246094"/>
      </g>
     </g>
    </g>
    <g id="ytick_5">
     <g id="line2d_27">
      <path d="M 45.997813 101.93385 
L 607.108212 101.93385 
" clip-path="url(#p31f4fa6fbf)" style="fill: none; stroke: #b0b0b0; stroke-opacity: 0.3; stroke-width: 0.5; stroke-linecap: square"/>
     </g>
     <g id="line2d_28">
      <g>
       <use xlink:href="#m9ea1b10cb4" x="45.997813" y="101.93385" style="stroke: #000000; stroke-width: 0.8"/>
      </g>
     </g>
     <g id="text_15">
      <!-- 200 -->
      <g transform="translate(19.910313 105.733069) scale(0.1 -0.1)">
       <use xlink:href="#DejaVuSans-32"/>
       <use xlink:href="#DejaVuSans-30" x="63.623047"/>
       <use xlink:href="#DejaVuSans-30" x="127.246094"/>
      </g>
     </g>
    </g>
    <g id="text_16">
     <!-- Z (mm) -->
     <g transform="translate(14.038594 446.038875) rotate(-90) scale(0.09 -0.09)">
      <defs>
       <path id="DejaVuSans-5a" d="M 359 4666 
L 4025 4666 
L 4025 4184 
L 1075 531 
L 4097 531 
L 4097 0 
L 288 0 
L 288 481 
L 3238 4134 
L 359 4134 
L 359 4666 
z
" transform="scale(0.015625)"/>
      </defs>
      <use xlink:href="#DejaVuSans-5a"/>
      <use xlink:href="#DejaVuSans-20" x="68.505859"/>
      <use xlink:href="#DejaVuSans-28" x="100.292969"/>
      <use xlink:href="#DejaVuSans-6d" x="139.306641"/>
      <use xlink:href="#DejaVuSans-6d" x="236.71875"/>
      <use xlink:href="#DejaVuSans-29" x="334.130859"/>
     </g>
    </g>
   </g>
   <g id="line2d_29">
    <path d="M 139.516212 725.38985 
L 513.589812 725.38985 
" clip-path="url(#p31f4fa6fbf)" style="fill: none; stroke: #000000; stroke-width: 3; stroke-linecap: square"/>
   </g>
   <g id="line2d_30">
    <path d="M 139.516212 725.38985 
L 139.516212 288.97065 
" clip-path="url(#p31f4fa6fbf)" style="fill: none; stroke: #000000; stroke-width: 2; stroke-linecap: square"/>
   </g>
   <g id="line2d_31">
    <path d="M 513.589812 725.38985 
L 513.589812 288.97065 
" clip-path="url(#p31f4fa6fbf)" style="fill: none; stroke: #000000; stroke-width: 2; stroke-linecap: square"/>
   </g>
   <g id="line2d_32">
    <path d="M 151.985332 725.38985 
L 151.985332 288.97065 
" clip-path="url(#p31f4fa6fbf)" style="fill: none; stroke: #000000; stroke-width: 2; stroke-linecap: square"/>
   </g>
   <g id="line2d_33">
    <path d="M 501.120692 725.38985 
L 501.120692 288.97065 
" clip-path="url(#p31f4fa6fbf)" style="fill: none; stroke: #000000; stroke-width: 2; stroke-linecap: square"/>
   </g>
   <g id="line2d_34">
    <path d="M 139.516212 725.38985 
L 151.985332 725.38985 
" clip-path="url(#p31f4fa6fbf)" style="fill: none; stroke: #000000; stroke-width: 2; stroke-linecap: square"/>
   </g>
   <g id="line2d_35">
    <path d="M 501.120692 725.38985 
L 513.589812 725.38985 
" clip-path="url(#p31f4fa6fbf)" style="fill: none; stroke: #000000; stroke-width: 2; stroke-linecap: square"/>
   </g>
   <g id="line2d_36">
    <path d="M 513.589812 288.97065 
L 513.495647 283.036359 
L 513.213247 277.108043 
L 512.742895 271.191672 
L 512.085066 265.293203 
L 511.240422 259.418575 
L 510.209814 253.573703 
L 508.994278 247.764473 
L 507.59504 241.996734 
L 506.013508 236.276294 
L 504.251274 230.608913 
L 502.310113 225.000297 
L 500.19198 219.456094 
L 497.899007 213.981886 
L 495.433503 208.583185 
L 492.797951 203.265428 
L 489.995004 198.033968 
L 487.027485 192.894074 
L 483.898381 187.850922 
L 480.610845 182.909588 
L 477.168185 178.075048 
L 473.573868 173.352171 
L 469.831514 168.745712 
L 465.94489 164.26031 
L 461.917911 159.90048 
L 457.754631 155.670613 
L 453.459242 151.574968 
L 449.036069 147.617668 
L 444.489566 143.802699 
L 439.82431 140.133902 
L 435.045001 136.614971 
L 430.156449 133.249449 
L 425.163577 130.040725 
L 420.071412 126.99203 
L 414.885083 124.106434 
L 409.609811 121.386842 
L 404.250907 118.835992 
L 398.813769 116.456454 
L 393.303869 114.250623 
L 387.726758 112.220721 
L 382.088049 110.36879 
L 376.393422 108.696697 
L 370.648609 107.206124 
L 364.859396 105.898573 
L 359.031612 104.775359 
L 353.171124 103.837615 
L 347.283835 103.086284 
L 341.375671 102.522123 
L 335.452582 102.145699 
L 329.520532 101.957393 
L 323.585493 101.957393 
L 317.653443 102.145699 
L 311.730354 102.522123 
L 305.82219 103.086284 
L 299.934901 103.837615 
L 294.074413 104.775359 
L 288.246629 105.898573 
L 282.457416 107.206124 
L 276.712603 108.696697 
L 271.017976 110.36879 
L 265.379267 112.220721 
L 259.802156 114.250623 
L 254.292256 116.456454 
L 248.855118 118.835992 
L 243.496214 121.386842 
L 238.220942 124.106434 
L 233.034612 126.99203 
L 227.942448 130.040725 
L 222.949576 133.249449 
L 218.061024 136.614971 
L 213.281715 140.133902 
L 208.616459 143.802699 
L 204.069956 147.617668 
L 199.646783 151.574968 
L 195.351394 155.670613 
L 191.188114 159.90048 
L 187.161135 164.26031 
L 183.274511 168.745712 
L 179.532157 173.352171 
L 175.93784 178.075048 
L 172.49518 182.909588 
L 169.207644 187.850922 
L 166.07854 192.894074 
L 163.111021 198.033968 
L 160.308074 203.265428 
L 157.672522 208.583185 
L 155.207018 213.981886 
L 152.914045 219.456094 
L 150.795912 225.000297 
L 148.854751 230.608913 
L 147.092517 236.276294 
L 145.510985 241.996734 
L 144.111747 247.764473 
L 142.896211 253.573703 
L 141.865603 259.418575 
L 141.020959 265.293203 
L 140.36313 271.191672 
L 139.892778 277.108043 
L 139.610378 283.036359 
L 139.516212 288.97065 
" clip-path="url(#p31f4fa6fbf)" style="fill: none; stroke: #000000; stroke-width: 2; stroke-linecap: square"/>
   </g>
   <g id="line2d_37">
    <path d="M 501.120692 288.97065 
L 501.032805 283.431978 
L 500.769231 277.898883 
L 500.330237 272.376937 
L 499.716263 266.871699 
L 498.927928 261.388713 
L 497.966027 255.933499 
L 496.831527 250.511551 
L 495.525572 245.128329 
L 494.049475 239.789251 
L 492.404723 234.499695 
L 490.592973 229.264987 
L 488.616049 224.090397 
L 486.475941 218.981137 
L 484.174803 213.942349 
L 481.714955 208.979109 
L 479.098871 204.096414 
L 476.329186 199.299179 
L 473.40869 194.592237 
L 470.340322 189.980325 
L 467.127173 185.468088 
L 463.772478 181.06007 
L 460.279614 176.760708 
L 456.652098 172.574332 
L 452.893584 168.505158 
L 449.007856 164.557282 
L 444.998826 160.73468 
L 440.870532 157.0412 
L 436.627129 153.480562 
L 432.272891 150.056352 
L 427.812201 146.772016 
L 423.249553 143.630862 
L 418.589539 140.636053 
L 413.836852 137.790604 
L 408.996278 135.097381 
L 404.072691 132.559096 
L 399.071048 130.178303 
L 393.996385 127.957401 
L 388.853812 125.898625 
L 383.648508 124.004049 
L 378.385714 122.275581 
L 373.070728 120.71496 
L 367.708903 119.323759 
L 362.305637 118.103378 
L 356.866372 117.055045 
L 351.396584 116.179817 
L 345.90178 115.478575 
L 340.387494 114.952024 
L 334.859277 114.600696 
L 329.322697 114.424943 
L 323.783328 114.424943 
L 318.246748 114.600696 
L 312.718531 114.952024 
L 307.204245 115.478575 
L 301.709441 116.179817 
L 296.239653 117.055045 
L 290.800388 118.103378 
L 285.397122 119.323759 
L 280.035297 120.71496 
L 274.720311 122.275581 
L 269.457517 124.004049 
L 264.252213 125.898625 
L 259.10964 127.957401 
L 254.034977 130.178303 
L 249.033334 132.559096 
L 244.109747 135.097381 
L 239.269172 137.790604 
L 234.516486 140.636053 
L 229.856472 143.630862 
L 225.293824 146.772016 
L 220.833134 150.056352 
L 216.478896 153.480562 
L 212.235493 157.0412 
L 208.107199 160.73468 
L 204.098169 164.557282 
L 200.212441 168.505158 
L 196.453927 172.574332 
L 192.826411 176.760708 
L 189.333547 181.06007 
L 185.978852 185.468088 
L 182.765703 189.980325 
L 179.697335 194.592237 
L 176.776839 199.299179 
L 174.007154 204.096414 
L 171.39107 208.979109 
L 168.931222 213.942349 
L 166.630084 218.981137 
L 164.489976 224.090397 
L 162.513052 229.264987 
L 160.701302 234.499695 
L 159.05655 239.789251 
L 157.580453 245.128329 
L 156.274498 250.511551 
L 155.139998 255.933499 
L 154.178097 261.388713 
L 153.389762 266.871699 
L 152.775788 272.376937 
L 152.336794 277.898883 
L 152.07322 283.431978 
L 151.985332 288.97065 
" clip-path="url(#p31f4fa6fbf)" style="fill: none; stroke: #000000; stroke-width: 2; stroke-linecap: square"/>
   </g>
   <g id="line2d_38">
    <path d="M 295.380212 296.76385 
L 295.380212 281.17745 
" clip-path="url(#p31f4fa6fbf)" style="fill: none; stroke: #008000; stroke-width: 2; stroke-linecap: square"/>
   </g>
   <g id="line2d_39">
    <path d="M 357.725812 296.76385 
L 357.725812 281.17745 
" clip-path="url(#p31f4fa6fbf)" style="fill: none; stroke: #008000; stroke-width: 2; stroke-linecap: square"/>
   </g>
   <g id="line2d_40">
    <path d="M 357.725812 281.17745 
L 357.661765 279.180202 
L 357.469884 277.191161 
L 357.15096 275.2185 
L 356.706302 273.270326 
L 356.137737 271.354645 
L 355.447603 269.479327 
L 354.638735 267.652079 
L 353.714456 265.88041 
L 352.678565 264.1716 
L 351.535319 262.53267 
L 350.289415 260.970356 
L 348.945973 259.491077 
L 347.510514 258.100912 
L 345.988935 256.805574 
L 344.387491 255.610384 
L 342.71276 254.520256 
L 340.971626 253.539667 
L 339.171243 252.672648 
L 337.319008 251.922762 
L 335.422534 251.293089 
L 333.489613 250.786217 
L 331.528188 250.40423 
L 329.546319 250.148696 
L 327.55215 250.020666 
L 325.553875 250.020666 
L 323.559706 250.148696 
L 321.577837 250.40423 
L 319.616412 250.786217 
L 317.683491 251.293089 
L 315.787017 251.922762 
L 313.934782 252.672648 
L 312.134399 253.539667 
L 310.393265 254.520256 
L 308.718534 255.610384 
L 307.11709 256.805574 
L 305.595511 258.100912 
L 304.160052 259.491077 
L 302.81661 260.970356 
L 301.570706 262.53267 
L 300.42746 264.1716 
L 299.391569 265.88041 
L 298.46729 267.652079 
L 297.658422 269.479327 
L 296.968288 271.354645 
L 296.399723 273.270326 
L 295.955065 275.2185 
L 295.636141 277.191161 
L 295.44426 279.180202 
L 295.380212 281.17745 
" clip-path="url(#p31f4fa6fbf)" style="fill: none; stroke: #008000; stroke-width: 2; stroke-linecap: square"/>
   </g>
   <g id="line2d_41">
    <path d="M 295.380212 296.76385 
L 295.44426 298.761098 
L 295.636141 300.750139 
L 295.955065 302.7228 
L 296.399723 304.670974 
L 296.968288 306.586655 
L 297.658422 308.461973 
L 298.46729 310.289221 
L 299.391569 312.06089 
L 300.42746 313.7697 
L 301.570706 315.40863 
L 302.81661 316.970944 
L 304.160052 318.450223 
L 305.595511 319.840388 
L 307.11709 321.135726 
L 308.718534 322.330916 
L 310.393265 323.421044 
L 312.134399 324.401633 
L 313.934782 325.268652 
L 315.787017 326.018538 
L 317.683491 326.648211 
L 319.616412 327.155083 
L 321.577837 327.53707 
L 323.559706 327.792604 
L 325.553875 327.920634 
L 327.55215 327.920634 
L 329.546319 327.792604 
L 331.528188 327.53707 
L 333.489613 327.155083 
L 335.422534 326.648211 
L 337.319008 326.018538 
L 339.171243 325.268652 
L 340.971626 324.401633 
L 342.71276 323.421044 
L 344.387491 322.330916 
L 345.988935 321.135726 
L 347.510514 319.840388 
L 348.945973 318.450223 
L 350.289415 316.970944 
L 351.535319 315.40863 
L 352.678565 313.7697 
L 353.714456 312.06089 
L 354.638735 310.289221 
L 355.447603 308.461973 
L 356.137737 306.586655 
L 356.706302 304.670974 
L 357.15096 302.7228 
L 357.469884 300.750139 
L 357.661765 298.761098 
L 357.725812 296.76385 
" clip-path="url(#p31f4fa6fbf)" style="fill: none; stroke: #008000; stroke-width: 2; stroke-linecap: square"/>
   </g>
   <g id="patch_18">
    <path d="M 45.997813 818.90825 
L 45.997813 39.58825 
" style="fill: none; stroke: #000000; stroke-width: 0.8; stroke-linejoin: miter; stroke-linecap: square"/>
   </g>
   <g id="patch_19">
    <path d="M 607.108212 818.90825 
L 607.108212 39.58825 
" style="fill: none; stroke: #000000; stroke-width: 0.8; stroke-linejoin: miter; stroke-linecap: square"/>
   </g>
   <g id="patch_20">
    <path d="M 45.997813 818.90825 
L 607.108212 818.90825 
" style="fill: none; stroke: #000000; stroke-width: 0.8; stroke-linejoin: miter; stroke-linecap: square"/>
   </g>
   <g id="patch_21">
    <path d="M 45.997813 39.58825 
L 607.108212 39.58825 
" style="fill: none; stroke: #000000; stroke-width: 0.8; stroke-linejoin: miter; stroke-linecap: square"/>
   </g>
   <g id="text_17">
    <!-- PCD 90 -->
    <g style="fill: #808080" transform="translate(482.417012 291.454088) scale(0.09 -0.09)">
     <defs>
      <path id="DejaVuSans-50" d="M 1259 4147 
L 1259 2394 
L 2053 2394 
Q 2494 2394 2734 2622 
Q 2975 2850 2975 3272 
Q 2975 3691 2734 3919 
Q 2494 4147 2053 4147 
L 1259 4147 
z
M 628 4666 
L 2053 4666 
Q 2838 4666 3239 4311 
Q 3641 3956 3641 3272 
Q 3641 2581 3239 2228 
Q 2838 1875 2053 1875 
L 1259 1875 
L 1259 0 
L 628 0 
L 628 4666 
z
" transform="scale(0.015625)"/>
      <path id="DejaVuSans-43" d="M 4122 4306 
L 4122 3641 
Q 3803 3938 3442 4084 
Q 3081 4231 2675 4231 
Q 1875 4231 1450 3742 
Q 1025 3253 1025 2328 
Q 1025 1406 1450 917 
Q 1875 428 2675 428 
Q 3081 428 3442 575 
Q 3803 722 4122 1019 
L 4122 359 
Q 3791 134 3420 21 
Q 3050 -91 2638 -91 
Q 1578 -91 968 557 
Q 359 1206 359 2328 
Q 359 3453 968 4101 
Q 1578 4750 2638 4750 
Q 3056 4750 3426 4639 
Q 3797 4528 4122 4306 
z
" transform="scale(0.015625)"/>
      <path id="DejaVuSans-44" d="M 1259 4147 
L 1259 519 
L 2022 519 
Q 2988 519 3436 956 
Q 3884 1394 3884 2338 
Q 3884 3275 3436 3711 
Q 2988 4147 2022 4147 
L 1259 4147 
z
M 628 4666 
L 1925 4666 
Q 3281 4666 3915 4102 
Q 4550 3538 4550 2338 
Q 4550 1131 3912 565 
Q 3275 0 1925 0 
L 628 0 
L 628 4666 
z
" transform="scale(0.015625)"/>
      <path id="DejaVuSans-39" d="M 703 97 
L 703 672 
Q 941 559 1184 500 
Q 1428 441 1663 441 
Q 2288 441 2617 861 
Q 2947 1281 2994 2138 
Q 2813 1869 2534 1725 
Q 2256 1581 1919 1581 
Q 1219 1581 811 2004 
Q 403 2428 403 3163 
Q 403 3881 828 4315 
Q 1253 4750 1959 4750 
Q 2769 4750 3195 4129 
Q 3622 3509 3622 2328 
Q 3622 1225 3098 567 
Q 2575 -91 1691 -91 
Q 1453 -91 1209 -44 
Q 966 3 703 97 
z
M 1959 2075 
Q 2384 2075 2632 2365 
Q 2881 2656 2881 3163 
Q 2881 3666 2632 3958 
Q 2384 4250 1959 4250 
Q 1534 4250 1286 3958 
Q 1038 3666 1038 3163 
Q 1038 2656 1286 2365 
Q 1534 2075 1959 2075 
z
" transform="scale(0.015625)"/>
     </defs>
     <use xlink:href="#DejaVuSans-50"/>
     <use xlink:href="#DejaVuSans-43" x="60.302734"/>
     <use xlink:href="#DejaVuSans-44" x="130.126953"/>
     <use xlink:href="#DejaVuSans-20" x="207.128906"/>
     <use xlink:href="#DejaVuSans-39" x="238.916016"/>
     <use xlink:href="#DejaVuSans-30" x="302.539062"/>
    </g>
   </g>
   <g id="patch_22">
    <path d="M 92.757012 722.269291 
Q 92.757012 413.658634 92.757012 105.047977 
" style="fill: none; stroke: #000000; stroke-linecap: round"/>
    <path d="M 94.757012 718.269291 
L 92.757012 722.269291 
L 90.757012 718.269291 
" style="fill: none; stroke: #000000; stroke-linecap: round"/>
    <path d="M 90.757012 109.047977 
L 92.757012 105.047977 
L 94.757012 109.047977 
" style="fill: none; stroke: #000000; stroke-linecap: round"/>
   </g>
   <g id="text_18">
    <!-- 200 -->
    <g transform="translate(96.068262 426.185912) rotate(-90) scale(0.12 -0.12)">
     <defs>
      <path id="DejaVuSans-Bold-32" d="M 1844 884 
L 3897 884 
L 3897 0 
L 506 0 
L 506 884 
L 2209 2388 
Q 2438 2594 2547 2791 
Q 2656 2988 2656 3200 
Q 2656 3528 2436 3728 
Q 2216 3928 1850 3928 
Q 1569 3928 1234 3808 
Q 900 3688 519 3450 
L 519 4475 
Q 925 4609 1322 4679 
Q 1719 4750 2100 4750 
Q 2938 4750 3402 4381 
Q 3866 4013 3866 3353 
Q 3866 2972 3669 2642 
Q 3472 2313 2841 1759 
L 1844 884 
z
" transform="scale(0.015625)"/>
      <path id="DejaVuSans-Bold-30" d="M 2944 2338 
Q 2944 3213 2780 3570 
Q 2616 3928 2228 3928 
Q 1841 3928 1675 3570 
Q 1509 3213 1509 2338 
Q 1509 1453 1675 1090 
Q 1841 728 2228 728 
Q 2613 728 2778 1090 
Q 2944 1453 2944 2338 
z
M 4147 2328 
Q 4147 1169 3647 539 
Q 3147 -91 2228 -91 
Q 1306 -91 806 539 
Q 306 1169 306 2328 
Q 306 3491 806 4120 
Q 1306 4750 2228 4750 
Q 3147 4750 3647 4120 
Q 4147 3491 4147 2328 
z
" transform="scale(0.015625)"/>
     </defs>
     <use xlink:href="#DejaVuSans-Bold-32"/>
     <use xlink:href="#DejaVuSans-Bold-30" x="69.580078"/>
     <use xlink:href="#DejaVuSans-Bold-30" x="139.160156"/>
    </g>
   </g>
   <g id="patch_23">
    <path d="M 142.634869 772.14905 
Q 326.552685 772.14905 510.470501 772.14905 
" style="fill: none; stroke: #000000; stroke-linecap: round"/>
    <path d="M 146.634869 774.14905 
L 142.634869 772.14905 
L 146.634869 770.14905 
" style="fill: none; stroke: #000000; stroke-linecap: round"/>
    <path d="M 506.470501 770.14905 
L 510.470501 772.14905 
L 506.470501 774.14905 
" style="fill: none; stroke: #000000; stroke-linecap: round"/>
   </g>
   <g id="text_19">
    <!-- 120 -->
    <g transform="translate(314.02895 775.4603) scale(0.12 -0.12)">
     <defs>
      <path id="DejaVuSans-Bold-31" d="M 750 831 
L 1813 831 
L 1813 3847 
L 722 3622 
L 722 4441 
L 1806 4666 
L 2950 4666 
L 2950 831 
L 4013 831 
L 4013 0 
L 750 0 
L 750 831 
z
" transform="scale(0.015625)"/>
     </defs>
     <use xlink:href="#DejaVuSans-Bold-31"/>
     <use xlink:href="#DejaVuSans-Bold-32" x="69.580078"/>
     <use xlink:href="#DejaVuSans-Bold-30" x="139.160156"/>
    </g>
   </g>
   <g id="text_20">
    <g id="patch_24">
     <path d="M 61.584212 142.63955 
L 223.887963 142.63955 
Q 226.587963 142.63955 226.587963 139.93955 
L 226.587963 70.76105 
Q 226.587963 68.06105 223.887963 68.06105 
L 61.584212 68.06105 
Q 58.884212 68.06105 58.884212 70.76105 
L 58.884212 139.93955 
Q 58.884212 142.63955 61.584212 142.63955 
z
" style="fill: #d3d3d3; opacity: 0.8; stroke: #000000; stroke-linejoin: miter"/>
    </g>
    <!-- NOTES: -->
    <g transform="translate(61.584212 77.599644) scale(0.09 -0.09)">
     <defs>
      <path id="DejaVuSans-4e" d="M 628 4666 
L 1478 4666 
L 3547 763 
L 3547 4666 
L 4159 4666 
L 4159 0 
L 3309 0 
L 1241 3903 
L 1241 0 
L 628 0 
L 628 4666 
z
" transform="scale(0.015625)"/>
      <path id="DejaVuSans-4f" d="M 2522 4238 
Q 1834 4238 1429 3725 
Q 1025 3213 1025 2328 
Q 1025 1447 1429 934 
Q 1834 422 2522 422 
Q 3209 422 3611 934 
Q 4013 1447 4013 2328 
Q 4013 3213 3611 3725 
Q 3209 4238 2522 4238 
z
M 2522 4750 
Q 3503 4750 4090 4092 
Q 4678 3434 4678 2328 
Q 4678 1225 4090 567 
Q 3503 -91 2522 -91 
Q 1538 -91 948 565 
Q 359 1222 359 2328 
Q 359 3434 948 4092 
Q 1538 4750 2522 4750 
z
" transform="scale(0.015625)"/>
      <path id="DejaVuSans-54" d="M -19 4666 
L 3928 4666 
L 3928 4134 
L 2272 4134 
L 2272 0 
L 1638 0 
L 1638 4134 
L -19 4134 
L -19 4666 
z
" transform="scale(0.015625)"/>
      <path id="DejaVuSans-45" d="M 628 4666 
L 3578 4666 
L 3578 4134 
L 1259 4134 
L 1259 2753 
L 3481 2753 
L 3481 2222 
L 1259 2222 
L 1259 531 
L 3634 531 
L 3634 0 
L 628 0 
L 628 4666 
z
" transform="scale(0.015625)"/>
      <path id="DejaVuSans-53" d="M 3425 4513 
L 3425 3897 
Q 3066 4069 2747 4153 
Q 2428 4238 2131 4238 
Q 1616 4238 1336 4038 
Q 1056 3838 1056 3469 
Q 1056 3159 1242 3001 
Q 1428 2844 1947 2747 
L 2328 2669 
Q 3034 2534 3370 2195 
Q 3706 1856 3706 1288 
Q 3706 609 3251 259 
Q 2797 -91 1919 -91 
Q 1588 -91 1214 -16 
Q 841 59 441 206 
L 441 856 
Q 825 641 1194 531 
Q 1563 422 1919 422 
Q 2459 422 2753 634 
Q 3047 847 3047 1241 
Q 3047 1584 2836 1778 
Q 2625 1972 2144 2069 
L 1759 2144 
Q 1053 2284 737 2584 
Q 422 2884 422 3419 
Q 422 4038 858 4394 
Q 1294 4750 2059 4750 
Q 2388 4750 2728 4690 
Q 3069 4631 3425 4513 
z
" transform="scale(0.015625)"/>
      <path id="DejaVuSans-3a" d="M 750 794 
L 1409 794 
L 1409 0 
L 750 0 
L 750 794 
z
M 750 3309 
L 1409 3309 
L 1409 2516 
L 750 2516 
L 750 3309 
z
" transform="scale(0.015625)"/>
     </defs>
     <use xlink:href="#DejaVuSans-4e"/>
     <use xlink:href="#DejaVuSans-4f" x="74.804688"/>
     <use xlink:href="#DejaVuSans-54" x="153.515625"/>
     <use xlink:href="#DejaVuSans-45" x="214.599609"/>
     <use xlink:href="#DejaVuSans-53" x="277.783203"/>
     <use xlink:href="#DejaVuSans-3a" x="341.259766"/>
    </g>
    <!-- • All dimensions in mm -->
    <g transform="translate(61.584212 87.677675) scale(0.09 -0.09)">
     <defs>
      <path id="DejaVuSans-2022" d="M 959 2381 
Q 959 2769 1229 3036 
Q 1500 3303 1894 3303 
Q 2281 3303 2548 3036 
Q 2816 2769 2816 2381 
Q 2816 1991 2547 1722 
Q 2278 1453 1888 1453 
Q 1497 1453 1228 1722 
Q 959 1991 959 2381 
z
" transform="scale(0.015625)"/>
      <path id="DejaVuSans-41" d="M 2188 4044 
L 1331 1722 
L 3047 1722 
L 2188 4044 
z
M 1831 4666 
L 2547 4666 
L 4325 0 
L 3669 0 
L 3244 1197 
L 1141 1197 
L 716 0 
L 50 0 
L 1831 4666 
z
" transform="scale(0.015625)"/>
      <path id="DejaVuSans-6c" d="M 603 4863 
L 1178 4863 
L 1178 0 
L 603 0 
L 603 4863 
z
" transform="scale(0.015625)"/>
      <path id="DejaVuSans-64" d="M 2906 2969 
L 2906 4863 
L 3481 4863 
L 3481 0 
L 2906 0 
L 2906 525 
Q 2725 213 2448 61 
Q 2172 -91 1784 -91 
Q 1150 -91 751 415 
Q 353 922 353 1747 
Q 353 2572 751 3078 
Q 1150 3584 1784 3584 
Q 2172 3584 2448 3432 
Q 2725 3281 2906 2969 
z
M 947 1747 
Q 947 1113 1208 752 
Q 1469 391 1925 391 
Q 2381 391 2643 752 
Q 2906 1113 2906 1747 
Q 2906 2381 2643 2742 
Q 2381 3103 1925 3103 
Q 1469 3103 1208 2742 
Q 947 2381 947 1747 
z
" transform="scale(0.015625)"/>
      <path id="DejaVuSans-69" d="M 603 3500 
L 1178 3500 
L 1178 0 
L 603 0 
L 603 3500 
z
M 603 4863 
L 1178 4863 
L 1178 4134 
L 603 4134 
L 603 4863 
z
" transform="scale(0.015625)"/>
      <path id="DejaVuSans-65" d="M 3597 1894 
L 3597 1613 
L 953 1613 
Q 991 1019 1311 708 
Q 1631 397 2203 397 
Q 2534 397 2845 478 
Q 3156 559 3463 722 
L 3463 178 
Q 3153 47 2828 -22 
Q 2503 -91 2169 -91 
Q 1331 -91 842 396 
Q 353 884 353 1716 
Q 353 2575 817 3079 
Q 1281 3584 2069 3584 
Q 2775 3584 3186 3129 
Q 3597 2675 3597 1894 
z
M 3022 2063 
Q 3016 2534 2758 2815 
Q 2500 3097 2075 3097 
Q 1594 3097 1305 2825 
Q 1016 2553 972 2059 
L 3022 2063 
z
" transform="scale(0.015625)"/>
      <path id="DejaVuSans-6e" d="M 3513 2113 
L 3513 0 
L 2938 0 
L 2938 2094 
Q 2938 2591 2744 2837 
Q 2550 3084 2163 3084 
Q 1697 3084 1428 2787 
Q 1159 2491 1159 1978 
L 1159 0 
L 581 0 
L 581 3500 
L 1159 3500 
L 1159 2956 
Q 1366 3272 1645 3428 
Q 1925 3584 2291 3584 
Q 2894 3584 3203 3211 
Q 3513 2838 3513 2113 
z
" transform="scale(0.015625)"/>
      <path id="DejaVuSans-73" d="M 2834 3397 
L 2834 2853 
Q 2591 2978 2328 3040 
Q 2066 3103 1784 3103 
Q 1356 3103 1142 2972 
Q 928 2841 928 2578 
Q 928 2378 1081 2264 
Q 1234 2150 1697 2047 
L 1894 2003 
Q 2506 1872 2764 1633 
Q 3022 1394 3022 966 
Q 3022 478 2636 193 
Q 2250 -91 1575 -91 
Q 1294 -91 989 -36 
Q 684 19 347 128 
L 347 722 
Q 666 556 975 473 
Q 1284 391 1588 391 
Q 1994 391 2212 530 
Q 2431 669 2431 922 
Q 2431 1156 2273 1281 
Q 2116 1406 1581 1522 
L 1381 1569 
Q 847 1681 609 1914 
Q 372 2147 372 2553 
Q 372 3047 722 3315 
Q 1072 3584 1716 3584 
Q 2034 3584 2315 3537 
Q 2597 3491 2834 3397 
z
" transform="scale(0.015625)"/>
      <path id="DejaVuSans-6f" d="M 1959 3097 
Q 1497 3097 1228 2736 
Q 959 2375 959 1747 
Q 959 1119 1226 758 
Q 1494 397 1959 397 
Q 2419 397 2687 759 
Q 2956 1122 2956 1747 
Q 2956 2369 2687 2733 
Q 2419 3097 1959 3097 
z
M 1959 3584 
Q 2709 3584 3137 3096 
Q 3566 2609 3566 1747 
Q 3566 888 3137 398 
Q 2709 -91 1959 -91 
Q 1206 -91 779 398 
Q 353 888 353 1747 
Q 353 2609 779 3096 
Q 1206 3584 1959 3584 
z
" transform="scale(0.015625)"/>
     </defs>
     <use xlink:href="#DejaVuSans-2022"/>
     <use xlink:href="#DejaVuSans-20" x="58.984375"/>
     <use xlink:href="#DejaVuSans-41" x="90.771484"/>
     <use xlink:href="#DejaVuSans-6c" x="159.179688"/>
     <use xlink:href="#DejaVuSans-6c" x="186.962891"/>
     <use xlink:href="#DejaVuSans-20" x="214.746094"/>
     <use xlink:href="#DejaVuSans-64" x="246.533203"/>
     <use xlink:href="#DejaVuSans-69" x="310.009766"/>
     <use xlink:href="#DejaVuSans-6d" x="337.792969"/>
     <use xlink:href="#DejaVuSans-65" x="435.205078"/>
     <use xlink:href="#DejaVuSans-6e" x="496.728516"/>
     <use xlink:href="#DejaVuSans-73" x="560.107422"/>
     <use xlink:href="#DejaVuSans-69" x="612.207031"/>
     <use xlink:href="#DejaVuSans-6f" x="639.990234"/>
     <use xlink:href="#DejaVuSans-6e" x="701.171875"/>
     <use xlink:href="#DejaVuSans-73" x="764.550781"/>
     <use xlink:href="#DejaVuSans-20" x="816.650391"/>
     <use xlink:href="#DejaVuSans-69" x="848.4375"/>
     <use xlink:href="#DejaVuSans-6e" x="876.220703"/>
     <use xlink:href="#DejaVuSans-20" x="939.599609"/>
     <use xlink:href="#DejaVuSans-6d" x="971.386719"/>
     <use xlink:href="#DejaVuSans-6d" x="1068.798828"/>
    </g>
    <!-- • Material: 4mm Stainless Steel -->
    <g transform="translate(61.584212 97.755706) scale(0.09 -0.09)">
     <defs>
      <path id="DejaVuSans-4d" d="M 628 4666 
L 1569 4666 
L 2759 1491 
L 3956 4666 
L 4897 4666 
L 4897 0 
L 4281 0 
L 4281 4097 
L 3078 897 
L 2444 897 
L 1241 4097 
L 1241 0 
L 628 0 
L 628 4666 
z
" transform="scale(0.015625)"/>
      <path id="DejaVuSans-61" d="M 2194 1759 
Q 1497 1759 1228 1600 
Q 959 1441 959 1056 
Q 959 750 1161 570 
Q 1363 391 1709 391 
Q 2188 391 2477 730 
Q 2766 1069 2766 1631 
L 2766 1759 
L 2194 1759 
z
M 3341 1997 
L 3341 0 
L 2766 0 
L 2766 531 
Q 2569 213 2275 61 
Q 1981 -91 1556 -91 
Q 1019 -91 701 211 
Q 384 513 384 1019 
Q 384 1609 779 1909 
Q 1175 2209 1959 2209 
L 2766 2209 
L 2766 2266 
Q 2766 2663 2505 2880 
Q 2244 3097 1772 3097 
Q 1472 3097 1187 3025 
Q 903 2953 641 2809 
L 641 3341 
Q 956 3463 1253 3523 
Q 1550 3584 1831 3584 
Q 2591 3584 2966 3190 
Q 3341 2797 3341 1997 
z
" transform="scale(0.015625)"/>
      <path id="DejaVuSans-74" d="M 1172 4494 
L 1172 3500 
L 2356 3500 
L 2356 3053 
L 1172 3053 
L 1172 1153 
Q 1172 725 1289 603 
Q 1406 481 1766 481 
L 2356 481 
L 2356 0 
L 1766 0 
Q 1100 0 847 248 
Q 594 497 594 1153 
L 594 3053 
L 172 3053 
L 172 3500 
L 594 3500 
L 594 4494 
L 1172 4494 
z
" transform="scale(0.015625)"/>
      <path id="DejaVuSans-72" d="M 2631 2963 
Q 2534 3019 2420 3045 
Q 2306 3072 2169 3072 
Q 1681 3072 1420 2755 
Q 1159 2438 1159 1844 
L 1159 0 
L 581 0 
L 581 3500 
L 1159 3500 
L 1159 2956 
Q 1341 3275 1631 3429 
Q 1922 3584 2338 3584 
Q 2397 3584 2469 3576 
Q 2541 3569 2628 3553 
L 2631 2963 
z
" transform="scale(0.015625)"/>
     </defs>
     <use xlink:href="#DejaVuSans-2022"/>
     <use xlink:href="#DejaVuSans-20" x="58.984375"/>
     <use xlink:href="#DejaVuSans-4d" x="90.771484"/>
     <use xlink:href="#DejaVuSans-61" x="177.050781"/>
     <use xlink:href="#DejaVuSans-74" x="238.330078"/>
     <use xlink:href="#DejaVuSans-65" x="277.539062"/>
     <use xlink:href="#DejaVuSans-72" x="339.0625"/>
     <use xlink:href="#DejaVuSans-69" x="380.175781"/>
     <use xlink:href="#DejaVuSans-61" x="407.958984"/>
     <use xlink:href="#DejaVuSans-6c" x="469.238281"/>
     <use xlink:href="#DejaVuSans-3a" x="497.021484"/>
     <use xlink:href="#DejaVuSans-20" x="530.712891"/>
     <use xlink:href="#DejaVuSans-34" x="562.5"/>
     <use xlink:href="#DejaVuSans-6d" x="626.123047"/>
     <use xlink:href="#DejaVuSans-6d" x="723.535156"/>
     <use xlink:href="#DejaVuSans-20" x="820.947266"/>
     <use xlink:href="#DejaVuSans-53" x="852.734375"/>
     <use xlink:href="#DejaVuSans-74" x="916.210938"/>
     <use xlink:href="#DejaVuSans-61" x="955.419922"/>
     <use xlink:href="#DejaVuSans-69" x="1016.699219"/>
     <use xlink:href="#DejaVuSans-6e" x="1044.482422"/>
     <use xlink:href="#DejaVuSans-6c" x="1107.861328"/>
     <use xlink:href="#DejaVuSans-65" x="1135.644531"/>
     <use xlink:href="#DejaVuSans-73" x="1197.167969"/>
     <use xlink:href="#DejaVuSans-73" x="1249.267578"/>
     <use xlink:href="#DejaVuSans-20" x="1301.367188"/>
     <use xlink:href="#DejaVuSans-53" x="1333.154297"/>
     <use xlink:href="#DejaVuSans-74" x="1396.630859"/>
     <use xlink:href="#DejaVuSans-65" x="1435.839844"/>
     <use xlink:href="#DejaVuSans-65" x="1497.363281"/>
     <use xlink:href="#DejaVuSans-6c" x="1558.886719"/>
    </g>
    <!-- • Continuous fillet weld -->
    <g transform="translate(61.584212 107.833737) scale(0.09 -0.09)">
     <defs>
      <path id="DejaVuSans-75" d="M 544 1381 
L 544 3500 
L 1119 3500 
L 1119 1403 
Q 1119 906 1312 657 
Q 1506 409 1894 409 
Q 2359 409 2629 706 
Q 2900 1003 2900 1516 
L 2900 3500 
L 3475 3500 
L 3475 0 
L 2900 0 
L 2900 538 
Q 2691 219 2414 64 
Q 2138 -91 1772 -91 
Q 1169 -91 856 284 
Q 544 659 544 1381 
z
M 1991 3584 
L 1991 3584 
z
" transform="scale(0.015625)"/>
      <path id="DejaVuSans-66" d="M 2375 4863 
L 2375 4384 
L 1825 4384 
Q 1516 4384 1395 4259 
Q 1275 4134 1275 3809 
L 1275 3500 
L 2222 3500 
L 2222 3053 
L 1275 3053 
L 1275 0 
L 697 0 
L 697 3053 
L 147 3053 
L 147 3500 
L 697 3500 
L 697 3744 
Q 697 4328 969 4595 
Q 1241 4863 1831 4863 
L 2375 4863 
z
" transform="scale(0.015625)"/>
      <path id="DejaVuSans-77" d="M 269 3500 
L 844 3500 
L 1563 769 
L 2278 3500 
L 2956 3500 
L 3675 769 
L 4391 3500 
L 4966 3500 
L 4050 0 
L 3372 0 
L 2619 2869 
L 1863 0 
L 1184 0 
L 269 3500 
z
" transform="scale(0.015625)"/>
     </defs>
     <use xlink:href="#DejaVuSans-2022"/>
     <use xlink:href="#DejaVuSans-20" x="58.984375"/>
     <use xlink:href="#DejaVuSans-43" x="90.771484"/>
     <use xlink:href="#DejaVuSans-6f" x="160.595703"/>
     <use xlink:href="#DejaVuSans-6e" x="221.777344"/>
     <use xlink:href="#DejaVuSans-74" x="285.15625"/>
     <use xlink:href="#DejaVuSans-69" x="324.365234"/>
     <use xlink:href="#DejaVuSans-6e" x="352.148438"/>
     <use xlink:href="#DejaVuSans-75" x="415.527344"/>
     <use xlink:href="#DejaVuSans-6f" x="478.90625"/>
     <use xlink:href="#DejaVuSans-75" x="540.087891"/>
     <use xlink:href="#DejaVuSans-73" x="603.466797"/>
     <use xlink:href="#DejaVuSans-20" x="655.566406"/>
     <use xlink:href="#DejaVuSans-66" x="687.353516"/>
     <use xlink:href="#DejaVuSans-69" x="722.558594"/>
     <use xlink:href="#DejaVuSans-6c" x="750.341797"/>
     <use xlink:href="#DejaVuSans-6c" x="778.125"/>
     <use xlink:href="#DejaVuSans-65" x="805.908203"/>
     <use xlink:href="#DejaVuSans-74" x="867.431641"/>
     <use xlink:href="#DejaVuSans-20" x="906.640625"/>
     <use xlink:href="#DejaVuSans-77" x="938.427734"/>
     <use xlink:href="#DejaVuSans-65" x="1020.214844"/>
     <use xlink:href="#DejaVuSans-6c" x="1081.738281"/>
     <use xlink:href="#DejaVuSans-64" x="1109.521484"/>
    </g>
    <!-- • Remove all burrs and sharp edges -->
    <g transform="translate(61.584212 117.911769) scale(0.09 -0.09)">
     <defs>
      <path id="DejaVuSans-52" d="M 2841 2188 
Q 3044 2119 3236 1894 
Q 3428 1669 3622 1275 
L 4263 0 
L 3584 0 
L 2988 1197 
Q 2756 1666 2539 1819 
Q 2322 1972 1947 1972 
L 1259 1972 
L 1259 0 
L 628 0 
L 628 4666 
L 2053 4666 
Q 2853 4666 3247 4331 
Q 3641 3997 3641 3322 
Q 3641 2881 3436 2590 
Q 3231 2300 2841 2188 
z
M 1259 4147 
L 1259 2491 
L 2053 2491 
Q 2509 2491 2742 2702 
Q 2975 2913 2975 3322 
Q 2975 3731 2742 3939 
Q 2509 4147 2053 4147 
L 1259 4147 
z
" transform="scale(0.015625)"/>
      <path id="DejaVuSans-76" d="M 191 3500 
L 800 3500 
L 1894 563 
L 2988 3500 
L 3597 3500 
L 2284 0 
L 1503 0 
L 191 3500 
z
" transform="scale(0.015625)"/>
      <path id="DejaVuSans-62" d="M 3116 1747 
Q 3116 2381 2855 2742 
Q 2594 3103 2138 3103 
Q 1681 3103 1420 2742 
Q 1159 2381 1159 1747 
Q 1159 1113 1420 752 
Q 1681 391 2138 391 
Q 2594 391 2855 752 
Q 3116 1113 3116 1747 
z
M 1159 2969 
Q 1341 3281 1617 3432 
Q 1894 3584 2278 3584 
Q 2916 3584 3314 3078 
Q 3713 2572 3713 1747 
Q 3713 922 3314 415 
Q 2916 -91 2278 -91 
Q 1894 -91 1617 61 
Q 1341 213 1159 525 
L 1159 0 
L 581 0 
L 581 4863 
L 1159 4863 
L 1159 2969 
z
" transform="scale(0.015625)"/>
      <path id="DejaVuSans-68" d="M 3513 2113 
L 3513 0 
L 2938 0 
L 2938 2094 
Q 2938 2591 2744 2837 
Q 2550 3084 2163 3084 
Q 1697 3084 1428 2787 
Q 1159 2491 1159 1978 
L 1159 0 
L 581 0 
L 581 4863 
L 1159 4863 
L 1159 2956 
Q 1366 3272 1645 3428 
Q 1925 3584 2291 3584 
Q 2894 3584 3203 3211 
Q 3513 2838 3513 2113 
z
" transform="scale(0.015625)"/>
      <path id="DejaVuSans-70" d="M 1159 525 
L 1159 -1331 
L 581 -1331 
L 581 3500 
L 1159 3500 
L 1159 2969 
Q 1341 3281 1617 3432 
Q 1894 3584 2278 3584 
Q 2916 3584 3314 3078 
Q 3713 2572 3713 1747 
Q 3713 922 3314 415 
Q 2916 -91 2278 -91 
Q 1894 -91 1617 61 
Q 1341 213 1159 525 
z
M 3116 1747 
Q 3116 2381 2855 2742 
Q 2594 3103 2138 3103 
Q 1681 3103 1420 2742 
Q 1159 2381 1159 1747 
Q 1159 1113 1420 752 
Q 1681 391 2138 391 
Q 2594 391 2855 752 
Q 3116 1113 3116 1747 
z
" transform="scale(0.015625)"/>
      <path id="DejaVuSans-67" d="M 2906 1791 
Q 2906 2416 2648 2759 
Q 2391 3103 1925 3103 
Q 1463 3103 1205 2759 
Q 947 2416 947 1791 
Q 947 1169 1205 825 
Q 1463 481 1925 481 
Q 2391 481 2648 825 
Q 2906 1169 2906 1791 
z
M 3481 434 
Q 3481 -459 3084 -895 
Q 2688 -1331 1869 -1331 
Q 1566 -1331 1297 -1286 
Q 1028 -1241 775 -1147 
L 775 -588 
Q 1028 -725 1275 -790 
Q 1522 -856 1778 -856 
Q 2344 -856 2625 -561 
Q 2906 -266 2906 331 
L 2906 616 
Q 2728 306 2450 153 
Q 2172 0 1784 0 
Q 1141 0 747 490 
Q 353 981 353 1791 
Q 353 2603 747 3093 
Q 1141 3584 1784 3584 
Q 2172 3584 2450 3431 
Q 2728 3278 2906 2969 
L 2906 3500 
L 3481 3500 
L 3481 434 
z
" transform="scale(0.015625)"/>
     </defs>
     <use xlink:href="#DejaVuSans-2022"/>
     <use xlink:href="#DejaVuSans-20" x="58.984375"/>
     <use xlink:href="#DejaVuSans-52" x="90.771484"/>
     <use xlink:href="#DejaVuSans-65" x="155.753906"/>
     <use xlink:href="#DejaVuSans-6d" x="217.277344"/>
     <use xlink:href="#DejaVuSans-6f" x="314.689453"/>
     <use xlink:href="#DejaVuSans-76" x="375.871094"/>
     <use xlink:href="#DejaVuSans-65" x="435.050781"/>
     <use xlink:href="#DejaVuSans-20" x="496.574219"/>
     <use xlink:href="#DejaVuSans-61" x="528.361328"/>
     <use xlink:href="#DejaVuSans-6c" x="589.640625"/>
     <use xlink:href="#DejaVuSans-6c" x="617.423828"/>
     <use xlink:href="#DejaVuSans-20" x="645.207031"/>
     <use xlink:href="#DejaVuSans-62" x="676.994141"/>
     <use xlink:href="#DejaVuSans-75" x="740.470703"/>
     <use xlink:href="#DejaVuSans-72" x="803.849609"/>
     <use xlink:href="#DejaVuSans-72" x="843.212891"/>
     <use xlink:href="#DejaVuSans-73" x="884.326172"/>
     <use xlink:href="#DejaVuSans-20" x="936.425781"/>
     <use xlink:href="#DejaVuSans-61" x="968.212891"/>
     <use xlink:href="#DejaVuSans-6e" x="1029.492188"/>
     <use xlink:href="#DejaVuSans-64" x="1092.871094"/>
     <use xlink:href="#DejaVuSans-20" x="1156.347656"/>
     <use xlink:href="#DejaVuSans-73" x="1188.134766"/>
     <use xlink:href="#DejaVuSans-68" x="1240.234375"/>
     <use xlink:href="#DejaVuSans-61" x="1303.613281"/>
     <use xlink:href="#DejaVuSans-72" x="1364.892578"/>
     <use xlink:href="#DejaVuSans-70" x="1406.005859"/>
     <use xlink:href="#DejaVuSans-20" x="1469.482422"/>
     <use xlink:href="#DejaVuSans-65" x="1501.269531"/>
     <use xlink:href="#DejaVuSans-64" x="1562.792969"/>
     <use xlink:href="#DejaVuSans-67" x="1626.269531"/>
     <use xlink:href="#DejaVuSans-65" x="1689.746094"/>
     <use xlink:href="#DejaVuSans-73" x="1751.269531"/>
    </g>
    <!-- • U-arm welded to base plate -->
    <g transform="translate(61.584212 127.9898) scale(0.09 -0.09)">
     <defs>
      <path id="DejaVuSans-55" d="M 556 4666 
L 1191 4666 
L 1191 1831 
Q 1191 1081 1462 751 
Q 1734 422 2344 422 
Q 2950 422 3222 751 
Q 3494 1081 3494 1831 
L 3494 4666 
L 4128 4666 
L 4128 1753 
Q 4128 841 3676 375 
Q 3225 -91 2344 -91 
Q 1459 -91 1007 375 
Q 556 841 556 1753 
L 556 4666 
z
" transform="scale(0.015625)"/>
      <path id="DejaVuSans-2d" d="M 313 2009 
L 1997 2009 
L 1997 1497 
L 313 1497 
L 313 2009 
z
" transform="scale(0.015625)"/>
     </defs>
     <use xlink:href="#DejaVuSans-2022"/>
     <use xlink:href="#DejaVuSans-20" x="58.984375"/>
     <use xlink:href="#DejaVuSans-55" x="90.771484"/>
     <use xlink:href="#DejaVuSans-2d" x="163.964844"/>
     <use xlink:href="#DejaVuSans-61" x="200.048828"/>
     <use xlink:href="#DejaVuSans-72" x="261.328125"/>
     <use xlink:href="#DejaVuSans-6d" x="300.691406"/>
     <use xlink:href="#DejaVuSans-20" x="398.103516"/>
     <use xlink:href="#DejaVuSans-77" x="429.890625"/>
     <use xlink:href="#DejaVuSans-65" x="511.677734"/>
     <use xlink:href="#DejaVuSans-6c" x="573.201172"/>
     <use xlink:href="#DejaVuSans-64" x="600.984375"/>
     <use xlink:href="#DejaVuSans-65" x="664.460938"/>
     <use xlink:href="#DejaVuSans-64" x="725.984375"/>
     <use xlink:href="#DejaVuSans-20" x="789.460938"/>
     <use xlink:href="#DejaVuSans-74" x="821.248047"/>
     <use xlink:href="#DejaVuSans-6f" x="860.457031"/>
     <use xlink:href="#DejaVuSans-20" x="921.638672"/>
     <use xlink:href="#DejaVuSans-62" x="953.425781"/>
     <use xlink:href="#DejaVuSans-61" x="1016.902344"/>
     <use xlink:href="#DejaVuSans-73" x="1078.181641"/>
     <use xlink:href="#DejaVuSans-65" x="1130.28125"/>
     <use xlink:href="#DejaVuSans-20" x="1191.804688"/>
     <use xlink:href="#DejaVuSans-70" x="1223.591797"/>
     <use xlink:href="#DejaVuSans-6c" x="1287.068359"/>
     <use xlink:href="#DejaVuSans-61" x="1314.851562"/>
     <use xlink:href="#DejaVuSans-74" x="1376.130859"/>
     <use xlink:href="#DejaVuSans-65" x="1415.339844"/>
    </g>
    <!-- • Origin at plate center -->
    <g transform="translate(61.584212 138.067831) scale(0.09 -0.09)">
     <defs>
      <path id="DejaVuSans-63" d="M 3122 3366 
L 3122 2828 
Q 2878 2963 2633 3030 
Q 2388 3097 2138 3097 
Q 1578 3097 1268 2742 
Q 959 2388 959 1747 
Q 959 1106 1268 751 
Q 1578 397 2138 397 
Q 2388 397 2633 464 
Q 2878 531 3122 666 
L 3122 134 
Q 2881 22 2623 -34 
Q 2366 -91 2075 -91 
Q 1284 -91 818 406 
Q 353 903 353 1747 
Q 353 2603 823 3093 
Q 1294 3584 2113 3584 
Q 2378 3584 2631 3529 
Q 2884 3475 3122 3366 
z
" transform="scale(0.015625)"/>
     </defs>
     <use xlink:href="#DejaVuSans-2022"/>
     <use xlink:href="#DejaVuSans-20" x="58.984375"/>
     <use xlink:href="#DejaVuSans-4f" x="90.771484"/>
     <use xlink:href="#DejaVuSans-72" x="169.482422"/>
     <use xlink:href="#DejaVuSans-69" x="210.595703"/>
     <use xlink:href="#DejaVuSans-67" x="238.378906"/>
     <use xlink:href="#DejaVuSans-69" x="301.855469"/>
     <use xlink:href="#DejaVuSans-6e" x="329.638672"/>
     <use xlink:href="#DejaVuSans-20" x="393.017578"/>
     <use xlink:href="#DejaVuSans-61" x="424.804688"/>
     <use xlink:href="#DejaVuSans-74" x="486.083984"/>
     <use xlink:href="#DejaVuSans-20" x="525.292969"/>
     <use xlink:href="#DejaVuSans-70" x="557.080078"/>
     <use xlink:href="#DejaVuSans-6c" x="620.556641"/>
     <use xlink:href="#DejaVuSans-61" x="648.339844"/>
     <use xlink:href="#DejaVuSans-74" x="709.619141"/>
     <use xlink:href="#DejaVuSans-65" x="748.828125"/>
     <use xlink:href="#DejaVuSans-20" x="810.351562"/>
     <use xlink:href="#DejaVuSans-63" x="842.138672"/>
     <use xlink:href="#DejaVuSans-65" x="897.119141"/>
     <use xlink:href="#DejaVuSans-6e" x="958.642578"/>
     <use xlink:href="#DejaVuSans-74" x="1022.021484"/>
     <use xlink:href="#DejaVuSans-65" x="1061.230469"/>
     <use xlink:href="#DejaVuSans-72" x="1122.753906"/>
    </g>
   </g>
   <g id="text_21">
    <!-- MOUNTING BRACKET - SIDE VIEW -->
    <g transform="translate(195.434262 17.837812) scale(0.14 -0.14)">
     <defs>
      <path id="DejaVuSans-Bold-4d" d="M 588 4666 
L 2119 4666 
L 3181 2169 
L 4250 4666 
L 5778 4666 
L 5778 0 
L 4641 0 
L 4641 3413 
L 3566 897 
L 2803 897 
L 1728 3413 
L 1728 0 
L 588 0 
L 588 4666 
z
" transform="scale(0.015625)"/>
      <path id="DejaVuSans-Bold-4f" d="M 2719 3878 
Q 2169 3878 1866 3472 
Q 1563 3066 1563 2328 
Q 1563 1594 1866 1187 
Q 2169 781 2719 781 
Q 3272 781 3575 1187 
Q 3878 1594 3878 2328 
Q 3878 3066 3575 3472 
Q 3272 3878 2719 3878 
z
M 2719 4750 
Q 3844 4750 4481 4106 
Q 5119 3463 5119 2328 
Q 5119 1197 4481 553 
Q 3844 -91 2719 -91 
Q 1597 -91 958 553 
Q 319 1197 319 2328 
Q 319 3463 958 4106 
Q 1597 4750 2719 4750 
z
" transform="scale(0.015625)"/>
      <path id="DejaVuSans-Bold-55" d="M 588 4666 
L 1791 4666 
L 1791 1869 
Q 1791 1291 1980 1042 
Q 2169 794 2597 794 
Q 3028 794 3217 1042 
Q 3406 1291 3406 1869 
L 3406 4666 
L 4609 4666 
L 4609 1869 
Q 4609 878 4112 393 
Q 3616 -91 2597 -91 
Q 1581 -91 1084 393 
Q 588 878 588 1869 
L 588 4666 
z
" transform="scale(0.015625)"/>
      <path id="DejaVuSans-Bold-4e" d="M 588 4666 
L 1931 4666 
L 3628 1466 
L 3628 4666 
L 4769 4666 
L 4769 0 
L 3425 0 
L 1728 3200 
L 1728 0 
L 588 0 
L 588 4666 
z
" transform="scale(0.015625)"/>
      <path id="DejaVuSans-Bold-54" d="M 31 4666 
L 4331 4666 
L 4331 3756 
L 2784 3756 
L 2784 0 
L 1581 0 
L 1581 3756 
L 31 3756 
L 31 4666 
z
" transform="scale(0.015625)"/>
      <path id="DejaVuSans-Bold-49" d="M 588 4666 
L 1791 4666 
L 1791 0 
L 588 0 
L 588 4666 
z
" transform="scale(0.015625)"/>
      <path id="DejaVuSans-Bold-47" d="M 4781 347 
Q 4331 128 3847 18 
Q 3363 -91 2847 -91 
Q 1681 -91 1000 561 
Q 319 1213 319 2328 
Q 319 3456 1012 4103 
Q 1706 4750 2913 4750 
Q 3378 4750 3804 4662 
Q 4231 4575 4609 4403 
L 4609 3438 
Q 4219 3659 3833 3768 
Q 3447 3878 3059 3878 
Q 2341 3878 1952 3476 
Q 1563 3075 1563 2328 
Q 1563 1588 1938 1184 
Q 2313 781 3003 781 
Q 3191 781 3352 804 
Q 3513 828 3641 878 
L 3641 1784 
L 2906 1784 
L 2906 2591 
L 4781 2591 
L 4781 347 
z
" transform="scale(0.015625)"/>
      <path id="DejaVuSans-Bold-20" transform="scale(0.015625)"/>
      <path id="DejaVuSans-Bold-42" d="M 2456 2859 
Q 2741 2859 2887 2984 
Q 3034 3109 3034 3353 
Q 3034 3594 2887 3720 
Q 2741 3847 2456 3847 
L 1791 3847 
L 1791 2859 
L 2456 2859 
z
M 2497 819 
Q 2859 819 3042 972 
Q 3225 1125 3225 1434 
Q 3225 1738 3044 1889 
Q 2863 2041 2497 2041 
L 1791 2041 
L 1791 819 
L 2497 819 
z
M 3616 2497 
Q 4003 2384 4215 2081 
Q 4428 1778 4428 1338 
Q 4428 663 3972 331 
Q 3516 0 2584 0 
L 588 0 
L 588 4666 
L 2394 4666 
Q 3366 4666 3802 4372 
Q 4238 4078 4238 3431 
Q 4238 3091 4078 2852 
Q 3919 2613 3616 2497 
z
" transform="scale(0.015625)"/>
      <path id="DejaVuSans-Bold-52" d="M 2297 2597 
Q 2675 2597 2839 2737 
Q 3003 2878 3003 3200 
Q 3003 3519 2839 3656 
Q 2675 3794 2297 3794 
L 1791 3794 
L 1791 2597 
L 2297 2597 
z
M 1791 1766 
L 1791 0 
L 588 0 
L 588 4666 
L 2425 4666 
Q 3347 4666 3776 4356 
Q 4206 4047 4206 3378 
Q 4206 2916 3982 2619 
Q 3759 2322 3309 2181 
Q 3556 2125 3751 1926 
Q 3947 1728 4147 1325 
L 4800 0 
L 3519 0 
L 2950 1159 
Q 2778 1509 2601 1637 
Q 2425 1766 2131 1766 
L 1791 1766 
z
" transform="scale(0.015625)"/>
      <path id="DejaVuSans-Bold-41" d="M 3419 850 
L 1538 850 
L 1241 0 
L 31 0 
L 1759 4666 
L 3194 4666 
L 4922 0 
L 3713 0 
L 3419 850 
z
M 1838 1716 
L 3116 1716 
L 2478 3572 
L 1838 1716 
z
" transform="scale(0.015625)"/>
      <path id="DejaVuSans-Bold-43" d="M 4288 256 
Q 3956 84 3597 -3 
Q 3238 -91 2847 -91 
Q 1681 -91 1000 561 
Q 319 1213 319 2328 
Q 319 3447 1000 4098 
Q 1681 4750 2847 4750 
Q 3238 4750 3597 4662 
Q 3956 4575 4288 4403 
L 4288 3438 
Q 3953 3666 3628 3772 
Q 3303 3878 2944 3878 
Q 2300 3878 1931 3465 
Q 1563 3053 1563 2328 
Q 1563 1606 1931 1193 
Q 2300 781 2944 781 
Q 3303 781 3628 887 
Q 3953 994 4288 1222 
L 4288 256 
z
" transform="scale(0.015625)"/>
      <path id="DejaVuSans-Bold-4b" d="M 588 4666 
L 1791 4666 
L 1791 2963 
L 3525 4666 
L 4922 4666 
L 2675 2456 
L 5153 0 
L 3647 0 
L 1791 1838 
L 1791 0 
L 588 0 
L 588 4666 
z
" transform="scale(0.015625)"/>
      <path id="DejaVuSans-Bold-45" d="M 588 4666 
L 3834 4666 
L 3834 3756 
L 1791 3756 
L 1791 2888 
L 3713 2888 
L 3713 1978 
L 1791 1978 
L 1791 909 
L 3903 909 
L 3903 0 
L 588 0 
L 588 4666 
z
" transform="scale(0.015625)"/>
      <path id="DejaVuSans-Bold-2d" d="M 347 2297 
L 2309 2297 
L 2309 1388 
L 347 1388 
L 347 2297 
z
" transform="scale(0.015625)"/>
      <path id="DejaVuSans-Bold-53" d="M 3834 4519 
L 3834 3531 
Q 3450 3703 3084 3790 
Q 2719 3878 2394 3878 
Q 1963 3878 1756 3759 
Q 1550 3641 1550 3391 
Q 1550 3203 1689 3098 
Q 1828 2994 2194 2919 
L 2706 2816 
Q 3484 2659 3812 2340 
Q 4141 2022 4141 1434 
Q 4141 663 3683 286 
Q 3225 -91 2284 -91 
Q 1841 -91 1394 -6 
Q 947 78 500 244 
L 500 1259 
Q 947 1022 1364 901 
Q 1781 781 2169 781 
Q 2563 781 2772 912 
Q 2981 1044 2981 1288 
Q 2981 1506 2839 1625 
Q 2697 1744 2272 1838 
L 1806 1941 
Q 1106 2091 782 2419 
Q 459 2747 459 3303 
Q 459 4000 909 4375 
Q 1359 4750 2203 4750 
Q 2588 4750 2994 4692 
Q 3400 4634 3834 4519 
z
" transform="scale(0.015625)"/>
      <path id="DejaVuSans-Bold-44" d="M 1791 3756 
L 1791 909 
L 2222 909 
Q 2959 909 3348 1275 
Q 3738 1641 3738 2338 
Q 3738 3031 3350 3393 
Q 2963 3756 2222 3756 
L 1791 3756 
z
M 588 4666 
L 1856 4666 
Q 2919 4666 3439 4514 
Q 3959 4363 4331 4000 
Q 4659 3684 4818 3271 
Q 4978 2859 4978 2338 
Q 4978 1809 4818 1395 
Q 4659 981 4331 666 
Q 3956 303 3431 151 
Q 2906 0 1856 0 
L 588 0 
L 588 4666 
z
" transform="scale(0.015625)"/>
      <path id="DejaVuSans-Bold-56" d="M 31 4666 
L 1241 4666 
L 2478 1222 
L 3713 4666 
L 4922 4666 
L 3194 0 
L 1759 0 
L 31 4666 
z
" transform="scale(0.015625)"/>
      <path id="DejaVuSans-Bold-57" d="M 191 4666 
L 1344 4666 
L 2150 1275 
L 2950 4666 
L 4109 4666 
L 4909 1275 
L 5716 4666 
L 6859 4666 
L 5759 0 
L 4372 0 
L 3525 3547 
L 2688 0 
L 1300 0 
L 191 4666 
z
" transform="scale(0.015625)"/>
     </defs>
     <use xlink:href="#DejaVuSans-Bold-4d"/>
     <use xlink:href="#DejaVuSans-Bold-4f" x="99.511719"/>
     <use xlink:href="#DejaVuSans-Bold-55" x="184.521484"/>
     <use xlink:href="#DejaVuSans-Bold-4e" x="265.722656"/>
     <use xlink:href="#DejaVuSans-Bold-54" x="349.414062"/>
     <use xlink:href="#DejaVuSans-Bold-49" x="417.626953"/>
     <use xlink:href="#DejaVuSans-Bold-4e" x="454.833984"/>
     <use xlink:href="#DejaVuSans-Bold-47" x="538.525391"/>
     <use xlink:href="#DejaVuSans-Bold-20" x="620.605469"/>
     <use xlink:href="#DejaVuSans-Bold-42" x="655.419922"/>
     <use xlink:href="#DejaVuSans-Bold-52" x="731.640625"/>
     <use xlink:href="#DejaVuSans-Bold-41" x="808.642578"/>
     <use xlink:href="#DejaVuSans-Bold-43" x="886.035156"/>
     <use xlink:href="#DejaVuSans-Bold-4b" x="959.423828"/>
     <use xlink:href="#DejaVuSans-Bold-45" x="1036.914062"/>
     <use xlink:href="#DejaVuSans-Bold-54" x="1105.224609"/>
     <use xlink:href="#DejaVuSans-Bold-20" x="1173.4375"/>
     <use xlink:href="#DejaVuSans-Bold-2d" x="1208.251953"/>
     <use xlink:href="#DejaVuSans-Bold-20" x="1249.755859"/>
     <use xlink:href="#DejaVuSans-Bold-53" x="1284.570312"/>
     <use xlink:href="#DejaVuSans-Bold-49" x="1356.591797"/>
     <use xlink:href="#DejaVuSans-Bold-44" x="1393.798828"/>
     <use xlink:href="#DejaVuSans-Bold-45" x="1476.806641"/>
     <use xlink:href="#DejaVuSans-Bold-20" x="1545.117188"/>
     <use xlink:href="#DejaVuSans-Bold-56" x="1579.931641"/>
     <use xlink:href="#DejaVuSans-Bold-49" x="1657.324219"/>
     <use xlink:href="#DejaVuSans-Bold-45" x="1694.53125"/>
     <use xlink:href="#DejaVuSans-Bold-57" x="1762.841797"/>
    </g>
    <!-- 4mm Stainless Steel | Scale 1:2 -->
    <g transform="translate(202.494419 33.58825) scale(0.14 -0.14)">
     <defs>
      <path id="DejaVuSans-Bold-34" d="M 2356 3675 
L 1038 1722 
L 2356 1722 
L 2356 3675 
z
M 2156 4666 
L 3494 4666 
L 3494 1722 
L 4159 1722 
L 4159 850 
L 3494 850 
L 3494 0 
L 2356 0 
L 2356 850 
L 288 850 
L 288 1881 
L 2156 4666 
z
" transform="scale(0.015625)"/>
      <path id="DejaVuSans-Bold-6d" d="M 3781 2919 
Q 3994 3244 4286 3414 
Q 4578 3584 4928 3584 
Q 5531 3584 5847 3212 
Q 6163 2841 6163 2131 
L 6163 0 
L 5038 0 
L 5038 1825 
Q 5041 1866 5042 1909 
Q 5044 1953 5044 2034 
Q 5044 2406 4934 2573 
Q 4825 2741 4581 2741 
Q 4263 2741 4089 2478 
Q 3916 2216 3909 1719 
L 3909 0 
L 2784 0 
L 2784 1825 
Q 2784 2406 2684 2573 
Q 2584 2741 2328 2741 
Q 2006 2741 1831 2477 
Q 1656 2213 1656 1722 
L 1656 0 
L 531 0 
L 531 3500 
L 1656 3500 
L 1656 2988 
Q 1863 3284 2130 3434 
Q 2397 3584 2719 3584 
Q 3081 3584 3359 3409 
Q 3638 3234 3781 2919 
z
" transform="scale(0.015625)"/>
      <path id="DejaVuSans-Bold-74" d="M 1759 4494 
L 1759 3500 
L 2913 3500 
L 2913 2700 
L 1759 2700 
L 1759 1216 
Q 1759 972 1856 886 
Q 1953 800 2241 800 
L 2816 800 
L 2816 0 
L 1856 0 
Q 1194 0 917 276 
Q 641 553 641 1216 
L 641 2700 
L 84 2700 
L 84 3500 
L 641 3500 
L 641 4494 
L 1759 4494 
z
" transform="scale(0.015625)"/>
      <path id="DejaVuSans-Bold-61" d="M 2106 1575 
Q 1756 1575 1579 1456 
Q 1403 1338 1403 1106 
Q 1403 894 1545 773 
Q 1688 653 1941 653 
Q 2256 653 2472 879 
Q 2688 1106 2688 1447 
L 2688 1575 
L 2106 1575 
z
M 3816 1997 
L 3816 0 
L 2688 0 
L 2688 519 
Q 2463 200 2181 54 
Q 1900 -91 1497 -91 
Q 953 -91 614 226 
Q 275 544 275 1050 
Q 275 1666 698 1953 
Q 1122 2241 2028 2241 
L 2688 2241 
L 2688 2328 
Q 2688 2594 2478 2717 
Q 2269 2841 1825 2841 
Q 1466 2841 1156 2769 
Q 847 2697 581 2553 
L 581 3406 
Q 941 3494 1303 3539 
Q 1666 3584 2028 3584 
Q 2975 3584 3395 3211 
Q 3816 2838 3816 1997 
z
" transform="scale(0.015625)"/>
      <path id="DejaVuSans-Bold-69" d="M 538 3500 
L 1656 3500 
L 1656 0 
L 538 0 
L 538 3500 
z
M 538 4863 
L 1656 4863 
L 1656 3950 
L 538 3950 
L 538 4863 
z
" transform="scale(0.015625)"/>
      <path id="DejaVuSans-Bold-6e" d="M 4056 2131 
L 4056 0 
L 2931 0 
L 2931 347 
L 2931 1631 
Q 2931 2084 2911 2256 
Q 2891 2428 2841 2509 
Q 2775 2619 2662 2680 
Q 2550 2741 2406 2741 
Q 2056 2741 1856 2470 
Q 1656 2200 1656 1722 
L 1656 0 
L 538 0 
L 538 3500 
L 1656 3500 
L 1656 2988 
Q 1909 3294 2193 3439 
Q 2478 3584 2822 3584 
Q 3428 3584 3742 3212 
Q 4056 2841 4056 2131 
z
" transform="scale(0.015625)"/>
      <path id="DejaVuSans-Bold-6c" d="M 538 4863 
L 1656 4863 
L 1656 0 
L 538 0 
L 538 4863 
z
" transform="scale(0.015625)"/>
      <path id="DejaVuSans-Bold-65" d="M 4031 1759 
L 4031 1441 
L 1416 1441 
Q 1456 1047 1700 850 
Q 1944 653 2381 653 
Q 2734 653 3104 758 
Q 3475 863 3866 1075 
L 3866 213 
Q 3469 63 3072 -14 
Q 2675 -91 2278 -91 
Q 1328 -91 801 392 
Q 275 875 275 1747 
Q 275 2603 792 3093 
Q 1309 3584 2216 3584 
Q 3041 3584 3536 3087 
Q 4031 2591 4031 1759 
z
M 2881 2131 
Q 2881 2450 2695 2645 
Q 2509 2841 2209 2841 
Q 1884 2841 1681 2658 
Q 1478 2475 1428 2131 
L 2881 2131 
z
" transform="scale(0.015625)"/>
      <path id="DejaVuSans-Bold-73" d="M 3272 3391 
L 3272 2541 
Q 2913 2691 2578 2766 
Q 2244 2841 1947 2841 
Q 1628 2841 1473 2761 
Q 1319 2681 1319 2516 
Q 1319 2381 1436 2309 
Q 1553 2238 1856 2203 
L 2053 2175 
Q 2913 2066 3209 1816 
Q 3506 1566 3506 1031 
Q 3506 472 3093 190 
Q 2681 -91 1863 -91 
Q 1516 -91 1145 -36 
Q 775 19 384 128 
L 384 978 
Q 719 816 1070 734 
Q 1422 653 1784 653 
Q 2113 653 2278 743 
Q 2444 834 2444 1013 
Q 2444 1163 2330 1236 
Q 2216 1309 1875 1350 
L 1678 1375 
Q 931 1469 631 1722 
Q 331 1975 331 2491 
Q 331 3047 712 3315 
Q 1094 3584 1881 3584 
Q 2191 3584 2531 3537 
Q 2872 3491 3272 3391 
z
" transform="scale(0.015625)"/>
      <path id="DejaVuSans-Bold-7c" d="M 1522 4891 
L 1522 -1509 
L 813 -1509 
L 813 4891 
L 1522 4891 
z
" transform="scale(0.015625)"/>
      <path id="DejaVuSans-Bold-63" d="M 3366 3391 
L 3366 2478 
Q 3138 2634 2908 2709 
Q 2678 2784 2431 2784 
Q 1963 2784 1702 2511 
Q 1441 2238 1441 1747 
Q 1441 1256 1702 982 
Q 1963 709 2431 709 
Q 2694 709 2930 787 
Q 3166 866 3366 1019 
L 3366 103 
Q 3103 6 2833 -42 
Q 2563 -91 2291 -91 
Q 1344 -91 809 395 
Q 275 881 275 1747 
Q 275 2613 809 3098 
Q 1344 3584 2291 3584 
Q 2566 3584 2833 3536 
Q 3100 3488 3366 3391 
z
" transform="scale(0.015625)"/>
      <path id="DejaVuSans-Bold-3a" d="M 716 3500 
L 1844 3500 
L 1844 2291 
L 716 2291 
L 716 3500 
z
M 716 1209 
L 1844 1209 
L 1844 0 
L 716 0 
L 716 1209 
z
" transform="scale(0.015625)"/>
     </defs>
     <use xlink:href="#DejaVuSans-Bold-34"/>
     <use xlink:href="#DejaVuSans-Bold-6d" x="69.580078"/>
     <use xlink:href="#DejaVuSans-Bold-6d" x="173.779297"/>
     <use xlink:href="#DejaVuSans-Bold-20" x="277.978516"/>
     <use xlink:href="#DejaVuSans-Bold-53" x="312.792969"/>
     <use xlink:href="#DejaVuSans-Bold-74" x="384.814453"/>
     <use xlink:href="#DejaVuSans-Bold-61" x="432.617188"/>
     <use xlink:href="#DejaVuSans-Bold-69" x="500.097656"/>
     <use xlink:href="#DejaVuSans-Bold-6e" x="534.375"/>
     <use xlink:href="#DejaVuSans-Bold-6c" x="605.566406"/>
     <use xlink:href="#DejaVuSans-Bold-65" x="639.84375"/>
     <use xlink:href="#DejaVuSans-Bold-73" x="707.666016"/>
     <use xlink:href="#DejaVuSans-Bold-73" x="767.1875"/>
     <use xlink:href="#DejaVuSans-Bold-20" x="826.708984"/>
     <use xlink:href="#DejaVuSans-Bold-53" x="861.523438"/>
     <use xlink:href="#DejaVuSans-Bold-74" x="933.544922"/>
     <use xlink:href="#DejaVuSans-Bold-65" x="981.347656"/>
     <use xlink:href="#DejaVuSans-Bold-65" x="1049.169922"/>
     <use xlink:href="#DejaVuSans-Bold-6c" x="1116.992188"/>
     <use xlink:href="#DejaVuSans-Bold-20" x="1151.269531"/>
     <use xlink:href="#DejaVuSans-Bold-7c" x="1186.083984"/>
     <use xlink:href="#DejaVuSans-Bold-20" x="1222.607422"/>
     <use xlink:href="#DejaVuSans-Bold-53" x="1257.421875"/>
     <use xlink:href="#DejaVuSans-Bold-63" x="1329.443359"/>
     <use xlink:href="#DejaVuSans-Bold-61" x="1388.720703"/>
     <use xlink:href="#DejaVuSans-Bold-6c" x="1456.201172"/>
     <use xlink:href="#DejaVuSans-Bold-65" x="1490.478516"/>
     <use xlink:href="#DejaVuSans-Bold-20" x="1558.300781"/>
     <use xlink:href="#DejaVuSans-Bold-31" x="1593.115234"/>
     <use xlink:href="#DejaVuSans-Bold-3a" x="1662.695312"/>
     <use xlink:href="#DejaVuSans-Bold-32" x="1702.685547"/>
    </g>
   </g>
   <g id="legend_1">
    <g id="patch_25">
     <path d="M 461.980087 120.978875 
L 600.108212 120.978875 
Q 602.108212 120.978875 602.108212 118.978875 
L 602.108212 46.58825 
Q 602.108212 44.58825 600.108212 44.58825 
L 461.980087 44.58825 
Q 459.980087 44.58825 459.980087 46.58825 
L 459.980087 118.978875 
Q 459.980087 120.978875 461.980087 120.978875 
z
" style="fill: #ffffff; opacity: 0.8; stroke: #cccccc; stroke-linejoin: miter"/>
    </g>
    <g id="line2d_42">
     <path d="M 463.980087 52.686687 
L 473.980087 52.686687 
L 483.980087 52.686687 
" style="fill: none; stroke: #000000; stroke-width: 2; stroke-linecap: square"/>
    </g>
    <g id="text_22">
     <!-- U-Arm Profile -->
     <g transform="translate(491.980087 56.186687) scale(0.1 -0.1)">
      <use xlink:href="#DejaVuSans-55"/>
      <use xlink:href="#DejaVuSans-2d" x="73.193359"/>
      <use xlink:href="#DejaVuSans-41" x="107.027344"/>
      <use xlink:href="#DejaVuSans-72" x="175.435547"/>
      <use xlink:href="#DejaVuSans-6d" x="214.798828"/>
      <use xlink:href="#DejaVuSans-20" x="312.210938"/>
      <use xlink:href="#DejaVuSans-50" x="343.998047"/>
      <use xlink:href="#DejaVuSans-72" x="402.550781"/>
      <use xlink:href="#DejaVuSans-6f" x="441.414062"/>
      <use xlink:href="#DejaVuSans-66" x="502.595703"/>
      <use xlink:href="#DejaVuSans-69" x="537.800781"/>
      <use xlink:href="#DejaVuSans-6c" x="565.583984"/>
      <use xlink:href="#DejaVuSans-65" x="593.367188"/>
     </g>
    </g>
    <g id="line2d_43">
     <path d="M 463.980087 67.364812 
L 473.980087 67.364812 
L 483.980087 67.364812 
" style="fill: none; stroke: #000000; stroke-width: 3; stroke-linecap: square"/>
    </g>
    <g id="text_23">
     <!-- Base Plate Edge -->
     <g transform="translate(491.980087 70.864812) scale(0.1 -0.1)">
      <defs>
       <path id="DejaVuSans-42" d="M 1259 2228 
L 1259 519 
L 2272 519 
Q 2781 519 3026 730 
Q 3272 941 3272 1375 
Q 3272 1813 3026 2020 
Q 2781 2228 2272 2228 
L 1259 2228 
z
M 1259 4147 
L 1259 2741 
L 2194 2741 
Q 2656 2741 2882 2914 
Q 3109 3088 3109 3444 
Q 3109 3797 2882 3972 
Q 2656 4147 2194 4147 
L 1259 4147 
z
M 628 4666 
L 2241 4666 
Q 2963 4666 3353 4366 
Q 3744 4066 3744 3513 
Q 3744 3084 3544 2831 
Q 3344 2578 2956 2516 
Q 3422 2416 3680 2098 
Q 3938 1781 3938 1306 
Q 3938 681 3513 340 
Q 3088 0 2303 0 
L 628 0 
L 628 4666 
z
" transform="scale(0.015625)"/>
      </defs>
      <use xlink:href="#DejaVuSans-42"/>
      <use xlink:href="#DejaVuSans-61" x="68.603516"/>
      <use xlink:href="#DejaVuSans-73" x="129.882812"/>
      <use xlink:href="#DejaVuSans-65" x="181.982422"/>
      <use xlink:href="#DejaVuSans-20" x="243.505859"/>
      <use xlink:href="#DejaVuSans-50" x="275.292969"/>
      <use xlink:href="#DejaVuSans-6c" x="335.595703"/>
      <use xlink:href="#DejaVuSans-61" x="363.378906"/>
      <use xlink:href="#DejaVuSans-74" x="424.658203"/>
      <use xlink:href="#DejaVuSans-65" x="463.867188"/>
      <use xlink:href="#DejaVuSans-20" x="525.390625"/>
      <use xlink:href="#DejaVuSans-45" x="557.177734"/>
      <use xlink:href="#DejaVuSans-64" x="620.361328"/>
      <use xlink:href="#DejaVuSans-67" x="683.837891"/>
      <use xlink:href="#DejaVuSans-65" x="747.314453"/>
     </g>
    </g>
    <g id="line2d_44">
     <path d="M 463.980087 82.042937 
L 473.980087 82.042937 
L 483.980087 82.042937 
" style="fill: none; stroke: #ff0000; stroke-width: 1.5; stroke-linecap: square"/>
    </g>
    <g id="text_24">
     <!-- ⌀8 Holes (8x on PCD) -->
     <g transform="translate(491.980087 85.542937) scale(0.1 -0.1)">
      <defs>
       <path id="DejaVuSans-2300" d="M 1925 3272 
Q 2506 3272 2953 2919 
L 3319 3288 
L 3628 2978 
L 3259 2609 
Q 3603 2169 3603 1588 
Q 3603 897 3109 403 
Q 2616 -91 1925 -91 
Q 1350 -91 909 256 
L 541 -113 
L 231 197 
L 597 566 
Q 250 1006 250 1588 
Q 250 2284 744 2778 
Q 1238 3272 1925 3272 
z
M 2638 2606 
Q 2325 2831 1925 2831 
Q 1419 2831 1055 2467 
Q 691 2103 691 1588 
Q 691 1188 913 878 
L 2638 2606 
z
M 1222 572 
Q 1531 350 1925 350 
Q 2434 350 2798 714 
Q 3163 1078 3163 1588 
Q 3163 1988 2947 2294 
L 1222 572 
z
" transform="scale(0.015625)"/>
       <path id="DejaVuSans-48" d="M 628 4666 
L 1259 4666 
L 1259 2753 
L 3553 2753 
L 3553 4666 
L 4184 4666 
L 4184 0 
L 3553 0 
L 3553 2222 
L 1259 2222 
L 1259 0 
L 628 0 
L 628 4666 
z
" transform="scale(0.015625)"/>
       <path id="DejaVuSans-78" d="M 3513 3500 
L 2247 1797 
L 3578 0 
L 2900 0 
L 1881 1375 
L 863 0 
L 184 0 
L 1544 1831 
L 300 3500 
L 978 3500 
L 1906 2253 
L 2834 3500 
L 3513 3500 
z
" transform="scale(0.015625)"/>
      </defs>
      <use xlink:href="#DejaVuSans-2300"/>
      <use xlink:href="#DejaVuSans-38" x="60.205078"/>
      <use xlink:href="#DejaVuSans-20" x="123.828125"/>
      <use xlink:href="#DejaVuSans-48" x="155.615234"/>
      <use xlink:href="#DejaVuSans-6f" x="230.810547"/>
      <use xlink:href="#DejaVuSans-6c" x="291.992188"/>
      <use xlink:href="#DejaVuSans-65" x="319.775391"/>
      <use xlink:href="#DejaVuSans-73" x="381.298828"/>
      <use xlink:href="#DejaVuSans-20" x="433.398438"/>
      <use xlink:href="#DejaVuSans-28" x="465.185547"/>
      <use xlink:href="#DejaVuSans-38" x="504.199219"/>
      <use xlink:href="#DejaVuSans-78" x="567.822266"/>
      <use xlink:href="#DejaVuSans-20" x="627.001953"/>
      <use xlink:href="#DejaVuSans-6f" x="658.789062"/>
      <use xlink:href="#DejaVuSans-6e" x="719.970703"/>
      <use xlink:href="#DejaVuSans-20" x="783.349609"/>
      <use xlink:href="#DejaVuSans-50" x="815.136719"/>
      <use xlink:href="#DejaVuSans-43" x="875.439453"/>
      <use xlink:href="#DejaVuSans-44" x="945.263672"/>
      <use xlink:href="#DejaVuSans-29" x="1022.265625"/>
     </g>
    </g>
    <g id="line2d_45">
     <path d="M 463.980087 96.721062 
L 473.980087 96.721062 
L 483.980087 96.721062 
" style="fill: none; stroke: #0000ff; stroke-width: 1.5; stroke-linecap: square"/>
    </g>
    <g id="text_25">
     <!-- ⌀8 Holes (6x Base) -->
     <g transform="translate(491.980087 100.221062) scale(0.1 -0.1)">
      <use xlink:href="#DejaVuSans-2300"/>
      <use xlink:href="#DejaVuSans-38" x="60.205078"/>
      <use xlink:href="#DejaVuSans-20" x="123.828125"/>
      <use xlink:href="#DejaVuSans-48" x="155.615234"/>
      <use xlink:href="#DejaVuSans-6f" x="230.810547"/>
      <use xlink:href="#DejaVuSans-6c" x="291.992188"/>
      <use xlink:href="#DejaVuSans-65" x="319.775391"/>
      <use xlink:href="#DejaVuSans-73" x="381.298828"/>
      <use xlink:href="#DejaVuSans-20" x="433.398438"/>
      <use xlink:href="#DejaVuSans-28" x="465.185547"/>
      <use xlink:href="#DejaVuSans-36" x="504.199219"/>
      <use xlink:href="#DejaVuSans-78" x="567.822266"/>
      <use xlink:href="#DejaVuSans-20" x="627.001953"/>
      <use xlink:href="#DejaVuSans-42" x="658.789062"/>
      <use xlink:href="#DejaVuSans-61" x="727.392578"/>
      <use xlink:href="#DejaVuSans-73" x="788.671875"/>
      <use xlink:href="#DejaVuSans-65" x="840.771484"/>
      <use xlink:href="#DejaVuSans-29" x="902.294922"/>
     </g>
    </g>
    <g id="line2d_46">
     <path d="M 463.980087 111.399187 
L 473.980087 111.399187 
L 483.980087 111.399187 
" style="fill: none; stroke: #008000; stroke-width: 2; stroke-linecap: square"/>
    </g>
    <g id="text_26">
     <!-- Center Slot -->
     <g transform="translate(491.980087 114.899187) scale(0.1 -0.1)">
      <use xlink:href="#DejaVuSans-43"/>
      <use xlink:href="#DejaVuSans-65" x="69.824219"/>
      <use xlink:href="#DejaVuSans-6e" x="131.347656"/>
      <use xlink:href="#DejaVuSans-74" x="194.726562"/>
      <use xlink:href="#DejaVuSans-65" x="233.935547"/>
      <use xlink:href="#DejaVuSans-72" x="295.458984"/>
      <use xlink:href="#DejaVuSans-20" x="336.572266"/>
      <use xlink:href="#DejaVuSans-53" x="368.359375"/>
      <use xlink:href="#DejaVuSans-6c" x="431.835938"/>
      <use xlink:href="#DejaVuSans-6f" x="459.619141"/>
      <use xlink:href="#DejaVuSans-74" x="520.800781"/>
     </g>
    </g>
   </g>
  </g>
 </g>
 <defs>
  <clipPath id="p31f4fa6fbf">
   <rect x="45.997813" y="39.58825" width="561.1104" height="779.32"/>
  </clipPath>
 </defs>
</svg>
