<?xml version="1.0" encoding="utf-8" standalone="no"?>
<!DOCTYPE svg PUBLIC "-//W3C//DTD SVG 1.1//EN"
  "http://www.w3.org/Graphics/SVG/1.1/DTD/svg11.dtd">
<svg xmlns:xlink="http://www.w3.org/1999/xlink" width="1115.575925pt" height="1152.567277pt" viewBox="0 0 1115.575925 1152.567277" xmlns="http://www.w3.org/2000/svg" version="1.1">
 <metadata>
  <rdf:RDF xmlns:dc="http://purl.org/dc/elements/1.1/" xmlns:cc="http://creativecommons.org/ns#" xmlns:rdf="http://www.w3.org/1999/02/22-rdf-syntax-ns#">
   <cc:Work>
    <dc:type rdf:resource="http://purl.org/dc/dcmitype/StillImage"/>
    <dc:date>2025-08-14T00:53:11.522439</dc:date>
    <dc:format>image/svg+xml</dc:format>
    <dc:creator>
     <cc:Agent>
      <dc:title>Matplotlib v3.6.3, https://matplotlib.org/</dc:title>
     </cc:Agent>
    </dc:creator>
   </cc:Work>
  </rdf:RDF>
 </metadata>
 <defs>
  <style type="text/css">*{stroke-linejoin: round; stroke-linecap: butt}</style>
 </defs>
 <g id="figure_1">
  <g id="patch_1">
   <path d="M 0 1152.567277 
L 1115.575925 1152.567277 
L 1115.575925 0 
L 0 0 
z
" style="fill: #ffffff"/>
  </g>
  <g id="axes_1">
   <g id="patch_2">
    <path d="M 41.667188 1128.689152 
L 1108.375925 1128.689152 
L 1108.375925 61.980414 
L 41.667188 61.980414 
z
" style="fill: #ffffff"/>
   </g>
   <g id="matplotlib.axis_1">
    <g id="xtick_1">
     <g id="line2d_1">
      <path d="M 198.425356 1128.689152 
L 198.425356 61.980414 
" clip-path="url(#p3f6a3edd95)" style="fill: none; stroke: #b0b0b0; stroke-opacity: 0.3; stroke-width: 0.5; stroke-linecap: square"/>
     </g>
     <g id="line2d_2">
      <defs>
       <path id="m267fbf6a94" d="M 0 0 
L 0 3.5 
" style="stroke: #000000; stroke-width: 0.8"/>
      </defs>
      <g>
       <use xlink:href="#m267fbf6a94" x="198.425356" y="1128.689152" style="stroke: #000000; stroke-width: 0.8"/>
      </g>
     </g>
     <g id="text_1">
      <!-- −400 -->
      <g transform="translate(184.691762 1143.28759) scale(0.1 -0.1)">
       <defs>
        <path id="DejaVuSans-2212" d="M 678 2272 
L 4684 2272 
L 4684 1741 
L 678 1741 
L 678 2272 
z
" transform="scale(0.015625)"/>
        <path id="DejaVuSans-34" d="M 2419 4116 
L 825 1625 
L 2419 1625 
L 2419 4116 
z
M 2253 4666 
L 3047 4666 
L 3047 1625 
L 3713 1625 
L 3713 1100 
L 3047 1100 
L 3047 0 
L 2419 0 
L 2419 1100 
L 313 1100 
L 313 1709 
L 2253 4666 
z
" transform="scale(0.015625)"/>
        <path id="DejaVuSans-30" d="M 2034 4250 
Q 1547 4250 1301 3770 
Q 1056 3291 1056 2328 
Q 1056 1369 1301 889 
Q 1547 409 2034 409 
Q 2525 409 2770 889 
Q 3016 1369 3016 2328 
Q 3016 3291 2770 3770 
Q 2525 4250 2034 4250 
z
M 2034 4750 
Q 2819 4750 3233 4129 
Q 3647 3509 3647 2328 
Q 3647 1150 3233 529 
Q 2819 -91 2034 -91 
Q 1250 -91 836 529 
Q 422 1150 422 2328 
Q 422 3509 836 4129 
Q 1250 4750 2034 4750 
z
" transform="scale(0.015625)"/>
       </defs>
       <use xlink:href="#DejaVuSans-2212"/>
       <use xlink:href="#DejaVuSans-34" x="83.789062"/>
       <use xlink:href="#DejaVuSans-30" x="147.412109"/>
       <use xlink:href="#DejaVuSans-30" x="211.035156"/>
      </g>
     </g>
    </g>
    <g id="xtick_2">
     <g id="line2d_3">
      <path d="M 386.723456 1128.689152 
L 386.723456 61.980414 
" clip-path="url(#p3f6a3edd95)" style="fill: none; stroke: #b0b0b0; stroke-opacity: 0.3; stroke-width: 0.5; stroke-linecap: square"/>
     </g>
     <g id="line2d_4">
      <g>
       <use xlink:href="#m267fbf6a94" x="386.723456" y="1128.689152" style="stroke: #000000; stroke-width: 0.8"/>
      </g>
     </g>
     <g id="text_2">
      <!-- −200 -->
      <g transform="translate(372.989862 1143.28759) scale(0.1 -0.1)">
       <defs>
        <path id="DejaVuSans-32" d="M 1228 531 
L 3431 531 
L 3431 0 
L 469 0 
L 469 531 
Q 828 903 1448 1529 
Q 2069 2156 2228 2338 
Q 2531 2678 2651 2914 
Q 2772 3150 2772 3378 
Q 2772 3750 2511 3984 
Q 2250 4219 1831 4219 
Q 1534 4219 1204 4116 
Q 875 4013 500 3803 
L 500 4441 
Q 881 4594 1212 4672 
Q 1544 4750 1819 4750 
Q 2544 4750 2975 4387 
Q 3406 4025 3406 3419 
Q 3406 3131 3298 2873 
Q 3191 2616 2906 2266 
Q 2828 2175 2409 1742 
Q 1991 1309 1228 531 
z
" transform="scale(0.015625)"/>
       </defs>
       <use xlink:href="#DejaVuSans-2212"/>
       <use xlink:href="#DejaVuSans-32" x="83.789062"/>
       <use xlink:href="#DejaVuSans-30" x="147.412109"/>
       <use xlink:href="#DejaVuSans-30" x="211.035156"/>
      </g>
     </g>
    </g>
    <g id="xtick_3">
     <g id="line2d_5">
      <path d="M 575.021556 1128.689152 
L 575.021556 61.980414 
" clip-path="url(#p3f6a3edd95)" style="fill: none; stroke: #b0b0b0; stroke-opacity: 0.3; stroke-width: 0.5; stroke-linecap: square"/>
     </g>
     <g id="line2d_6">
      <g>
       <use xlink:href="#m267fbf6a94" x="575.021556" y="1128.689152" style="stroke: #000000; stroke-width: 0.8"/>
      </g>
     </g>
     <g id="text_3">
      <!-- 0 -->
      <g transform="translate(571.840306 1143.28759) scale(0.1 -0.1)">
       <use xlink:href="#DejaVuSans-30"/>
      </g>
     </g>
    </g>
    <g id="xtick_4">
     <g id="line2d_7">
      <path d="M 763.319657 1128.689152 
L 763.319657 61.980414 
" clip-path="url(#p3f6a3edd95)" style="fill: none; stroke: #b0b0b0; stroke-opacity: 0.3; stroke-width: 0.5; stroke-linecap: square"/>
     </g>
     <g id="line2d_8">
      <g>
       <use xlink:href="#m267fbf6a94" x="763.319657" y="1128.689152" style="stroke: #000000; stroke-width: 0.8"/>
      </g>
     </g>
     <g id="text_4">
      <!-- 200 -->
      <g transform="translate(753.775907 1143.28759) scale(0.1 -0.1)">
       <use xlink:href="#DejaVuSans-32"/>
       <use xlink:href="#DejaVuSans-30" x="63.623047"/>
       <use xlink:href="#DejaVuSans-30" x="127.246094"/>
      </g>
     </g>
    </g>
    <g id="xtick_5">
     <g id="line2d_9">
      <path d="M 951.617757 1128.689152 
L 951.617757 61.980414 
" clip-path="url(#p3f6a3edd95)" style="fill: none; stroke: #b0b0b0; stroke-opacity: 0.3; stroke-width: 0.5; stroke-linecap: square"/>
     </g>
     <g id="line2d_10">
      <g>
       <use xlink:href="#m267fbf6a94" x="951.617757" y="1128.689152" style="stroke: #000000; stroke-width: 0.8"/>
      </g>
     </g>
     <g id="text_5">
      <!-- 400 -->
      <g transform="translate(942.074007 1143.28759) scale(0.1 -0.1)">
       <use xlink:href="#DejaVuSans-34"/>
       <use xlink:href="#DejaVuSans-30" x="63.623047"/>
       <use xlink:href="#DejaVuSans-30" x="127.246094"/>
      </g>
     </g>
    </g>
   </g>
   <g id="matplotlib.axis_2">
    <g id="ytick_1">
     <g id="line2d_11">
      <path d="M 41.667188 971.930984 
L 1108.375925 971.930984 
" clip-path="url(#p3f6a3edd95)" style="fill: none; stroke: #b0b0b0; stroke-opacity: 0.3; stroke-width: 0.5; stroke-linecap: square"/>
     </g>
     <g id="line2d_12">
      <defs>
       <path id="md1d9d51d5e" d="M 0 0 
L -3.5 0 
" style="stroke: #000000; stroke-width: 0.8"/>
      </defs>
      <g>
       <use xlink:href="#md1d9d51d5e" x="41.667188" y="971.930984" style="stroke: #000000; stroke-width: 0.8"/>
      </g>
     </g>
     <g id="text_6">
      <!-- −400 -->
      <g transform="translate(7.2 975.730202) scale(0.1 -0.1)">
       <use xlink:href="#DejaVuSans-2212"/>
       <use xlink:href="#DejaVuSans-34" x="83.789062"/>
       <use xlink:href="#DejaVuSans-30" x="147.412109"/>
       <use xlink:href="#DejaVuSans-30" x="211.035156"/>
      </g>
     </g>
    </g>
    <g id="ytick_2">
     <g id="line2d_13">
      <path d="M 41.667188 783.632883 
L 1108.375925 783.632883 
" clip-path="url(#p3f6a3edd95)" style="fill: none; stroke: #b0b0b0; stroke-opacity: 0.3; stroke-width: 0.5; stroke-linecap: square"/>
     </g>
     <g id="line2d_14">
      <g>
       <use xlink:href="#md1d9d51d5e" x="41.667188" y="783.632883" style="stroke: #000000; stroke-width: 0.8"/>
      </g>
     </g>
     <g id="text_7">
      <!-- −200 -->
      <g transform="translate(7.2 787.432102) scale(0.1 -0.1)">
       <use xlink:href="#DejaVuSans-2212"/>
       <use xlink:href="#DejaVuSans-32" x="83.789062"/>
       <use xlink:href="#DejaVuSans-30" x="147.412109"/>
       <use xlink:href="#DejaVuSans-30" x="211.035156"/>
      </g>
     </g>
    </g>
    <g id="ytick_3">
     <g id="line2d_15">
      <path d="M 41.667188 595.334783 
L 1108.375925 595.334783 
" clip-path="url(#p3f6a3edd95)" style="fill: none; stroke: #b0b0b0; stroke-opacity: 0.3; stroke-width: 0.5; stroke-linecap: square"/>
     </g>
     <g id="line2d_16">
      <g>
       <use xlink:href="#md1d9d51d5e" x="41.667188" y="595.334783" style="stroke: #000000; stroke-width: 0.8"/>
      </g>
     </g>
     <g id="text_8">
      <!-- 0 -->
      <g transform="translate(28.304688 599.134002) scale(0.1 -0.1)">
       <use xlink:href="#DejaVuSans-30"/>
      </g>
     </g>
    </g>
    <g id="ytick_4">
     <g id="line2d_17">
      <path d="M 41.667188 407.036683 
L 1108.375925 407.036683 
" clip-path="url(#p3f6a3edd95)" style="fill: none; stroke: #b0b0b0; stroke-opacity: 0.3; stroke-width: 0.5; stroke-linecap: square"/>
     </g>
     <g id="line2d_18">
      <g>
       <use xlink:href="#md1d9d51d5e" x="41.667188" y="407.036683" style="stroke: #000000; stroke-width: 0.8"/>
      </g>
     </g>
     <g id="text_9">
      <!-- 200 -->
      <g transform="translate(15.579688 410.835902) scale(0.1 -0.1)">
       <use xlink:href="#DejaVuSans-32"/>
       <use xlink:href="#DejaVuSans-30" x="63.623047"/>
       <use xlink:href="#DejaVuSans-30" x="127.246094"/>
      </g>
     </g>
    </g>
    <g id="ytick_5">
     <g id="line2d_19">
      <path d="M 41.667188 218.738583 
L 1108.375925 218.738583 
" clip-path="url(#p3f6a3edd95)" style="fill: none; stroke: #b0b0b0; stroke-opacity: 0.3; stroke-width: 0.5; stroke-linecap: square"/>
     </g>
     <g id="line2d_20">
      <g>
       <use xlink:href="#md1d9d51d5e" x="41.667188" y="218.738583" style="stroke: #000000; stroke-width: 0.8"/>
      </g>
     </g>
     <g id="text_10">
      <!-- 400 -->
      <g transform="translate(15.579688 222.537802) scale(0.1 -0.1)">
       <use xlink:href="#DejaVuSans-34"/>
       <use xlink:href="#DejaVuSans-30" x="63.623047"/>
       <use xlink:href="#DejaVuSans-30" x="127.246094"/>
      </g>
     </g>
    </g>
   </g>
   <g id="patch_3">
    <path d="M 575.021556 609.457141 
C 578.766849 609.457141 582.359249 607.96912 585.007571 605.320798 
C 587.655893 602.672476 589.143914 599.080076 589.143914 595.334783 
C 589.143914 591.58949 587.655893 587.997091 585.007571 585.348768 
C 582.359249 582.700446 578.766849 581.212426 575.021556 581.212426 
C 571.276263 581.212426 567.683864 582.700446 565.035542 585.348768 
C 562.38722 587.997091 560.899199 591.58949 560.899199 595.334783 
C 560.899199 599.080076 562.38722 602.672476 565.035542 605.320798 
C 567.683864 607.96912 571.276263 609.457141 575.021556 609.457141 
L 575.021556 609.457141 
z
" clip-path="url(#p3f6a3edd95)" style="fill: none; stroke: #ffff00; stroke-width: 1.5; stroke-linejoin: miter"/>
   </g>
   <g id="patch_4">
    <path d="M 617.388629 599.100745 
C 618.387374 599.100745 619.345347 598.70394 620.051566 597.997721 
C 620.757785 597.291501 621.154591 596.333528 621.154591 595.334783 
C 621.154591 594.336038 620.757785 593.378065 620.051566 592.671846 
C 619.345347 591.965627 618.387374 591.568821 617.388629 591.568821 
C 616.389884 591.568821 615.431911 591.965627 614.725692 592.671846 
C 614.019472 593.378065 613.622667 594.336038 613.622667 595.334783 
C 613.622667 596.333528 614.019472 597.291501 614.725692 597.997721 
C 615.431911 598.70394 616.389884 599.100745 617.388629 599.100745 
L 617.388629 599.100745 
z
" clip-path="url(#p3f6a3edd95)" style="fill: none; stroke: #ff0000; stroke-width: 1.5; stroke-linejoin: miter"/>
   </g>
   <g id="patch_5">
    <path d="M 604.979601 569.142701 
C 605.978346 569.142701 606.936319 568.745895 607.642538 568.039676 
C 608.348757 567.333457 608.745563 566.375484 608.745563 565.376739 
C 608.745563 564.377994 608.348757 563.420021 607.642538 562.713802 
C 606.936319 562.007582 605.978346 561.610777 604.979601 561.610777 
C 603.980856 561.610777 603.022883 562.007582 602.316663 562.713802 
C 601.610444 563.420021 601.213639 564.377994 601.213639 565.376739 
C 601.213639 566.375484 601.610444 567.333457 602.316663 568.039676 
C 603.022883 568.745895 603.980856 569.142701 604.979601 569.142701 
L 604.979601 569.142701 
z
" clip-path="url(#p3f6a3edd95)" style="fill: none; stroke: #ff0000; stroke-width: 1.5; stroke-linejoin: miter"/>
   </g>
   <g id="patch_6">
    <path d="M 575.021556 556.733673 
C 576.020301 556.733673 576.978274 556.336867 577.684494 555.630648 
C 578.390713 554.924429 578.787518 553.966455 578.787518 552.967711 
C 578.787518 551.968966 578.390713 551.010993 577.684494 550.304773 
C 576.978274 549.598554 576.020301 549.201749 575.021556 549.201749 
C 574.022812 549.201749 573.064838 549.598554 572.358619 550.304773 
C 571.6524 551.010993 571.255594 551.968966 571.255594 552.967711 
C 571.255594 553.966455 571.6524 554.924429 572.358619 555.630648 
C 573.064838 556.336867 574.022812 556.733673 575.021556 556.733673 
L 575.021556 556.733673 
z
" clip-path="url(#p3f6a3edd95)" style="fill: none; stroke: #ff0000; stroke-width: 1.5; stroke-linejoin: miter"/>
   </g>
   <g id="patch_7">
    <path d="M 545.063512 569.142701 
C 546.062257 569.142701 547.02023 568.745895 547.726449 568.039676 
C 548.432669 567.333457 548.829474 566.375484 548.829474 565.376739 
C 548.829474 564.377994 548.432669 563.420021 547.726449 562.713802 
C 547.02023 562.007582 546.062257 561.610777 545.063512 561.610777 
C 544.064767 561.610777 543.106794 562.007582 542.400575 562.713802 
C 541.694356 563.420021 541.29755 564.377994 541.29755 565.376739 
C 541.29755 566.375484 541.694356 567.333457 542.400575 568.039676 
C 543.106794 568.745895 544.064767 569.142701 545.063512 569.142701 
L 545.063512 569.142701 
z
" clip-path="url(#p3f6a3edd95)" style="fill: none; stroke: #ff0000; stroke-width: 1.5; stroke-linejoin: miter"/>
   </g>
   <g id="patch_8">
    <path d="M 532.654484 599.100745 
C 533.653229 599.100745 534.611202 598.70394 535.317421 597.997721 
C 536.02364 597.291501 536.420446 596.333528 536.420446 595.334783 
C 536.420446 594.336038 536.02364 593.378065 535.317421 592.671846 
C 534.611202 591.965627 533.653229 591.568821 532.654484 591.568821 
C 531.655739 591.568821 530.697766 591.965627 529.991547 592.671846 
C 529.285327 593.378065 528.888522 594.336038 528.888522 595.334783 
C 528.888522 596.333528 529.285327 597.291501 529.991547 597.997721 
C 530.697766 598.70394 531.655739 599.100745 532.654484 599.100745 
L 532.654484 599.100745 
z
" clip-path="url(#p3f6a3edd95)" style="fill: none; stroke: #ff0000; stroke-width: 1.5; stroke-linejoin: miter"/>
   </g>
   <g id="patch_9">
    <path d="M 545.063512 629.05879 
C 546.062257 629.05879 547.02023 628.661984 547.726449 627.955765 
C 548.432669 627.249546 548.829474 626.291572 548.829474 625.292828 
C 548.829474 624.294083 548.432669 623.336109 547.726449 622.62989 
C 547.02023 621.923671 546.062257 621.526866 545.063512 621.526866 
C 544.064767 621.526866 543.106794 621.923671 542.400575 622.62989 
C 541.694356 623.336109 541.29755 624.294083 541.29755 625.292828 
C 541.29755 626.291572 541.694356 627.249546 542.400575 627.955765 
C 543.106794 628.661984 544.064767 629.05879 545.063512 629.05879 
L 545.063512 629.05879 
z
" clip-path="url(#p3f6a3edd95)" style="fill: none; stroke: #ff0000; stroke-width: 1.5; stroke-linejoin: miter"/>
   </g>
   <g id="patch_10">
    <path d="M 575.021556 641.467818 
C 576.020301 641.467818 576.978274 641.071012 577.684494 640.364793 
C 578.390713 639.658574 578.787518 638.700601 578.787518 637.701856 
C 578.787518 636.703111 578.390713 635.745138 577.684494 635.038919 
C 576.978274 634.332699 576.020301 633.935894 575.021556 633.935894 
C 574.022812 633.935894 573.064838 634.332699 572.358619 635.038919 
C 571.6524 635.745138 571.255594 636.703111 571.255594 637.701856 
C 571.255594 638.700601 571.6524 639.658574 572.358619 640.364793 
C 573.064838 641.071012 574.022812 641.467818 575.021556 641.467818 
L 575.021556 641.467818 
z
" clip-path="url(#p3f6a3edd95)" style="fill: none; stroke: #ff0000; stroke-width: 1.5; stroke-linejoin: miter"/>
   </g>
   <g id="patch_11">
    <path d="M 604.979601 629.05879 
C 605.978346 629.05879 606.936319 628.661984 607.642538 627.955765 
C 608.348757 627.249546 608.745563 626.291572 608.745563 625.292828 
C 608.745563 624.294083 608.348757 623.336109 607.642538 622.62989 
C 606.936319 621.923671 605.978346 621.526866 604.979601 621.526866 
C 603.980856 621.526866 603.022883 621.923671 602.316663 622.62989 
C 601.610444 623.336109 601.213639 624.294083 601.213639 625.292828 
C 601.213639 626.291572 601.610444 627.249546 602.316663 627.955765 
C 603.022883 628.661984 603.980856 629.05879 604.979601 629.05879 
L 604.979601 629.05879 
z
" clip-path="url(#p3f6a3edd95)" style="fill: none; stroke: #ff0000; stroke-width: 1.5; stroke-linejoin: miter"/>
   </g>
   <g id="patch_12">
    <path d="M 1026.936997 599.100745 
C 1027.935742 599.100745 1028.893715 598.70394 1029.599934 597.997721 
C 1030.306154 597.291501 1030.702959 596.333528 1030.702959 595.334783 
C 1030.702959 594.336038 1030.306154 593.378065 1029.599934 592.671846 
C 1028.893715 591.965627 1027.935742 591.568821 1026.936997 591.568821 
C 1025.938252 591.568821 1024.980279 591.965627 1024.27406 592.671846 
C 1023.567841 593.378065 1023.171035 594.336038 1023.171035 595.334783 
C 1023.171035 596.333528 1023.567841 597.291501 1024.27406 597.997721 
C 1024.980279 598.70394 1025.938252 599.100745 1026.936997 599.100745 
L 1026.936997 599.100745 
z
" clip-path="url(#p3f6a3edd95)" style="fill: none; stroke: #ff6600; stroke-width: 1.5; stroke-linejoin: miter"/>
   </g>
   <g id="patch_13">
    <path d="M 575.021556 147.185305 
C 576.020301 147.185305 576.978274 146.788499 577.684494 146.08228 
C 578.390713 145.376061 578.787518 144.418087 578.787518 143.419343 
C 578.787518 142.420598 578.390713 141.462625 577.684494 140.756405 
C 576.978274 140.050186 576.020301 139.653381 575.021556 139.653381 
C 574.022812 139.653381 573.064838 140.050186 572.358619 140.756405 
C 571.6524 141.462625 571.255594 142.420598 571.255594 143.419343 
C 571.255594 144.418087 571.6524 145.376061 572.358619 146.08228 
C 573.064838 146.788499 574.022812 147.185305 575.021556 147.185305 
L 575.021556 147.185305 
z
" clip-path="url(#p3f6a3edd95)" style="fill: none; stroke: #ff6600; stroke-width: 1.5; stroke-linejoin: miter"/>
   </g>
   <g id="patch_14">
    <path d="M 123.106116 599.100745 
C 124.104861 599.100745 125.062834 598.70394 125.769053 597.997721 
C 126.475272 597.291501 126.872078 596.333528 126.872078 595.334783 
C 126.872078 594.336038 126.475272 593.378065 125.769053 592.671846 
C 125.062834 591.965627 124.104861 591.568821 123.106116 591.568821 
C 122.107371 591.568821 121.149398 591.965627 120.443179 592.671846 
C 119.736959 593.378065 119.340154 594.336038 119.340154 595.334783 
C 119.340154 596.333528 119.736959 597.291501 120.443179 597.997721 
C 121.149398 598.70394 122.107371 599.100745 123.106116 599.100745 
L 123.106116 599.100745 
z
" clip-path="url(#p3f6a3edd95)" style="fill: none; stroke: #ff6600; stroke-width: 1.5; stroke-linejoin: miter"/>
   </g>
   <g id="patch_15">
    <path d="M 575.021556 1051.016186 
C 576.020301 1051.016186 576.978274 1050.61938 577.684494 1049.913161 
C 578.390713 1049.206942 578.787518 1048.248969 578.787518 1047.250224 
C 578.787518 1046.251479 578.390713 1045.293506 577.684494 1044.587287 
C 576.978274 1043.881067 576.020301 1043.484262 575.021556 1043.484262 
C 574.022812 1043.484262 573.064838 1043.881067 572.358619 1044.587287 
C 571.6524 1045.293506 571.255594 1046.251479 571.255594 1047.250224 
C 571.255594 1048.248969 571.6524 1049.206942 572.358619 1049.913161 
C 573.064838 1050.61938 574.022812 1051.016186 575.021556 1051.016186 
L 575.021556 1051.016186 
z
" clip-path="url(#p3f6a3edd95)" style="fill: none; stroke: #ff6600; stroke-width: 1.5; stroke-linejoin: miter"/>
   </g>
   <g id="patch_16">
    <path d="M 575.021556 1080.202391 
C 703.609949 1080.202391 826.949006 1029.113681 917.87473 938.187957 
C 1008.800455 847.262232 1059.889165 723.923176 1059.889165 595.334783 
C 1059.889165 466.74639 1008.800455 343.407334 917.87473 252.48161 
C 826.949006 161.555885 703.609949 110.467175 575.021556 110.467175 
C 446.433164 110.467175 323.094107 161.555885 232.168383 252.48161 
C 141.242658 343.407334 90.153948 466.74639 90.153948 595.334783 
C 90.153948 723.923176 141.242658 847.262232 232.168383 938.187957 
C 323.094107 1029.113681 446.433164 1080.202391 575.021556 1080.202391 
L 575.021556 1080.202391 
z
" clip-path="url(#p3f6a3edd95)" style="fill: none; stroke-dasharray: 7.4,3.2; stroke-dashoffset: 0; stroke: #0066cc; stroke-width: 2; stroke-linejoin: miter"/>
   </g>
   <g id="patch_17">
    <path d="M 575.021556 1070.787486 
C 701.113087 1070.787486 822.05721 1020.69079 911.217387 931.530614 
C 1000.377563 842.370437 1050.47426 721.426314 1050.47426 595.334783 
C 1050.47426 469.243252 1000.377563 348.299129 911.217387 259.138953 
C 822.05721 169.978776 701.113087 119.88208 575.021556 119.88208 
C 448.930026 119.88208 327.985902 169.978776 238.825726 259.138953 
C 149.665549 348.299129 99.568853 469.243252 99.568853 595.334783 
C 99.568853 721.426314 149.665549 842.370437 238.825726 931.530614 
C 327.985902 1020.69079 448.930026 1070.787486 575.021556 1070.787486 
L 575.021556 1070.787486 
z
" clip-path="url(#p3f6a3edd95)" style="fill: none; stroke-dasharray: 7.4,3.2; stroke-dashoffset: 0; stroke: #0066cc; stroke-width: 2; stroke-linejoin: miter"/>
   </g>
   <g id="patch_18">
    <path d="M 575.021556 637.701856 
C 586.257435 637.701856 597.034635 633.237794 604.979601 625.292828 
C 612.924567 617.347861 617.388629 606.570662 617.388629 595.334783 
C 617.388629 584.098904 612.924567 573.321705 604.979601 565.376739 
C 597.034635 557.431773 586.257435 552.967711 575.021556 552.967711 
C 563.785677 552.967711 553.008478 557.431773 545.063512 565.376739 
C 537.118546 573.321705 532.654484 584.098904 532.654484 595.334783 
C 532.654484 606.570662 537.118546 617.347861 545.063512 625.292828 
C 553.008478 633.237794 563.785677 637.701856 575.021556 637.701856 
L 575.021556 637.701856 
z
" clip-path="url(#p3f6a3edd95)" style="fill: none; opacity: 0.6; stroke-dasharray: 1,1.65; stroke-dashoffset: 0; stroke: #00aa00; stroke-linejoin: miter"/>
   </g>
   <g id="patch_19">
    <path d="M 575.021556 1075.494939 
C 702.361518 1075.494939 824.503108 1024.902236 914.546059 934.859285 
C 1004.589009 844.816335 1055.181712 722.674745 1055.181712 595.334783 
C 1055.181712 467.994821 1004.589009 345.853232 914.546059 255.810281 
C 824.503108 165.767331 702.361518 115.174628 575.021556 115.174628 
C 447.681595 115.174628 325.540005 165.767331 235.497054 255.810281 
C 145.454104 345.853232 94.861401 467.994821 94.861401 595.334783 
C 94.861401 722.674745 145.454104 844.816335 235.497054 934.859285 
C 325.540005 1024.902236 447.681595 1075.494939 575.021556 1075.494939 
L 575.021556 1075.494939 
z
" clip-path="url(#p3f6a3edd95)" style="fill: none; opacity: 0.6; stroke-dasharray: 1,1.65; stroke-dashoffset: 0; stroke: #00aa00; stroke-linejoin: miter"/>
   </g>
   <g id="line2d_21">
    <path d="M 810.394182 595.334783 
L 809.9203 580.406529 
L 808.500565 565.538385 
L 806.140692 550.790221 
L 802.850183 536.221422 
L 798.64229 521.890652 
L 793.533954 507.855615 
L 787.545746 494.172826 
L 780.701778 480.897381 
L 773.029609 468.082735 
L 764.560131 455.780487 
L 755.327448 444.040176 
L 745.368737 432.909075 
L 734.724098 422.432004 
L 723.436393 412.651152 
L 711.551074 403.605903 
L 699.115999 395.332678 
L 686.181239 387.864791 
L 672.798879 381.232312 
L 659.022803 375.461949 
L 644.908485 370.576936 
L 630.512756 366.596943 
L 615.893584 363.537997 
L 601.109835 361.412415 
L 586.221037 360.228755 
L 571.287143 359.991785 
L 556.368286 360.702458 
L 541.524539 362.357912 
L 526.815673 364.951482 
L 512.300915 368.472724 
L 498.038711 372.90746 
L 484.08649 378.237832 
L 470.500432 384.442376 
L 457.335244 391.49611 
L 444.643937 399.370631 
L 432.477614 408.03423 
L 420.885266 417.452022 
L 409.913571 427.586085 
L 399.606706 438.395613 
L 390.006176 449.83708 
L 381.150637 461.864414 
L 373.075748 474.429187 
L 365.814023 487.480804 
L 359.394704 500.966711 
L 353.843637 514.832604 
L 349.183176 529.022652 
L 345.432087 543.479715 
L 342.605473 558.14558 
L 340.714717 572.961193 
L 339.767431 587.866896 
L 339.767431 602.80267 
L 340.714717 617.708374 
L 342.605473 632.523987 
L 345.432087 647.189852 
L 349.183176 661.646915 
L 353.843637 675.836962 
L 359.394704 689.702856 
L 365.814023 703.188763 
L 373.075748 716.240379 
L 381.150637 728.805152 
L 390.006176 740.832487 
L 399.606706 752.273953 
L 409.913571 763.083481 
L 420.885266 773.217545 
L 432.477614 782.635337 
L 444.643937 791.298936 
L 457.335244 799.173456 
L 470.500432 806.22719 
L 484.08649 812.431735 
L 498.038711 817.762107 
L 512.300915 822.196842 
L 526.815673 825.718085 
L 541.524539 828.311655 
L 556.368286 829.967109 
L 571.287143 830.677782 
L 586.221037 830.440811 
L 601.109835 829.257152 
L 615.893584 827.131569 
L 630.512756 824.072623 
L 644.908485 820.092631 
L 659.022803 815.207618 
L 672.798879 809.437254 
L 686.181239 802.804775 
L 699.115999 795.336888 
L 711.551074 787.063664 
L 723.436393 778.018414 
L 734.724098 768.237562 
L 745.368737 757.760492 
L 755.327448 746.62939 
L 764.560131 734.889079 
L 773.029609 722.586832 
L 780.701778 709.772185 
L 787.545746 696.49674 
L 793.533954 682.813951 
L 798.64229 668.778915 
L 802.850183 654.448144 
L 806.140692 639.879345 
L 808.500565 625.131181 
L 809.9203 610.263038 
L 810.394182 595.334783 
" clip-path="url(#p3f6a3edd95)" style="fill: none; stroke: #000000; stroke-width: 2; stroke-linecap: square"/>
   </g>
   <g id="line2d_22">
    <path d="M 810.394182 571.797521 
L 1050.47426 548.260258 
" clip-path="url(#p3f6a3edd95)" style="fill: none; stroke: #000000; stroke-width: 2; stroke-linecap: round"/>
   </g>
   <g id="line2d_23">
    <path d="M 1050.47426 642.409308 
L 810.394182 618.872046 
" clip-path="url(#p3f6a3edd95)" style="fill: none; stroke: #000000; stroke-width: 2; stroke-linecap: round"/>
   </g>
   <g id="line2d_24">
    <path d="M 551.484294 359.962158 
L 527.947031 119.88208 
" clip-path="url(#p3f6a3edd95)" style="fill: none; stroke: #000000; stroke-width: 2; stroke-linecap: round"/>
   </g>
   <g id="line2d_25">
    <path d="M 622.096081 119.88208 
L 598.558819 359.962158 
" clip-path="url(#p3f6a3edd95)" style="fill: none; stroke: #000000; stroke-width: 2; stroke-linecap: round"/>
   </g>
   <g id="line2d_26">
    <path d="M 339.648931 618.872046 
L 99.568853 642.409308 
" clip-path="url(#p3f6a3edd95)" style="fill: none; stroke: #000000; stroke-width: 2; stroke-linecap: round"/>
   </g>
   <g id="line2d_27">
    <path d="M 99.568853 548.260258 
L 339.648931 571.797521 
" clip-path="url(#p3f6a3edd95)" style="fill: none; stroke: #000000; stroke-width: 2; stroke-linecap: round"/>
   </g>
   <g id="line2d_28">
    <path d="M 598.558819 830.707409 
L 622.096081 1070.787486 
" clip-path="url(#p3f6a3edd95)" style="fill: none; stroke: #000000; stroke-width: 2; stroke-linecap: round"/>
   </g>
   <g id="line2d_29">
    <path d="M 527.947031 1070.787486 
L 551.484294 830.707409 
" clip-path="url(#p3f6a3edd95)" style="fill: none; stroke: #000000; stroke-width: 2; stroke-linecap: round"/>
   </g>
   <g id="line2d_30">
    <defs>
     <path id="me949a3abdb" d="M 0 1 
C 0.265203 1 0.51958 0.894634 0.707107 0.707107 
C 0.894634 0.51958 1 0.265203 1 0 
C 1 -0.265203 0.894634 -0.51958 0.707107 -0.707107 
C 0.51958 -0.894634 0.265203 -1 0 -1 
C -0.265203 -1 -0.51958 -0.894634 -0.707107 -0.707107 
C -0.894634 -0.51958 -1 -0.265203 -1 0 
C -1 0.265203 -0.894634 0.51958 -0.707107 0.707107 
C -0.51958 0.894634 -0.265203 1 0 1 
z
" style="stroke: #ffff00"/>
    </defs>
    <g clip-path="url(#p3f6a3edd95)">
     <use xlink:href="#me949a3abdb" x="575.021556" y="595.334783" style="fill: #ffff00; stroke: #ffff00"/>
    </g>
   </g>
   <g id="line2d_31">
    <defs>
     <path id="ma70a9b967e" d="M 0 1 
C 0.265203 1 0.51958 0.894634 0.707107 0.707107 
C 0.894634 0.51958 1 0.265203 1 0 
C 1 -0.265203 0.894634 -0.51958 0.707107 -0.707107 
C 0.51958 -0.894634 0.265203 -1 0 -1 
C -0.265203 -1 -0.51958 -0.894634 -0.707107 -0.707107 
C -0.894634 -0.51958 -1 -0.265203 -1 0 
C -1 0.265203 -0.894634 0.51958 -0.707107 0.707107 
C -0.51958 0.894634 -0.265203 1 0 1 
z
" style="stroke: #ff0000"/>
    </defs>
    <g clip-path="url(#p3f6a3edd95)">
     <use xlink:href="#ma70a9b967e" x="617.388629" y="595.334783" style="fill: #ff0000; stroke: #ff0000"/>
    </g>
   </g>
   <g id="line2d_32">
    <defs>
     <path id="m87a7fede2e" d="M 0 1 
C 0.265203 1 0.51958 0.894634 0.707107 0.707107 
C 0.894634 0.51958 1 0.265203 1 0 
C 1 -0.265203 0.894634 -0.51958 0.707107 -0.707107 
C 0.51958 -0.894634 0.265203 -1 0 -1 
C -0.265203 -1 -0.51958 -0.894634 -0.707107 -0.707107 
C -0.894634 -0.51958 -1 -0.265203 -1 0 
C -1 0.265203 -0.894634 0.51958 -0.707107 0.707107 
C -0.51958 0.894634 -0.265203 1 0 1 
z
" style="stroke: #ff6600"/>
    </defs>
    <g clip-path="url(#p3f6a3edd95)">
     <use xlink:href="#m87a7fede2e" x="1026.936997" y="595.334783" style="fill: #ff6600; stroke: #ff6600"/>
    </g>
   </g>
   <g id="line2d_33">
    <path d="M 148.338061 595.334783 
L 1001.705052 595.334783 
" clip-path="url(#p3f6a3edd95)" style="fill: none; stroke-dasharray: 6.4,1.6,1,1.6; stroke-dashoffset: 0; stroke: #666666; stroke-opacity: 0.5"/>
   </g>
   <g id="line2d_34">
    <path d="M 575.021556 595.334783 
L 962.915643 595.334783 
" clip-path="url(#p3f6a3edd95)" style="fill: none; stroke-dasharray: 6.4,1.6,1,1.6; stroke-dashoffset: 0; stroke: #666666; stroke-opacity: 0.5"/>
   </g>
   <g id="line2d_35">
    <path d="M 575.021556 595.334783 
L 187.12747 595.334783 
" clip-path="url(#p3f6a3edd95)" style="fill: none; stroke-dasharray: 6.4,1.6,1,1.6; stroke-dashoffset: 0; stroke: #666666; stroke-opacity: 0.5"/>
   </g>
   <g id="patch_20">
    <path d="M 41.667188 1128.689152 
L 41.667188 61.980414 
" style="fill: none; stroke: #000000; stroke-width: 0.8; stroke-linejoin: miter; stroke-linecap: square"/>
   </g>
   <g id="patch_21">
    <path d="M 1108.375925 1128.689152 
L 1108.375925 61.980414 
" style="fill: none; stroke: #000000; stroke-width: 0.8; stroke-linejoin: miter; stroke-linecap: square"/>
   </g>
   <g id="patch_22">
    <path d="M 41.667187 1128.689152 
L 1108.375925 1128.689152 
" style="fill: none; stroke: #000000; stroke-width: 0.8; stroke-linejoin: miter; stroke-linecap: square"/>
   </g>
   <g id="patch_23">
    <path d="M 41.667187 61.980414 
L 1108.375925 61.980414 
" style="fill: none; stroke: #000000; stroke-width: 0.8; stroke-linejoin: miter; stroke-linecap: square"/>
   </g>
   <g id="patch_24">
    <path d="M 906.75758 553.141657 
Q 859.491933 573.837123 813.250448 594.084155 
" style="fill: none; stroke: #000000; stroke-linecap: round"/>
    <path d="M 817.716783 594.311866 
L 813.250448 594.084155 
L 816.112418 590.647714 
" style="fill: none; stroke: #000000; stroke-linecap: round"/>
   </g>
   <g id="text_11">
    <!-- R250.0 -->
    <g transform="translate(904.543232 548.260258) scale(0.1 -0.1)">
     <defs>
      <path id="DejaVuSans-Bold-52" d="M 2297 2597 
Q 2675 2597 2839 2737 
Q 3003 2878 3003 3200 
Q 3003 3519 2839 3656 
Q 2675 3794 2297 3794 
L 1791 3794 
L 1791 2597 
L 2297 2597 
z
M 1791 1766 
L 1791 0 
L 588 0 
L 588 4666 
L 2425 4666 
Q 3347 4666 3776 4356 
Q 4206 4047 4206 3378 
Q 4206 2916 3982 2619 
Q 3759 2322 3309 2181 
Q 3556 2125 3751 1926 
Q 3947 1728 4147 1325 
L 4800 0 
L 3519 0 
L 2950 1159 
Q 2778 1509 2601 1637 
Q 2425 1766 2131 1766 
L 1791 1766 
z
" transform="scale(0.015625)"/>
      <path id="DejaVuSans-Bold-32" d="M 1844 884 
L 3897 884 
L 3897 0 
L 506 0 
L 506 884 
L 2209 2388 
Q 2438 2594 2547 2791 
Q 2656 2988 2656 3200 
Q 2656 3528 2436 3728 
Q 2216 3928 1850 3928 
Q 1569 3928 1234 3808 
Q 900 3688 519 3450 
L 519 4475 
Q 925 4609 1322 4679 
Q 1719 4750 2100 4750 
Q 2938 4750 3402 4381 
Q 3866 4013 3866 3353 
Q 3866 2972 3669 2642 
Q 3472 2313 2841 1759 
L 1844 884 
z
" transform="scale(0.015625)"/>
      <path id="DejaVuSans-Bold-35" d="M 678 4666 
L 3669 4666 
L 3669 3781 
L 1638 3781 
L 1638 3059 
Q 1775 3097 1914 3117 
Q 2053 3138 2203 3138 
Q 3056 3138 3531 2711 
Q 4006 2284 4006 1522 
Q 4006 766 3489 337 
Q 2972 -91 2053 -91 
Q 1656 -91 1267 -14 
Q 878 63 494 219 
L 494 1166 
Q 875 947 1217 837 
Q 1559 728 1863 728 
Q 2300 728 2551 942 
Q 2803 1156 2803 1522 
Q 2803 1891 2551 2103 
Q 2300 2316 1863 2316 
Q 1603 2316 1309 2248 
Q 1016 2181 678 2041 
L 678 4666 
z
" transform="scale(0.015625)"/>
      <path id="DejaVuSans-Bold-30" d="M 2944 2338 
Q 2944 3213 2780 3570 
Q 2616 3928 2228 3928 
Q 1841 3928 1675 3570 
Q 1509 3213 1509 2338 
Q 1509 1453 1675 1090 
Q 1841 728 2228 728 
Q 2613 728 2778 1090 
Q 2944 1453 2944 2338 
z
M 4147 2328 
Q 4147 1169 3647 539 
Q 3147 -91 2228 -91 
Q 1306 -91 806 539 
Q 306 1169 306 2328 
Q 306 3491 806 4120 
Q 1306 4750 2228 4750 
Q 3147 4750 3647 4120 
Q 4147 3491 4147 2328 
z
" transform="scale(0.015625)"/>
      <path id="DejaVuSans-Bold-2e" d="M 653 1209 
L 1778 1209 
L 1778 0 
L 653 0 
L 653 1209 
z
" transform="scale(0.015625)"/>
     </defs>
     <use xlink:href="#DejaVuSans-Bold-52"/>
     <use xlink:href="#DejaVuSans-Bold-32" x="77.001953"/>
     <use xlink:href="#DejaVuSans-Bold-35" x="146.582031"/>
     <use xlink:href="#DejaVuSans-Bold-30" x="216.162109"/>
     <use xlink:href="#DejaVuSans-Bold-2e" x="285.742188"/>
     <use xlink:href="#DejaVuSans-Bold-30" x="323.730469"/>
    </g>
   </g>
   <g id="patch_25">
    <path d="M 708.71562 21.915422 
Q 642.702952 65.638661 577.622399 108.744517 
" style="fill: none; stroke: #000000; stroke-linecap: round"/>
    <path d="M 582.949492 108.094839 
L 577.622399 108.744517 
L 580.298913 104.093036 
" style="fill: none; stroke: #000000; stroke-linecap: round"/>
   </g>
   <g id="text_12">
    <!-- ⌀1030 OVERALL -->
    <g transform="translate(669.170607 16.318125) scale(0.12 -0.12)">
     <defs>
      <path id="DejaVuSans-Bold-2300" d="M 1925 3272 
Q 2484 3272 2916 2947 
L 3288 3319 
L 3659 2947 
L 3288 2572 
Q 3603 2147 3603 1588 
Q 3603 897 3113 403 
Q 2616 -91 1925 -91 
Q 1375 -91 944 228 
L 572 -144 
L 200 228 
L 572 600 
Q 250 1028 250 1588 
Q 250 2284 741 2778 
Q 1238 3272 1925 3272 
z
M 2531 2559 
Q 2263 2731 1978 2731 
Q 1459 2731 1122 2397 
Q 788 2063 788 1588 
Q 788 1253 959 988 
L 2531 2559 
z
M 1331 616 
Q 1597 450 1878 450 
Q 2394 450 2731 784 
Q 3066 1119 3066 1588 
Q 3066 1922 2900 2184 
L 1331 616 
z
" transform="scale(0.015625)"/>
      <path id="DejaVuSans-Bold-31" d="M 750 831 
L 1813 831 
L 1813 3847 
L 722 3622 
L 722 4441 
L 1806 4666 
L 2950 4666 
L 2950 831 
L 4013 831 
L 4013 0 
L 750 0 
L 750 831 
z
" transform="scale(0.015625)"/>
      <path id="DejaVuSans-Bold-33" d="M 2981 2516 
Q 3453 2394 3698 2092 
Q 3944 1791 3944 1325 
Q 3944 631 3412 270 
Q 2881 -91 1863 -91 
Q 1503 -91 1142 -33 
Q 781 25 428 141 
L 428 1069 
Q 766 900 1098 814 
Q 1431 728 1753 728 
Q 2231 728 2486 893 
Q 2741 1059 2741 1369 
Q 2741 1688 2480 1852 
Q 2219 2016 1709 2016 
L 1228 2016 
L 1228 2791 
L 1734 2791 
Q 2188 2791 2409 2933 
Q 2631 3075 2631 3366 
Q 2631 3634 2415 3781 
Q 2200 3928 1806 3928 
Q 1516 3928 1219 3862 
Q 922 3797 628 3669 
L 628 4550 
Q 984 4650 1334 4700 
Q 1684 4750 2022 4750 
Q 2931 4750 3382 4451 
Q 3834 4153 3834 3553 
Q 3834 3144 3618 2883 
Q 3403 2622 2981 2516 
z
" transform="scale(0.015625)"/>
      <path id="DejaVuSans-Bold-20" transform="scale(0.015625)"/>
      <path id="DejaVuSans-Bold-4f" d="M 2719 3878 
Q 2169 3878 1866 3472 
Q 1563 3066 1563 2328 
Q 1563 1594 1866 1187 
Q 2169 781 2719 781 
Q 3272 781 3575 1187 
Q 3878 1594 3878 2328 
Q 3878 3066 3575 3472 
Q 3272 3878 2719 3878 
z
M 2719 4750 
Q 3844 4750 4481 4106 
Q 5119 3463 5119 2328 
Q 5119 1197 4481 553 
Q 3844 -91 2719 -91 
Q 1597 -91 958 553 
Q 319 1197 319 2328 
Q 319 3463 958 4106 
Q 1597 4750 2719 4750 
z
" transform="scale(0.015625)"/>
      <path id="DejaVuSans-Bold-56" d="M 31 4666 
L 1241 4666 
L 2478 1222 
L 3713 4666 
L 4922 4666 
L 3194 0 
L 1759 0 
L 31 4666 
z
" transform="scale(0.015625)"/>
      <path id="DejaVuSans-Bold-45" d="M 588 4666 
L 3834 4666 
L 3834 3756 
L 1791 3756 
L 1791 2888 
L 3713 2888 
L 3713 1978 
L 1791 1978 
L 1791 909 
L 3903 909 
L 3903 0 
L 588 0 
L 588 4666 
z
" transform="scale(0.015625)"/>
      <path id="DejaVuSans-Bold-41" d="M 3419 850 
L 1538 850 
L 1241 0 
L 31 0 
L 1759 4666 
L 3194 4666 
L 4922 0 
L 3713 0 
L 3419 850 
z
M 1838 1716 
L 3116 1716 
L 2478 3572 
L 1838 1716 
z
" transform="scale(0.015625)"/>
      <path id="DejaVuSans-Bold-4c" d="M 588 4666 
L 1791 4666 
L 1791 909 
L 3903 909 
L 3903 0 
L 588 0 
L 588 4666 
z
" transform="scale(0.015625)"/>
     </defs>
     <use xlink:href="#DejaVuSans-Bold-2300"/>
     <use xlink:href="#DejaVuSans-Bold-31" x="60.205078"/>
     <use xlink:href="#DejaVuSans-Bold-30" x="129.785156"/>
     <use xlink:href="#DejaVuSans-Bold-33" x="199.365234"/>
     <use xlink:href="#DejaVuSans-Bold-30" x="268.945312"/>
     <use xlink:href="#DejaVuSans-Bold-20" x="338.525391"/>
     <use xlink:href="#DejaVuSans-Bold-4f" x="373.339844"/>
     <use xlink:href="#DejaVuSans-Bold-56" x="455.724609"/>
     <use xlink:href="#DejaVuSans-Bold-45" x="533.117188"/>
     <use xlink:href="#DejaVuSans-Bold-52" x="601.427734"/>
     <use xlink:href="#DejaVuSans-Bold-41" x="678.429688"/>
     <use xlink:href="#DejaVuSans-Bold-4c" x="755.822266"/>
     <use xlink:href="#DejaVuSans-Bold-4c" x="819.542969"/>
    </g>
   </g>
   <g id="patch_26">
    <path d="M 691.016473 625.521482 
Q 633.987173 610.680088 578.580865 596.261063 
" style="fill: none; stroke: #ffff00; stroke-width: 1.5; stroke-linecap: round"/>
    <path d="M 581.948222 599.204006 
L 578.580865 596.261063 
L 582.955633 595.332944 
" style="fill: none; stroke: #ffff00; stroke-width: 1.5; stroke-linecap: round"/>
   </g>
   <g id="text_13">
    <!-- ⌀30.0 PILOT HOLE -->
    <g style="fill: #ffff00" transform="translate(669.170607 635.622168) scale(0.1 -0.1)">
     <defs>
      <path id="DejaVuSans-Bold-50" d="M 588 4666 
L 2584 4666 
Q 3475 4666 3951 4270 
Q 4428 3875 4428 3144 
Q 4428 2409 3951 2014 
Q 3475 1619 2584 1619 
L 1791 1619 
L 1791 0 
L 588 0 
L 588 4666 
z
M 1791 3794 
L 1791 2491 
L 2456 2491 
Q 2806 2491 2997 2661 
Q 3188 2831 3188 3144 
Q 3188 3456 2997 3625 
Q 2806 3794 2456 3794 
L 1791 3794 
z
" transform="scale(0.015625)"/>
      <path id="DejaVuSans-Bold-49" d="M 588 4666 
L 1791 4666 
L 1791 0 
L 588 0 
L 588 4666 
z
" transform="scale(0.015625)"/>
      <path id="DejaVuSans-Bold-54" d="M 31 4666 
L 4331 4666 
L 4331 3756 
L 2784 3756 
L 2784 0 
L 1581 0 
L 1581 3756 
L 31 3756 
L 31 4666 
z
" transform="scale(0.015625)"/>
      <path id="DejaVuSans-Bold-48" d="M 588 4666 
L 1791 4666 
L 1791 2888 
L 3566 2888 
L 3566 4666 
L 4769 4666 
L 4769 0 
L 3566 0 
L 3566 1978 
L 1791 1978 
L 1791 0 
L 588 0 
L 588 4666 
z
" transform="scale(0.015625)"/>
     </defs>
     <use xlink:href="#DejaVuSans-Bold-2300"/>
     <use xlink:href="#DejaVuSans-Bold-33" x="60.205078"/>
     <use xlink:href="#DejaVuSans-Bold-30" x="129.785156"/>
     <use xlink:href="#DejaVuSans-Bold-2e" x="199.365234"/>
     <use xlink:href="#DejaVuSans-Bold-30" x="237.353516"/>
     <use xlink:href="#DejaVuSans-Bold-20" x="306.933594"/>
     <use xlink:href="#DejaVuSans-Bold-50" x="341.748047"/>
     <use xlink:href="#DejaVuSans-Bold-49" x="415.039062"/>
     <use xlink:href="#DejaVuSans-Bold-4c" x="452.246094"/>
     <use xlink:href="#DejaVuSans-Bold-4f" x="512.341797"/>
     <use xlink:href="#DejaVuSans-Bold-54" x="597.351562"/>
     <use xlink:href="#DejaVuSans-Bold-20" x="665.564453"/>
     <use xlink:href="#DejaVuSans-Bold-48" x="700.378906"/>
     <use xlink:href="#DejaVuSans-Bold-4f" x="784.070312"/>
     <use xlink:href="#DejaVuSans-Bold-4c" x="869.080078"/>
     <use xlink:href="#DejaVuSans-Bold-45" x="932.800781"/>
    </g>
   </g>
   <g id="patch_27">
    <path d="M 686.39943 562.406135 
Q 652.797522 578.439356 620.204665 593.991106 
" style="fill: none; stroke: #0000ff; stroke-linecap: round"/>
    <path d="M 624.228903 594.06534 
L 620.204665 593.991106 
L 622.678596 590.816256 
" style="fill: none; stroke: #0000ff; stroke-linecap: round"/>
   </g>
   <g id="text_14">
    <!-- 8× ⌀8.0 ON ⌀90.0 PCD -->
    <g style="fill: #0000ff" transform="translate(650.340797 557.675163) scale(0.09 -0.09)">
     <defs>
      <path id="DejaVuSans-38" d="M 2034 2216 
Q 1584 2216 1326 1975 
Q 1069 1734 1069 1313 
Q 1069 891 1326 650 
Q 1584 409 2034 409 
Q 2484 409 2743 651 
Q 3003 894 3003 1313 
Q 3003 1734 2745 1975 
Q 2488 2216 2034 2216 
z
M 1403 2484 
Q 997 2584 770 2862 
Q 544 3141 544 3541 
Q 544 4100 942 4425 
Q 1341 4750 2034 4750 
Q 2731 4750 3128 4425 
Q 3525 4100 3525 3541 
Q 3525 3141 3298 2862 
Q 3072 2584 2669 2484 
Q 3125 2378 3379 2068 
Q 3634 1759 3634 1313 
Q 3634 634 3220 271 
Q 2806 -91 2034 -91 
Q 1263 -91 848 271 
Q 434 634 434 1313 
Q 434 1759 690 2068 
Q 947 2378 1403 2484 
z
M 1172 3481 
Q 1172 3119 1398 2916 
Q 1625 2713 2034 2713 
Q 2441 2713 2670 2916 
Q 2900 3119 2900 3481 
Q 2900 3844 2670 4047 
Q 2441 4250 2034 4250 
Q 1625 4250 1398 4047 
Q 1172 3844 1172 3481 
z
" transform="scale(0.015625)"/>
      <path id="DejaVuSans-d7" d="M 4488 3438 
L 3059 2003 
L 4488 575 
L 4116 197 
L 2681 1631 
L 1247 197 
L 878 575 
L 2303 2003 
L 878 3438 
L 1247 3816 
L 2681 2381 
L 4116 3816 
L 4488 3438 
z
" transform="scale(0.015625)"/>
      <path id="DejaVuSans-20" transform="scale(0.015625)"/>
      <path id="DejaVuSans-2300" d="M 1925 3272 
Q 2506 3272 2953 2919 
L 3319 3288 
L 3628 2978 
L 3259 2609 
Q 3603 2169 3603 1588 
Q 3603 897 3109 403 
Q 2616 -91 1925 -91 
Q 1350 -91 909 256 
L 541 -113 
L 231 197 
L 597 566 
Q 250 1006 250 1588 
Q 250 2284 744 2778 
Q 1238 3272 1925 3272 
z
M 2638 2606 
Q 2325 2831 1925 2831 
Q 1419 2831 1055 2467 
Q 691 2103 691 1588 
Q 691 1188 913 878 
L 2638 2606 
z
M 1222 572 
Q 1531 350 1925 350 
Q 2434 350 2798 714 
Q 3163 1078 3163 1588 
Q 3163 1988 2947 2294 
L 1222 572 
z
" transform="scale(0.015625)"/>
      <path id="DejaVuSans-2e" d="M 684 794 
L 1344 794 
L 1344 0 
L 684 0 
L 684 794 
z
" transform="scale(0.015625)"/>
      <path id="DejaVuSans-4f" d="M 2522 4238 
Q 1834 4238 1429 3725 
Q 1025 3213 1025 2328 
Q 1025 1447 1429 934 
Q 1834 422 2522 422 
Q 3209 422 3611 934 
Q 4013 1447 4013 2328 
Q 4013 3213 3611 3725 
Q 3209 4238 2522 4238 
z
M 2522 4750 
Q 3503 4750 4090 4092 
Q 4678 3434 4678 2328 
Q 4678 1225 4090 567 
Q 3503 -91 2522 -91 
Q 1538 -91 948 565 
Q 359 1222 359 2328 
Q 359 3434 948 4092 
Q 1538 4750 2522 4750 
z
" transform="scale(0.015625)"/>
      <path id="DejaVuSans-4e" d="M 628 4666 
L 1478 4666 
L 3547 763 
L 3547 4666 
L 4159 4666 
L 4159 0 
L 3309 0 
L 1241 3903 
L 1241 0 
L 628 0 
L 628 4666 
z
" transform="scale(0.015625)"/>
      <path id="DejaVuSans-39" d="M 703 97 
L 703 672 
Q 941 559 1184 500 
Q 1428 441 1663 441 
Q 2288 441 2617 861 
Q 2947 1281 2994 2138 
Q 2813 1869 2534 1725 
Q 2256 1581 1919 1581 
Q 1219 1581 811 2004 
Q 403 2428 403 3163 
Q 403 3881 828 4315 
Q 1253 4750 1959 4750 
Q 2769 4750 3195 4129 
Q 3622 3509 3622 2328 
Q 3622 1225 3098 567 
Q 2575 -91 1691 -91 
Q 1453 -91 1209 -44 
Q 966 3 703 97 
z
M 1959 2075 
Q 2384 2075 2632 2365 
Q 2881 2656 2881 3163 
Q 2881 3666 2632 3958 
Q 2384 4250 1959 4250 
Q 1534 4250 1286 3958 
Q 1038 3666 1038 3163 
Q 1038 2656 1286 2365 
Q 1534 2075 1959 2075 
z
" transform="scale(0.015625)"/>
      <path id="DejaVuSans-50" d="M 1259 4147 
L 1259 2394 
L 2053 2394 
Q 2494 2394 2734 2622 
Q 2975 2850 2975 3272 
Q 2975 3691 2734 3919 
Q 2494 4147 2053 4147 
L 1259 4147 
z
M 628 4666 
L 2053 4666 
Q 2838 4666 3239 4311 
Q 3641 3956 3641 3272 
Q 3641 2581 3239 2228 
Q 2838 1875 2053 1875 
L 1259 1875 
L 1259 0 
L 628 0 
L 628 4666 
z
" transform="scale(0.015625)"/>
      <path id="DejaVuSans-43" d="M 4122 4306 
L 4122 3641 
Q 3803 3938 3442 4084 
Q 3081 4231 2675 4231 
Q 1875 4231 1450 3742 
Q 1025 3253 1025 2328 
Q 1025 1406 1450 917 
Q 1875 428 2675 428 
Q 3081 428 3442 575 
Q 3803 722 4122 1019 
L 4122 359 
Q 3791 134 3420 21 
Q 3050 -91 2638 -91 
Q 1578 -91 968 557 
Q 359 1206 359 2328 
Q 359 3453 968 4101 
Q 1578 4750 2638 4750 
Q 3056 4750 3426 4639 
Q 3797 4528 4122 4306 
z
" transform="scale(0.015625)"/>
      <path id="DejaVuSans-44" d="M 1259 4147 
L 1259 519 
L 2022 519 
Q 2988 519 3436 956 
Q 3884 1394 3884 2338 
Q 3884 3275 3436 3711 
Q 2988 4147 2022 4147 
L 1259 4147 
z
M 628 4666 
L 1925 4666 
Q 3281 4666 3915 4102 
Q 4550 3538 4550 2338 
Q 4550 1131 3912 565 
Q 3275 0 1925 0 
L 628 0 
L 628 4666 
z
" transform="scale(0.015625)"/>
     </defs>
     <use xlink:href="#DejaVuSans-38"/>
     <use xlink:href="#DejaVuSans-d7" x="63.623047"/>
     <use xlink:href="#DejaVuSans-20" x="147.412109"/>
     <use xlink:href="#DejaVuSans-2300" x="179.199219"/>
     <use xlink:href="#DejaVuSans-38" x="239.404297"/>
     <use xlink:href="#DejaVuSans-2e" x="303.027344"/>
     <use xlink:href="#DejaVuSans-30" x="334.814453"/>
     <use xlink:href="#DejaVuSans-20" x="398.4375"/>
     <use xlink:href="#DejaVuSans-4f" x="430.224609"/>
     <use xlink:href="#DejaVuSans-4e" x="508.935547"/>
     <use xlink:href="#DejaVuSans-20" x="583.740234"/>
     <use xlink:href="#DejaVuSans-2300" x="615.527344"/>
     <use xlink:href="#DejaVuSans-39" x="675.732422"/>
     <use xlink:href="#DejaVuSans-30" x="739.355469"/>
     <use xlink:href="#DejaVuSans-2e" x="802.978516"/>
     <use xlink:href="#DejaVuSans-30" x="834.765625"/>
     <use xlink:href="#DejaVuSans-20" x="898.388672"/>
     <use xlink:href="#DejaVuSans-50" x="930.175781"/>
     <use xlink:href="#DejaVuSans-43" x="990.478516"/>
     <use xlink:href="#DejaVuSans-44" x="1060.302734"/>
    </g>
   </g>
   <g id="patch_28">
    <path d="M 940.597525 506.492748 
Q 983.070337 550.196642 1024.763954 593.098754 
" style="fill: none; stroke: #ffa500; stroke-linecap: round"/>
    <path d="M 1023.545833 589.262586 
L 1024.763954 593.098754 
L 1020.964147 591.77155 
" style="fill: none; stroke: #ffa500; stroke-linecap: round"/>
   </g>
   <g id="text_15">
    <!-- 4× ⌀8.0 ARM CENTERLINE HOLES -->
    <g style="fill: #ffa500" transform="translate(857.468707 501.185733) scale(0.09 -0.09)">
     <defs>
      <path id="DejaVuSans-41" d="M 2188 4044 
L 1331 1722 
L 3047 1722 
L 2188 4044 
z
M 1831 4666 
L 2547 4666 
L 4325 0 
L 3669 0 
L 3244 1197 
L 1141 1197 
L 716 0 
L 50 0 
L 1831 4666 
z
" transform="scale(0.015625)"/>
      <path id="DejaVuSans-52" d="M 2841 2188 
Q 3044 2119 3236 1894 
Q 3428 1669 3622 1275 
L 4263 0 
L 3584 0 
L 2988 1197 
Q 2756 1666 2539 1819 
Q 2322 1972 1947 1972 
L 1259 1972 
L 1259 0 
L 628 0 
L 628 4666 
L 2053 4666 
Q 2853 4666 3247 4331 
Q 3641 3997 3641 3322 
Q 3641 2881 3436 2590 
Q 3231 2300 2841 2188 
z
M 1259 4147 
L 1259 2491 
L 2053 2491 
Q 2509 2491 2742 2702 
Q 2975 2913 2975 3322 
Q 2975 3731 2742 3939 
Q 2509 4147 2053 4147 
L 1259 4147 
z
" transform="scale(0.015625)"/>
      <path id="DejaVuSans-4d" d="M 628 4666 
L 1569 4666 
L 2759 1491 
L 3956 4666 
L 4897 4666 
L 4897 0 
L 4281 0 
L 4281 4097 
L 3078 897 
L 2444 897 
L 1241 4097 
L 1241 0 
L 628 0 
L 628 4666 
z
" transform="scale(0.015625)"/>
      <path id="DejaVuSans-45" d="M 628 4666 
L 3578 4666 
L 3578 4134 
L 1259 4134 
L 1259 2753 
L 3481 2753 
L 3481 2222 
L 1259 2222 
L 1259 531 
L 3634 531 
L 3634 0 
L 628 0 
L 628 4666 
z
" transform="scale(0.015625)"/>
      <path id="DejaVuSans-54" d="M -19 4666 
L 3928 4666 
L 3928 4134 
L 2272 4134 
L 2272 0 
L 1638 0 
L 1638 4134 
L -19 4134 
L -19 4666 
z
" transform="scale(0.015625)"/>
      <path id="DejaVuSans-4c" d="M 628 4666 
L 1259 4666 
L 1259 531 
L 3531 531 
L 3531 0 
L 628 0 
L 628 4666 
z
" transform="scale(0.015625)"/>
      <path id="DejaVuSans-49" d="M 628 4666 
L 1259 4666 
L 1259 0 
L 628 0 
L 628 4666 
z
" transform="scale(0.015625)"/>
      <path id="DejaVuSans-48" d="M 628 4666 
L 1259 4666 
L 1259 2753 
L 3553 2753 
L 3553 4666 
L 4184 4666 
L 4184 0 
L 3553 0 
L 3553 2222 
L 1259 2222 
L 1259 0 
L 628 0 
L 628 4666 
z
" transform="scale(0.015625)"/>
      <path id="DejaVuSans-53" d="M 3425 4513 
L 3425 3897 
Q 3066 4069 2747 4153 
Q 2428 4238 2131 4238 
Q 1616 4238 1336 4038 
Q 1056 3838 1056 3469 
Q 1056 3159 1242 3001 
Q 1428 2844 1947 2747 
L 2328 2669 
Q 3034 2534 3370 2195 
Q 3706 1856 3706 1288 
Q 3706 609 3251 259 
Q 2797 -91 1919 -91 
Q 1588 -91 1214 -16 
Q 841 59 441 206 
L 441 856 
Q 825 641 1194 531 
Q 1563 422 1919 422 
Q 2459 422 2753 634 
Q 3047 847 3047 1241 
Q 3047 1584 2836 1778 
Q 2625 1972 2144 2069 
L 1759 2144 
Q 1053 2284 737 2584 
Q 422 2884 422 3419 
Q 422 4038 858 4394 
Q 1294 4750 2059 4750 
Q 2388 4750 2728 4690 
Q 3069 4631 3425 4513 
z
" transform="scale(0.015625)"/>
     </defs>
     <use xlink:href="#DejaVuSans-34"/>
     <use xlink:href="#DejaVuSans-d7" x="63.623047"/>
     <use xlink:href="#DejaVuSans-20" x="147.412109"/>
     <use xlink:href="#DejaVuSans-2300" x="179.199219"/>
     <use xlink:href="#DejaVuSans-38" x="239.404297"/>
     <use xlink:href="#DejaVuSans-2e" x="303.027344"/>
     <use xlink:href="#DejaVuSans-30" x="334.814453"/>
     <use xlink:href="#DejaVuSans-20" x="398.4375"/>
     <use xlink:href="#DejaVuSans-41" x="430.224609"/>
     <use xlink:href="#DejaVuSans-52" x="498.632812"/>
     <use xlink:href="#DejaVuSans-4d" x="568.115234"/>
     <use xlink:href="#DejaVuSans-20" x="654.394531"/>
     <use xlink:href="#DejaVuSans-43" x="686.181641"/>
     <use xlink:href="#DejaVuSans-45" x="756.005859"/>
     <use xlink:href="#DejaVuSans-4e" x="819.189453"/>
     <use xlink:href="#DejaVuSans-54" x="893.994141"/>
     <use xlink:href="#DejaVuSans-45" x="955.078125"/>
     <use xlink:href="#DejaVuSans-52" x="1018.261719"/>
     <use xlink:href="#DejaVuSans-4c" x="1087.744141"/>
     <use xlink:href="#DejaVuSans-49" x="1143.457031"/>
     <use xlink:href="#DejaVuSans-4e" x="1172.949219"/>
     <use xlink:href="#DejaVuSans-45" x="1247.753906"/>
     <use xlink:href="#DejaVuSans-20" x="1310.9375"/>
     <use xlink:href="#DejaVuSans-48" x="1342.724609"/>
     <use xlink:href="#DejaVuSans-4f" x="1417.919922"/>
     <use xlink:href="#DejaVuSans-4c" x="1496.630859"/>
     <use xlink:href="#DejaVuSans-45" x="1552.34375"/>
     <use xlink:href="#DejaVuSans-53" x="1615.527344"/>
    </g>
   </g>
   <g id="text_16">
    <g id="patch_29">
     <path d="M 862.897915 175.959175 
L 1059.889165 175.959175 
Q 1063.889165 175.959175 1063.889165 171.959175 
L 1063.889165 110.467175 
Q 1063.889165 106.467175 1059.889165 106.467175 
L 862.897915 106.467175 
Q 858.897915 106.467175 858.897915 110.467175 
L 858.897915 171.959175 
Q 858.897915 175.959175 862.897915 175.959175 
z
" style="fill: #add8e6; opacity: 0.9; stroke: #000000; stroke-linejoin: miter"/>
    </g>
    <!-- MANUFACTURING NOTES: -->
    <g transform="translate(957.500415 116.545925) scale(0.08 -0.08)">
     <defs>
      <path id="DejaVuSans-55" d="M 556 4666 
L 1191 4666 
L 1191 1831 
Q 1191 1081 1462 751 
Q 1734 422 2344 422 
Q 2950 422 3222 751 
Q 3494 1081 3494 1831 
L 3494 4666 
L 4128 4666 
L 4128 1753 
Q 4128 841 3676 375 
Q 3225 -91 2344 -91 
Q 1459 -91 1007 375 
Q 556 841 556 1753 
L 556 4666 
z
" transform="scale(0.015625)"/>
      <path id="DejaVuSans-46" d="M 628 4666 
L 3309 4666 
L 3309 4134 
L 1259 4134 
L 1259 2759 
L 3109 2759 
L 3109 2228 
L 1259 2228 
L 1259 0 
L 628 0 
L 628 4666 
z
" transform="scale(0.015625)"/>
      <path id="DejaVuSans-47" d="M 3809 666 
L 3809 1919 
L 2778 1919 
L 2778 2438 
L 4434 2438 
L 4434 434 
Q 4069 175 3628 42 
Q 3188 -91 2688 -91 
Q 1594 -91 976 548 
Q 359 1188 359 2328 
Q 359 3472 976 4111 
Q 1594 4750 2688 4750 
Q 3144 4750 3555 4637 
Q 3966 4525 4313 4306 
L 4313 3634 
Q 3963 3931 3569 4081 
Q 3175 4231 2741 4231 
Q 1884 4231 1454 3753 
Q 1025 3275 1025 2328 
Q 1025 1384 1454 906 
Q 1884 428 2741 428 
Q 3075 428 3337 486 
Q 3600 544 3809 666 
z
" transform="scale(0.015625)"/>
      <path id="DejaVuSans-3a" d="M 750 794 
L 1409 794 
L 1409 0 
L 750 0 
L 750 794 
z
M 750 3309 
L 1409 3309 
L 1409 2516 
L 750 2516 
L 750 3309 
z
" transform="scale(0.015625)"/>
     </defs>
     <use xlink:href="#DejaVuSans-4d"/>
     <use xlink:href="#DejaVuSans-41" x="86.279297"/>
     <use xlink:href="#DejaVuSans-4e" x="154.6875"/>
     <use xlink:href="#DejaVuSans-55" x="229.492188"/>
     <use xlink:href="#DejaVuSans-46" x="302.685547"/>
     <use xlink:href="#DejaVuSans-41" x="351.080078"/>
     <use xlink:href="#DejaVuSans-43" x="417.738281"/>
     <use xlink:href="#DejaVuSans-54" x="487.5625"/>
     <use xlink:href="#DejaVuSans-55" x="548.646484"/>
     <use xlink:href="#DejaVuSans-52" x="621.839844"/>
     <use xlink:href="#DejaVuSans-49" x="691.322266"/>
     <use xlink:href="#DejaVuSans-4e" x="720.814453"/>
     <use xlink:href="#DejaVuSans-47" x="795.619141"/>
     <use xlink:href="#DejaVuSans-20" x="873.109375"/>
     <use xlink:href="#DejaVuSans-4e" x="904.896484"/>
     <use xlink:href="#DejaVuSans-4f" x="979.701172"/>
     <use xlink:href="#DejaVuSans-54" x="1058.412109"/>
     <use xlink:href="#DejaVuSans-45" x="1119.496094"/>
     <use xlink:href="#DejaVuSans-53" x="1182.679688"/>
     <use xlink:href="#DejaVuSans-3a" x="1246.15625"/>
    </g>
    <!-- MATERIAL: 4mm Stainless Steel -->
    <g transform="translate(933.174165 125.504175) scale(0.08 -0.08)">
     <defs>
      <path id="DejaVuSans-6d" d="M 3328 2828 
Q 3544 3216 3844 3400 
Q 4144 3584 4550 3584 
Q 5097 3584 5394 3201 
Q 5691 2819 5691 2113 
L 5691 0 
L 5113 0 
L 5113 2094 
Q 5113 2597 4934 2840 
Q 4756 3084 4391 3084 
Q 3944 3084 3684 2787 
Q 3425 2491 3425 1978 
L 3425 0 
L 2847 0 
L 2847 2094 
Q 2847 2600 2669 2842 
Q 2491 3084 2119 3084 
Q 1678 3084 1418 2786 
Q 1159 2488 1159 1978 
L 1159 0 
L 581 0 
L 581 3500 
L 1159 3500 
L 1159 2956 
Q 1356 3278 1631 3431 
Q 1906 3584 2284 3584 
Q 2666 3584 2933 3390 
Q 3200 3197 3328 2828 
z
" transform="scale(0.015625)"/>
      <path id="DejaVuSans-74" d="M 1172 4494 
L 1172 3500 
L 2356 3500 
L 2356 3053 
L 1172 3053 
L 1172 1153 
Q 1172 725 1289 603 
Q 1406 481 1766 481 
L 2356 481 
L 2356 0 
L 1766 0 
Q 1100 0 847 248 
Q 594 497 594 1153 
L 594 3053 
L 172 3053 
L 172 3500 
L 594 3500 
L 594 4494 
L 1172 4494 
z
" transform="scale(0.015625)"/>
      <path id="DejaVuSans-61" d="M 2194 1759 
Q 1497 1759 1228 1600 
Q 959 1441 959 1056 
Q 959 750 1161 570 
Q 1363 391 1709 391 
Q 2188 391 2477 730 
Q 2766 1069 2766 1631 
L 2766 1759 
L 2194 1759 
z
M 3341 1997 
L 3341 0 
L 2766 0 
L 2766 531 
Q 2569 213 2275 61 
Q 1981 -91 1556 -91 
Q 1019 -91 701 211 
Q 384 513 384 1019 
Q 384 1609 779 1909 
Q 1175 2209 1959 2209 
L 2766 2209 
L 2766 2266 
Q 2766 2663 2505 2880 
Q 2244 3097 1772 3097 
Q 1472 3097 1187 3025 
Q 903 2953 641 2809 
L 641 3341 
Q 956 3463 1253 3523 
Q 1550 3584 1831 3584 
Q 2591 3584 2966 3190 
Q 3341 2797 3341 1997 
z
" transform="scale(0.015625)"/>
      <path id="DejaVuSans-69" d="M 603 3500 
L 1178 3500 
L 1178 0 
L 603 0 
L 603 3500 
z
M 603 4863 
L 1178 4863 
L 1178 4134 
L 603 4134 
L 603 4863 
z
" transform="scale(0.015625)"/>
      <path id="DejaVuSans-6e" d="M 3513 2113 
L 3513 0 
L 2938 0 
L 2938 2094 
Q 2938 2591 2744 2837 
Q 2550 3084 2163 3084 
Q 1697 3084 1428 2787 
Q 1159 2491 1159 1978 
L 1159 0 
L 581 0 
L 581 3500 
L 1159 3500 
L 1159 2956 
Q 1366 3272 1645 3428 
Q 1925 3584 2291 3584 
Q 2894 3584 3203 3211 
Q 3513 2838 3513 2113 
z
" transform="scale(0.015625)"/>
      <path id="DejaVuSans-6c" d="M 603 4863 
L 1178 4863 
L 1178 0 
L 603 0 
L 603 4863 
z
" transform="scale(0.015625)"/>
      <path id="DejaVuSans-65" d="M 3597 1894 
L 3597 1613 
L 953 1613 
Q 991 1019 1311 708 
Q 1631 397 2203 397 
Q 2534 397 2845 478 
Q 3156 559 3463 722 
L 3463 178 
Q 3153 47 2828 -22 
Q 2503 -91 2169 -91 
Q 1331 -91 842 396 
Q 353 884 353 1716 
Q 353 2575 817 3079 
Q 1281 3584 2069 3584 
Q 2775 3584 3186 3129 
Q 3597 2675 3597 1894 
z
M 3022 2063 
Q 3016 2534 2758 2815 
Q 2500 3097 2075 3097 
Q 1594 3097 1305 2825 
Q 1016 2553 972 2059 
L 3022 2063 
z
" transform="scale(0.015625)"/>
      <path id="DejaVuSans-73" d="M 2834 3397 
L 2834 2853 
Q 2591 2978 2328 3040 
Q 2066 3103 1784 3103 
Q 1356 3103 1142 2972 
Q 928 2841 928 2578 
Q 928 2378 1081 2264 
Q 1234 2150 1697 2047 
L 1894 2003 
Q 2506 1872 2764 1633 
Q 3022 1394 3022 966 
Q 3022 478 2636 193 
Q 2250 -91 1575 -91 
Q 1294 -91 989 -36 
Q 684 19 347 128 
L 347 722 
Q 666 556 975 473 
Q 1284 391 1588 391 
Q 1994 391 2212 530 
Q 2431 669 2431 922 
Q 2431 1156 2273 1281 
Q 2116 1406 1581 1522 
L 1381 1569 
Q 847 1681 609 1914 
Q 372 2147 372 2553 
Q 372 3047 722 3315 
Q 1072 3584 1716 3584 
Q 2034 3584 2315 3537 
Q 2597 3491 2834 3397 
z
" transform="scale(0.015625)"/>
     </defs>
     <use xlink:href="#DejaVuSans-4d"/>
     <use xlink:href="#DejaVuSans-41" x="86.279297"/>
     <use xlink:href="#DejaVuSans-54" x="146.9375"/>
     <use xlink:href="#DejaVuSans-45" x="208.021484"/>
     <use xlink:href="#DejaVuSans-52" x="271.205078"/>
     <use xlink:href="#DejaVuSans-49" x="340.6875"/>
     <use xlink:href="#DejaVuSans-41" x="370.179688"/>
     <use xlink:href="#DejaVuSans-4c" x="438.587891"/>
     <use xlink:href="#DejaVuSans-3a" x="494.300781"/>
     <use xlink:href="#DejaVuSans-20" x="527.992188"/>
     <use xlink:href="#DejaVuSans-34" x="559.779297"/>
     <use xlink:href="#DejaVuSans-6d" x="623.402344"/>
     <use xlink:href="#DejaVuSans-6d" x="720.814453"/>
     <use xlink:href="#DejaVuSans-20" x="818.226562"/>
     <use xlink:href="#DejaVuSans-53" x="850.013672"/>
     <use xlink:href="#DejaVuSans-74" x="913.490234"/>
     <use xlink:href="#DejaVuSans-61" x="952.699219"/>
     <use xlink:href="#DejaVuSans-69" x="1013.978516"/>
     <use xlink:href="#DejaVuSans-6e" x="1041.761719"/>
     <use xlink:href="#DejaVuSans-6c" x="1105.140625"/>
     <use xlink:href="#DejaVuSans-65" x="1132.923828"/>
     <use xlink:href="#DejaVuSans-73" x="1194.447266"/>
     <use xlink:href="#DejaVuSans-73" x="1246.546875"/>
     <use xlink:href="#DejaVuSans-20" x="1298.646484"/>
     <use xlink:href="#DejaVuSans-53" x="1330.433594"/>
     <use xlink:href="#DejaVuSans-74" x="1393.910156"/>
     <use xlink:href="#DejaVuSans-65" x="1433.119141"/>
     <use xlink:href="#DejaVuSans-65" x="1494.642578"/>
     <use xlink:href="#DejaVuSans-6c" x="1556.166016"/>
    </g>
    <!-- OUTER RING: 10mm diameter Stainless Steel rod -->
    <g transform="translate(862.897915 134.462425) scale(0.08 -0.08)">
     <defs>
      <path id="DejaVuSans-31" d="M 794 531 
L 1825 531 
L 1825 4091 
L 703 3866 
L 703 4441 
L 1819 4666 
L 2450 4666 
L 2450 531 
L 3481 531 
L 3481 0 
L 794 0 
L 794 531 
z
" transform="scale(0.015625)"/>
      <path id="DejaVuSans-64" d="M 2906 2969 
L 2906 4863 
L 3481 4863 
L 3481 0 
L 2906 0 
L 2906 525 
Q 2725 213 2448 61 
Q 2172 -91 1784 -91 
Q 1150 -91 751 415 
Q 353 922 353 1747 
Q 353 2572 751 3078 
Q 1150 3584 1784 3584 
Q 2172 3584 2448 3432 
Q 2725 3281 2906 2969 
z
M 947 1747 
Q 947 1113 1208 752 
Q 1469 391 1925 391 
Q 2381 391 2643 752 
Q 2906 1113 2906 1747 
Q 2906 2381 2643 2742 
Q 2381 3103 1925 3103 
Q 1469 3103 1208 2742 
Q 947 2381 947 1747 
z
" transform="scale(0.015625)"/>
      <path id="DejaVuSans-72" d="M 2631 2963 
Q 2534 3019 2420 3045 
Q 2306 3072 2169 3072 
Q 1681 3072 1420 2755 
Q 1159 2438 1159 1844 
L 1159 0 
L 581 0 
L 581 3500 
L 1159 3500 
L 1159 2956 
Q 1341 3275 1631 3429 
Q 1922 3584 2338 3584 
Q 2397 3584 2469 3576 
Q 2541 3569 2628 3553 
L 2631 2963 
z
" transform="scale(0.015625)"/>
      <path id="DejaVuSans-6f" d="M 1959 3097 
Q 1497 3097 1228 2736 
Q 959 2375 959 1747 
Q 959 1119 1226 758 
Q 1494 397 1959 397 
Q 2419 397 2687 759 
Q 2956 1122 2956 1747 
Q 2956 2369 2687 2733 
Q 2419 3097 1959 3097 
z
M 1959 3584 
Q 2709 3584 3137 3096 
Q 3566 2609 3566 1747 
Q 3566 888 3137 398 
Q 2709 -91 1959 -91 
Q 1206 -91 779 398 
Q 353 888 353 1747 
Q 353 2609 779 3096 
Q 1206 3584 1959 3584 
z
" transform="scale(0.015625)"/>
     </defs>
     <use xlink:href="#DejaVuSans-4f"/>
     <use xlink:href="#DejaVuSans-55" x="78.710938"/>
     <use xlink:href="#DejaVuSans-54" x="151.904297"/>
     <use xlink:href="#DejaVuSans-45" x="212.988281"/>
     <use xlink:href="#DejaVuSans-52" x="276.171875"/>
     <use xlink:href="#DejaVuSans-20" x="345.654297"/>
     <use xlink:href="#DejaVuSans-52" x="377.441406"/>
     <use xlink:href="#DejaVuSans-49" x="446.923828"/>
     <use xlink:href="#DejaVuSans-4e" x="476.416016"/>
     <use xlink:href="#DejaVuSans-47" x="551.220703"/>
     <use xlink:href="#DejaVuSans-3a" x="628.710938"/>
     <use xlink:href="#DejaVuSans-20" x="662.402344"/>
     <use xlink:href="#DejaVuSans-31" x="694.189453"/>
     <use xlink:href="#DejaVuSans-30" x="757.8125"/>
     <use xlink:href="#DejaVuSans-6d" x="821.435547"/>
     <use xlink:href="#DejaVuSans-6d" x="918.847656"/>
     <use xlink:href="#DejaVuSans-20" x="1016.259766"/>
     <use xlink:href="#DejaVuSans-64" x="1048.046875"/>
     <use xlink:href="#DejaVuSans-69" x="1111.523438"/>
     <use xlink:href="#DejaVuSans-61" x="1139.306641"/>
     <use xlink:href="#DejaVuSans-6d" x="1200.585938"/>
     <use xlink:href="#DejaVuSans-65" x="1297.998047"/>
     <use xlink:href="#DejaVuSans-74" x="1359.521484"/>
     <use xlink:href="#DejaVuSans-65" x="1398.730469"/>
     <use xlink:href="#DejaVuSans-72" x="1460.253906"/>
     <use xlink:href="#DejaVuSans-20" x="1501.367188"/>
     <use xlink:href="#DejaVuSans-53" x="1533.154297"/>
     <use xlink:href="#DejaVuSans-74" x="1596.630859"/>
     <use xlink:href="#DejaVuSans-61" x="1635.839844"/>
     <use xlink:href="#DejaVuSans-69" x="1697.119141"/>
     <use xlink:href="#DejaVuSans-6e" x="1724.902344"/>
     <use xlink:href="#DejaVuSans-6c" x="1788.28125"/>
     <use xlink:href="#DejaVuSans-65" x="1816.064453"/>
     <use xlink:href="#DejaVuSans-73" x="1877.587891"/>
     <use xlink:href="#DejaVuSans-73" x="1929.6875"/>
     <use xlink:href="#DejaVuSans-20" x="1981.787109"/>
     <use xlink:href="#DejaVuSans-53" x="2013.574219"/>
     <use xlink:href="#DejaVuSans-74" x="2077.050781"/>
     <use xlink:href="#DejaVuSans-65" x="2116.259766"/>
     <use xlink:href="#DejaVuSans-65" x="2177.783203"/>
     <use xlink:href="#DejaVuSans-6c" x="2239.306641"/>
     <use xlink:href="#DejaVuSans-20" x="2267.089844"/>
     <use xlink:href="#DejaVuSans-72" x="2298.876953"/>
     <use xlink:href="#DejaVuSans-6f" x="2337.740234"/>
     <use xlink:href="#DejaVuSans-64" x="2398.921875"/>
    </g>
    <!-- FINISH: Sharp as-cut -->
    <g transform="translate(977.727915 143.420675) scale(0.08 -0.08)">
     <defs>
      <path id="DejaVuSans-68" d="M 3513 2113 
L 3513 0 
L 2938 0 
L 2938 2094 
Q 2938 2591 2744 2837 
Q 2550 3084 2163 3084 
Q 1697 3084 1428 2787 
Q 1159 2491 1159 1978 
L 1159 0 
L 581 0 
L 581 4863 
L 1159 4863 
L 1159 2956 
Q 1366 3272 1645 3428 
Q 1925 3584 2291 3584 
Q 2894 3584 3203 3211 
Q 3513 2838 3513 2113 
z
" transform="scale(0.015625)"/>
      <path id="DejaVuSans-70" d="M 1159 525 
L 1159 -1331 
L 581 -1331 
L 581 3500 
L 1159 3500 
L 1159 2969 
Q 1341 3281 1617 3432 
Q 1894 3584 2278 3584 
Q 2916 3584 3314 3078 
Q 3713 2572 3713 1747 
Q 3713 922 3314 415 
Q 2916 -91 2278 -91 
Q 1894 -91 1617 61 
Q 1341 213 1159 525 
z
M 3116 1747 
Q 3116 2381 2855 2742 
Q 2594 3103 2138 3103 
Q 1681 3103 1420 2742 
Q 1159 2381 1159 1747 
Q 1159 1113 1420 752 
Q 1681 391 2138 391 
Q 2594 391 2855 752 
Q 3116 1113 3116 1747 
z
" transform="scale(0.015625)"/>
      <path id="DejaVuSans-2d" d="M 313 2009 
L 1997 2009 
L 1997 1497 
L 313 1497 
L 313 2009 
z
" transform="scale(0.015625)"/>
      <path id="DejaVuSans-63" d="M 3122 3366 
L 3122 2828 
Q 2878 2963 2633 3030 
Q 2388 3097 2138 3097 
Q 1578 3097 1268 2742 
Q 959 2388 959 1747 
Q 959 1106 1268 751 
Q 1578 397 2138 397 
Q 2388 397 2633 464 
Q 2878 531 3122 666 
L 3122 134 
Q 2881 22 2623 -34 
Q 2366 -91 2075 -91 
Q 1284 -91 818 406 
Q 353 903 353 1747 
Q 353 2603 823 3093 
Q 1294 3584 2113 3584 
Q 2378 3584 2631 3529 
Q 2884 3475 3122 3366 
z
" transform="scale(0.015625)"/>
      <path id="DejaVuSans-75" d="M 544 1381 
L 544 3500 
L 1119 3500 
L 1119 1403 
Q 1119 906 1312 657 
Q 1506 409 1894 409 
Q 2359 409 2629 706 
Q 2900 1003 2900 1516 
L 2900 3500 
L 3475 3500 
L 3475 0 
L 2900 0 
L 2900 538 
Q 2691 219 2414 64 
Q 2138 -91 1772 -91 
Q 1169 -91 856 284 
Q 544 659 544 1381 
z
M 1991 3584 
L 1991 3584 
z
" transform="scale(0.015625)"/>
     </defs>
     <use xlink:href="#DejaVuSans-46"/>
     <use xlink:href="#DejaVuSans-49" x="57.519531"/>
     <use xlink:href="#DejaVuSans-4e" x="87.011719"/>
     <use xlink:href="#DejaVuSans-49" x="161.816406"/>
     <use xlink:href="#DejaVuSans-53" x="191.308594"/>
     <use xlink:href="#DejaVuSans-48" x="254.785156"/>
     <use xlink:href="#DejaVuSans-3a" x="329.980469"/>
     <use xlink:href="#DejaVuSans-20" x="363.671875"/>
     <use xlink:href="#DejaVuSans-53" x="395.458984"/>
     <use xlink:href="#DejaVuSans-68" x="458.935547"/>
     <use xlink:href="#DejaVuSans-61" x="522.314453"/>
     <use xlink:href="#DejaVuSans-72" x="583.59375"/>
     <use xlink:href="#DejaVuSans-70" x="624.707031"/>
     <use xlink:href="#DejaVuSans-20" x="688.183594"/>
     <use xlink:href="#DejaVuSans-61" x="719.970703"/>
     <use xlink:href="#DejaVuSans-73" x="781.25"/>
     <use xlink:href="#DejaVuSans-2d" x="833.349609"/>
     <use xlink:href="#DejaVuSans-63" x="869.433594"/>
     <use xlink:href="#DejaVuSans-75" x="924.414062"/>
     <use xlink:href="#DejaVuSans-74" x="987.792969"/>
    </g>
    <!-- CORNER FILLETS: R5.0 (16 PLACES) -->
    <g transform="translate(916.869165 152.378925) scale(0.08 -0.08)">
     <defs>
      <path id="DejaVuSans-35" d="M 691 4666 
L 3169 4666 
L 3169 4134 
L 1269 4134 
L 1269 2991 
Q 1406 3038 1543 3061 
Q 1681 3084 1819 3084 
Q 2600 3084 3056 2656 
Q 3513 2228 3513 1497 
Q 3513 744 3044 326 
Q 2575 -91 1722 -91 
Q 1428 -91 1123 -41 
Q 819 9 494 109 
L 494 744 
Q 775 591 1075 516 
Q 1375 441 1709 441 
Q 2250 441 2565 725 
Q 2881 1009 2881 1497 
Q 2881 1984 2565 2268 
Q 2250 2553 1709 2553 
Q 1456 2553 1204 2497 
Q 953 2441 691 2322 
L 691 4666 
z
" transform="scale(0.015625)"/>
      <path id="DejaVuSans-28" d="M 1984 4856 
Q 1566 4138 1362 3434 
Q 1159 2731 1159 2009 
Q 1159 1288 1364 580 
Q 1569 -128 1984 -844 
L 1484 -844 
Q 1016 -109 783 600 
Q 550 1309 550 2009 
Q 550 2706 781 3412 
Q 1013 4119 1484 4856 
L 1984 4856 
z
" transform="scale(0.015625)"/>
      <path id="DejaVuSans-36" d="M 2113 2584 
Q 1688 2584 1439 2293 
Q 1191 2003 1191 1497 
Q 1191 994 1439 701 
Q 1688 409 2113 409 
Q 2538 409 2786 701 
Q 3034 994 3034 1497 
Q 3034 2003 2786 2293 
Q 2538 2584 2113 2584 
z
M 3366 4563 
L 3366 3988 
Q 3128 4100 2886 4159 
Q 2644 4219 2406 4219 
Q 1781 4219 1451 3797 
Q 1122 3375 1075 2522 
Q 1259 2794 1537 2939 
Q 1816 3084 2150 3084 
Q 2853 3084 3261 2657 
Q 3669 2231 3669 1497 
Q 3669 778 3244 343 
Q 2819 -91 2113 -91 
Q 1303 -91 875 529 
Q 447 1150 447 2328 
Q 447 3434 972 4092 
Q 1497 4750 2381 4750 
Q 2619 4750 2861 4703 
Q 3103 4656 3366 4563 
z
" transform="scale(0.015625)"/>
      <path id="DejaVuSans-29" d="M 513 4856 
L 1013 4856 
Q 1481 4119 1714 3412 
Q 1947 2706 1947 2009 
Q 1947 1309 1714 600 
Q 1481 -109 1013 -844 
L 513 -844 
Q 928 -128 1133 580 
Q 1338 1288 1338 2009 
Q 1338 2731 1133 3434 
Q 928 4138 513 4856 
z
" transform="scale(0.015625)"/>
     </defs>
     <use xlink:href="#DejaVuSans-43"/>
     <use xlink:href="#DejaVuSans-4f" x="69.824219"/>
     <use xlink:href="#DejaVuSans-52" x="148.535156"/>
     <use xlink:href="#DejaVuSans-4e" x="218.017578"/>
     <use xlink:href="#DejaVuSans-45" x="292.822266"/>
     <use xlink:href="#DejaVuSans-52" x="356.005859"/>
     <use xlink:href="#DejaVuSans-20" x="425.488281"/>
     <use xlink:href="#DejaVuSans-46" x="457.275391"/>
     <use xlink:href="#DejaVuSans-49" x="514.794922"/>
     <use xlink:href="#DejaVuSans-4c" x="544.287109"/>
     <use xlink:href="#DejaVuSans-4c" x="600"/>
     <use xlink:href="#DejaVuSans-45" x="655.712891"/>
     <use xlink:href="#DejaVuSans-54" x="718.896484"/>
     <use xlink:href="#DejaVuSans-53" x="779.980469"/>
     <use xlink:href="#DejaVuSans-3a" x="843.457031"/>
     <use xlink:href="#DejaVuSans-20" x="877.148438"/>
     <use xlink:href="#DejaVuSans-52" x="908.935547"/>
     <use xlink:href="#DejaVuSans-35" x="978.417969"/>
     <use xlink:href="#DejaVuSans-2e" x="1042.041016"/>
     <use xlink:href="#DejaVuSans-30" x="1073.828125"/>
     <use xlink:href="#DejaVuSans-20" x="1137.451172"/>
     <use xlink:href="#DejaVuSans-28" x="1169.238281"/>
     <use xlink:href="#DejaVuSans-31" x="1208.251953"/>
     <use xlink:href="#DejaVuSans-36" x="1271.875"/>
     <use xlink:href="#DejaVuSans-20" x="1335.498047"/>
     <use xlink:href="#DejaVuSans-50" x="1367.285156"/>
     <use xlink:href="#DejaVuSans-4c" x="1427.587891"/>
     <use xlink:href="#DejaVuSans-41" x="1485.550781"/>
     <use xlink:href="#DejaVuSans-43" x="1552.208984"/>
     <use xlink:href="#DejaVuSans-45" x="1622.033203"/>
     <use xlink:href="#DejaVuSans-53" x="1685.216797"/>
     <use xlink:href="#DejaVuSans-29" x="1748.693359"/>
    </g>
    <!-- CONCAVE ARC: R532.5 -->
    <g transform="translate(968.485415 161.337175) scale(0.08 -0.08)">
     <defs>
      <path id="DejaVuSans-56" d="M 1831 0 
L 50 4666 
L 709 4666 
L 2188 738 
L 3669 4666 
L 4325 4666 
L 2547 0 
L 1831 0 
z
" transform="scale(0.015625)"/>
      <path id="DejaVuSans-33" d="M 2597 2516 
Q 3050 2419 3304 2112 
Q 3559 1806 3559 1356 
Q 3559 666 3084 287 
Q 2609 -91 1734 -91 
Q 1441 -91 1130 -33 
Q 819 25 488 141 
L 488 750 
Q 750 597 1062 519 
Q 1375 441 1716 441 
Q 2309 441 2620 675 
Q 2931 909 2931 1356 
Q 2931 1769 2642 2001 
Q 2353 2234 1838 2234 
L 1294 2234 
L 1294 2753 
L 1863 2753 
Q 2328 2753 2575 2939 
Q 2822 3125 2822 3475 
Q 2822 3834 2567 4026 
Q 2313 4219 1838 4219 
Q 1578 4219 1281 4162 
Q 984 4106 628 3988 
L 628 4550 
Q 988 4650 1302 4700 
Q 1616 4750 1894 4750 
Q 2613 4750 3031 4423 
Q 3450 4097 3450 3541 
Q 3450 3153 3228 2886 
Q 3006 2619 2597 2516 
z
" transform="scale(0.015625)"/>
     </defs>
     <use xlink:href="#DejaVuSans-43"/>
     <use xlink:href="#DejaVuSans-4f" x="69.824219"/>
     <use xlink:href="#DejaVuSans-4e" x="148.535156"/>
     <use xlink:href="#DejaVuSans-43" x="223.339844"/>
     <use xlink:href="#DejaVuSans-41" x="293.164062"/>
     <use xlink:href="#DejaVuSans-56" x="355.197266"/>
     <use xlink:href="#DejaVuSans-45" x="423.605469"/>
     <use xlink:href="#DejaVuSans-20" x="486.789062"/>
     <use xlink:href="#DejaVuSans-41" x="518.576172"/>
     <use xlink:href="#DejaVuSans-52" x="586.984375"/>
     <use xlink:href="#DejaVuSans-43" x="651.466797"/>
     <use xlink:href="#DejaVuSans-3a" x="721.291016"/>
     <use xlink:href="#DejaVuSans-20" x="754.982422"/>
     <use xlink:href="#DejaVuSans-52" x="786.769531"/>
     <use xlink:href="#DejaVuSans-35" x="856.251953"/>
     <use xlink:href="#DejaVuSans-33" x="919.875"/>
     <use xlink:href="#DejaVuSans-32" x="983.498047"/>
     <use xlink:href="#DejaVuSans-2e" x="1047.121094"/>
     <use xlink:href="#DejaVuSans-35" x="1078.908203"/>
    </g>
    <!-- TOTAL HOLES: 13 -->
    <g transform="translate(989.644165 170.295425) scale(0.08 -0.08)">
     <use xlink:href="#DejaVuSans-54"/>
     <use xlink:href="#DejaVuSans-4f" x="61.083984"/>
     <use xlink:href="#DejaVuSans-54" x="139.794922"/>
     <use xlink:href="#DejaVuSans-41" x="193.128906"/>
     <use xlink:href="#DejaVuSans-4c" x="261.537109"/>
     <use xlink:href="#DejaVuSans-20" x="317.25"/>
     <use xlink:href="#DejaVuSans-48" x="349.037109"/>
     <use xlink:href="#DejaVuSans-4f" x="424.232422"/>
     <use xlink:href="#DejaVuSans-4c" x="502.943359"/>
     <use xlink:href="#DejaVuSans-45" x="558.65625"/>
     <use xlink:href="#DejaVuSans-53" x="621.839844"/>
     <use xlink:href="#DejaVuSans-3a" x="685.316406"/>
     <use xlink:href="#DejaVuSans-20" x="719.007812"/>
     <use xlink:href="#DejaVuSans-31" x="750.794922"/>
     <use xlink:href="#DejaVuSans-33" x="814.417969"/>
    </g>
   </g>
   <g id="text_17">
    <g id="patch_30">
     <path d="M 90.153948 1090.113954 
L 402.535511 1090.113954 
Q 409.535511 1090.113954 409.535511 1083.113954 
L 409.535511 1036.821641 
Q 409.535511 1029.821641 402.535511 1029.821641 
L 90.153948 1029.821641 
Q 83.153948 1029.821641 83.153948 1036.821641 
L 83.153948 1083.113954 
Q 83.153948 1090.113954 90.153948 1090.113954 
z
" style="fill: #ffffff; stroke: #000000; stroke-linejoin: miter"/>
    </g>
    <!-- LÍNUSTÝRING (SPOOLING GUIDE PLATE) -->
    <g transform="translate(90.153948 1048.739141) scale(0.14 -0.14)">
     <defs>
      <path id="DejaVuSans-Bold-cd" d="M 588 4666 
L 1791 4666 
L 1791 0 
L 588 0 
L 588 4666 
z
M 1272 5935 
L 2156 5935 
L 1266 5110 
L 653 5110 
L 1272 5935 
z
" transform="scale(0.015625)"/>
      <path id="DejaVuSans-Bold-4e" d="M 588 4666 
L 1931 4666 
L 3628 1466 
L 3628 4666 
L 4769 4666 
L 4769 0 
L 3425 0 
L 1728 3200 
L 1728 0 
L 588 0 
L 588 4666 
z
" transform="scale(0.015625)"/>
      <path id="DejaVuSans-Bold-55" d="M 588 4666 
L 1791 4666 
L 1791 1869 
Q 1791 1291 1980 1042 
Q 2169 794 2597 794 
Q 3028 794 3217 1042 
Q 3406 1291 3406 1869 
L 3406 4666 
L 4609 4666 
L 4609 1869 
Q 4609 878 4112 393 
Q 3616 -91 2597 -91 
Q 1581 -91 1084 393 
Q 588 878 588 1869 
L 588 4666 
z
" transform="scale(0.015625)"/>
      <path id="DejaVuSans-Bold-53" d="M 3834 4519 
L 3834 3531 
Q 3450 3703 3084 3790 
Q 2719 3878 2394 3878 
Q 1963 3878 1756 3759 
Q 1550 3641 1550 3391 
Q 1550 3203 1689 3098 
Q 1828 2994 2194 2919 
L 2706 2816 
Q 3484 2659 3812 2340 
Q 4141 2022 4141 1434 
Q 4141 663 3683 286 
Q 3225 -91 2284 -91 
Q 1841 -91 1394 -6 
Q 947 78 500 244 
L 500 1259 
Q 947 1022 1364 901 
Q 1781 781 2169 781 
Q 2563 781 2772 912 
Q 2981 1044 2981 1288 
Q 2981 1506 2839 1625 
Q 2697 1744 2272 1838 
L 1806 1941 
Q 1106 2091 782 2419 
Q 459 2747 459 3303 
Q 459 4000 909 4375 
Q 1359 4750 2203 4750 
Q 2588 4750 2994 4692 
Q 3400 4634 3834 4519 
z
" transform="scale(0.015625)"/>
      <path id="DejaVuSans-Bold-dd" d="M -63 4666 
L 1253 4666 
L 2316 3003 
L 3378 4666 
L 4697 4666 
L 2919 1966 
L 2919 0 
L 1716 0 
L 1716 1966 
L -63 4666 
z
M 2400 5935 
L 3284 5935 
L 2394 5110 
L 1781 5110 
L 2400 5935 
z
" transform="scale(0.015625)"/>
      <path id="DejaVuSans-Bold-47" d="M 4781 347 
Q 4331 128 3847 18 
Q 3363 -91 2847 -91 
Q 1681 -91 1000 561 
Q 319 1213 319 2328 
Q 319 3456 1012 4103 
Q 1706 4750 2913 4750 
Q 3378 4750 3804 4662 
Q 4231 4575 4609 4403 
L 4609 3438 
Q 4219 3659 3833 3768 
Q 3447 3878 3059 3878 
Q 2341 3878 1952 3476 
Q 1563 3075 1563 2328 
Q 1563 1588 1938 1184 
Q 2313 781 3003 781 
Q 3191 781 3352 804 
Q 3513 828 3641 878 
L 3641 1784 
L 2906 1784 
L 2906 2591 
L 4781 2591 
L 4781 347 
z
" transform="scale(0.015625)"/>
      <path id="DejaVuSans-Bold-28" d="M 2413 -844 
L 1484 -844 
Q 1006 -72 778 623 
Q 550 1319 550 2003 
Q 550 2688 779 3389 
Q 1009 4091 1484 4856 
L 2413 4856 
Q 2013 4116 1813 3408 
Q 1613 2700 1613 2009 
Q 1613 1319 1811 609 
Q 2009 -100 2413 -844 
z
" transform="scale(0.015625)"/>
      <path id="DejaVuSans-Bold-44" d="M 1791 3756 
L 1791 909 
L 2222 909 
Q 2959 909 3348 1275 
Q 3738 1641 3738 2338 
Q 3738 3031 3350 3393 
Q 2963 3756 2222 3756 
L 1791 3756 
z
M 588 4666 
L 1856 4666 
Q 2919 4666 3439 4514 
Q 3959 4363 4331 4000 
Q 4659 3684 4818 3271 
Q 4978 2859 4978 2338 
Q 4978 1809 4818 1395 
Q 4659 981 4331 666 
Q 3956 303 3431 151 
Q 2906 0 1856 0 
L 588 0 
L 588 4666 
z
" transform="scale(0.015625)"/>
      <path id="DejaVuSans-Bold-29" d="M 513 -844 
Q 913 -100 1113 609 
Q 1313 1319 1313 2009 
Q 1313 2700 1113 3408 
Q 913 4116 513 4856 
L 1441 4856 
Q 1916 4091 2145 3389 
Q 2375 2688 2375 2003 
Q 2375 1319 2147 623 
Q 1919 -72 1441 -844 
L 513 -844 
z
" transform="scale(0.015625)"/>
     </defs>
     <use xlink:href="#DejaVuSans-Bold-4c"/>
     <use xlink:href="#DejaVuSans-Bold-cd" x="63.720703"/>
     <use xlink:href="#DejaVuSans-Bold-4e" x="100.927734"/>
     <use xlink:href="#DejaVuSans-Bold-55" x="184.619141"/>
     <use xlink:href="#DejaVuSans-Bold-53" x="265.820312"/>
     <use xlink:href="#DejaVuSans-Bold-54" x="337.841797"/>
     <use xlink:href="#DejaVuSans-Bold-dd" x="406.054688"/>
     <use xlink:href="#DejaVuSans-Bold-52" x="478.466797"/>
     <use xlink:href="#DejaVuSans-Bold-49" x="555.46875"/>
     <use xlink:href="#DejaVuSans-Bold-4e" x="592.675781"/>
     <use xlink:href="#DejaVuSans-Bold-47" x="676.367188"/>
     <use xlink:href="#DejaVuSans-Bold-20" x="758.447266"/>
     <use xlink:href="#DejaVuSans-Bold-28" x="793.261719"/>
     <use xlink:href="#DejaVuSans-Bold-53" x="838.964844"/>
     <use xlink:href="#DejaVuSans-Bold-50" x="910.986328"/>
     <use xlink:href="#DejaVuSans-Bold-4f" x="984.277344"/>
     <use xlink:href="#DejaVuSans-Bold-4f" x="1069.287109"/>
     <use xlink:href="#DejaVuSans-Bold-4c" x="1154.296875"/>
     <use xlink:href="#DejaVuSans-Bold-49" x="1218.017578"/>
     <use xlink:href="#DejaVuSans-Bold-4e" x="1255.224609"/>
     <use xlink:href="#DejaVuSans-Bold-47" x="1338.916016"/>
     <use xlink:href="#DejaVuSans-Bold-20" x="1420.996094"/>
     <use xlink:href="#DejaVuSans-Bold-47" x="1455.810547"/>
     <use xlink:href="#DejaVuSans-Bold-55" x="1537.890625"/>
     <use xlink:href="#DejaVuSans-Bold-49" x="1619.091797"/>
     <use xlink:href="#DejaVuSans-Bold-44" x="1656.298828"/>
     <use xlink:href="#DejaVuSans-Bold-45" x="1739.306641"/>
     <use xlink:href="#DejaVuSans-Bold-20" x="1807.617188"/>
     <use xlink:href="#DejaVuSans-Bold-50" x="1842.431641"/>
     <use xlink:href="#DejaVuSans-Bold-4c" x="1915.722656"/>
     <use xlink:href="#DejaVuSans-Bold-41" x="1979.443359"/>
     <use xlink:href="#DejaVuSans-Bold-54" x="2049.085938"/>
     <use xlink:href="#DejaVuSans-Bold-45" x="2117.298828"/>
     <use xlink:href="#DejaVuSans-Bold-29" x="2185.609375"/>
    </g>
    <!-- 2D Technical Drawing - Side View -->
    <g transform="translate(90.153948 1064.416079) scale(0.14 -0.14)">
     <defs>
      <path id="DejaVuSans-Bold-65" d="M 4031 1759 
L 4031 1441 
L 1416 1441 
Q 1456 1047 1700 850 
Q 1944 653 2381 653 
Q 2734 653 3104 758 
Q 3475 863 3866 1075 
L 3866 213 
Q 3469 63 3072 -14 
Q 2675 -91 2278 -91 
Q 1328 -91 801 392 
Q 275 875 275 1747 
Q 275 2603 792 3093 
Q 1309 3584 2216 3584 
Q 3041 3584 3536 3087 
Q 4031 2591 4031 1759 
z
M 2881 2131 
Q 2881 2450 2695 2645 
Q 2509 2841 2209 2841 
Q 1884 2841 1681 2658 
Q 1478 2475 1428 2131 
L 2881 2131 
z
" transform="scale(0.015625)"/>
      <path id="DejaVuSans-Bold-63" d="M 3366 3391 
L 3366 2478 
Q 3138 2634 2908 2709 
Q 2678 2784 2431 2784 
Q 1963 2784 1702 2511 
Q 1441 2238 1441 1747 
Q 1441 1256 1702 982 
Q 1963 709 2431 709 
Q 2694 709 2930 787 
Q 3166 866 3366 1019 
L 3366 103 
Q 3103 6 2833 -42 
Q 2563 -91 2291 -91 
Q 1344 -91 809 395 
Q 275 881 275 1747 
Q 275 2613 809 3098 
Q 1344 3584 2291 3584 
Q 2566 3584 2833 3536 
Q 3100 3488 3366 3391 
z
" transform="scale(0.015625)"/>
      <path id="DejaVuSans-Bold-68" d="M 4056 2131 
L 4056 0 
L 2931 0 
L 2931 347 
L 2931 1625 
Q 2931 2084 2911 2256 
Q 2891 2428 2841 2509 
Q 2775 2619 2662 2680 
Q 2550 2741 2406 2741 
Q 2056 2741 1856 2470 
Q 1656 2200 1656 1722 
L 1656 0 
L 538 0 
L 538 4863 
L 1656 4863 
L 1656 2988 
Q 1909 3294 2193 3439 
Q 2478 3584 2822 3584 
Q 3428 3584 3742 3212 
Q 4056 2841 4056 2131 
z
" transform="scale(0.015625)"/>
      <path id="DejaVuSans-Bold-6e" d="M 4056 2131 
L 4056 0 
L 2931 0 
L 2931 347 
L 2931 1631 
Q 2931 2084 2911 2256 
Q 2891 2428 2841 2509 
Q 2775 2619 2662 2680 
Q 2550 2741 2406 2741 
Q 2056 2741 1856 2470 
Q 1656 2200 1656 1722 
L 1656 0 
L 538 0 
L 538 3500 
L 1656 3500 
L 1656 2988 
Q 1909 3294 2193 3439 
Q 2478 3584 2822 3584 
Q 3428 3584 3742 3212 
Q 4056 2841 4056 2131 
z
" transform="scale(0.015625)"/>
      <path id="DejaVuSans-Bold-69" d="M 538 3500 
L 1656 3500 
L 1656 0 
L 538 0 
L 538 3500 
z
M 538 4863 
L 1656 4863 
L 1656 3950 
L 538 3950 
L 538 4863 
z
" transform="scale(0.015625)"/>
      <path id="DejaVuSans-Bold-61" d="M 2106 1575 
Q 1756 1575 1579 1456 
Q 1403 1338 1403 1106 
Q 1403 894 1545 773 
Q 1688 653 1941 653 
Q 2256 653 2472 879 
Q 2688 1106 2688 1447 
L 2688 1575 
L 2106 1575 
z
M 3816 1997 
L 3816 0 
L 2688 0 
L 2688 519 
Q 2463 200 2181 54 
Q 1900 -91 1497 -91 
Q 953 -91 614 226 
Q 275 544 275 1050 
Q 275 1666 698 1953 
Q 1122 2241 2028 2241 
L 2688 2241 
L 2688 2328 
Q 2688 2594 2478 2717 
Q 2269 2841 1825 2841 
Q 1466 2841 1156 2769 
Q 847 2697 581 2553 
L 581 3406 
Q 941 3494 1303 3539 
Q 1666 3584 2028 3584 
Q 2975 3584 3395 3211 
Q 3816 2838 3816 1997 
z
" transform="scale(0.015625)"/>
      <path id="DejaVuSans-Bold-6c" d="M 538 4863 
L 1656 4863 
L 1656 0 
L 538 0 
L 538 4863 
z
" transform="scale(0.015625)"/>
      <path id="DejaVuSans-Bold-72" d="M 3138 2547 
Q 2991 2616 2845 2648 
Q 2700 2681 2553 2681 
Q 2122 2681 1889 2404 
Q 1656 2128 1656 1613 
L 1656 0 
L 538 0 
L 538 3500 
L 1656 3500 
L 1656 2925 
Q 1872 3269 2151 3426 
Q 2431 3584 2822 3584 
Q 2878 3584 2943 3579 
Q 3009 3575 3134 3559 
L 3138 2547 
z
" transform="scale(0.015625)"/>
      <path id="DejaVuSans-Bold-77" d="M 225 3500 
L 1313 3500 
L 1900 1088 
L 2491 3500 
L 3425 3500 
L 4013 1113 
L 4603 3500 
L 5691 3500 
L 4769 0 
L 3547 0 
L 2956 2406 
L 2369 0 
L 1147 0 
L 225 3500 
z
" transform="scale(0.015625)"/>
      <path id="DejaVuSans-Bold-67" d="M 2919 594 
Q 2688 288 2409 144 
Q 2131 0 1766 0 
Q 1125 0 706 504 
Q 288 1009 288 1791 
Q 288 2575 706 3076 
Q 1125 3578 1766 3578 
Q 2131 3578 2409 3434 
Q 2688 3291 2919 2981 
L 2919 3500 
L 4044 3500 
L 4044 353 
Q 4044 -491 3511 -936 
Q 2978 -1381 1966 -1381 
Q 1638 -1381 1331 -1331 
Q 1025 -1281 716 -1178 
L 716 -306 
Q 1009 -475 1290 -558 
Q 1572 -641 1856 -641 
Q 2406 -641 2662 -400 
Q 2919 -159 2919 353 
L 2919 594 
z
M 2181 2772 
Q 1834 2772 1640 2515 
Q 1447 2259 1447 1791 
Q 1447 1309 1634 1061 
Q 1822 813 2181 813 
Q 2531 813 2725 1069 
Q 2919 1325 2919 1791 
Q 2919 2259 2725 2515 
Q 2531 2772 2181 2772 
z
" transform="scale(0.015625)"/>
      <path id="DejaVuSans-Bold-2d" d="M 347 2297 
L 2309 2297 
L 2309 1388 
L 347 1388 
L 347 2297 
z
" transform="scale(0.015625)"/>
      <path id="DejaVuSans-Bold-64" d="M 2919 2988 
L 2919 4863 
L 4044 4863 
L 4044 0 
L 2919 0 
L 2919 506 
Q 2688 197 2409 53 
Q 2131 -91 1766 -91 
Q 1119 -91 703 423 
Q 288 938 288 1747 
Q 288 2556 703 3070 
Q 1119 3584 1766 3584 
Q 2128 3584 2408 3439 
Q 2688 3294 2919 2988 
z
M 2181 722 
Q 2541 722 2730 984 
Q 2919 1247 2919 1747 
Q 2919 2247 2730 2509 
Q 2541 2772 2181 2772 
Q 1825 2772 1636 2509 
Q 1447 2247 1447 1747 
Q 1447 1247 1636 984 
Q 1825 722 2181 722 
z
" transform="scale(0.015625)"/>
     </defs>
     <use xlink:href="#DejaVuSans-Bold-32"/>
     <use xlink:href="#DejaVuSans-Bold-44" x="69.580078"/>
     <use xlink:href="#DejaVuSans-Bold-20" x="152.587891"/>
     <use xlink:href="#DejaVuSans-Bold-54" x="187.402344"/>
     <use xlink:href="#DejaVuSans-Bold-65" x="242.365234"/>
     <use xlink:href="#DejaVuSans-Bold-63" x="310.1875"/>
     <use xlink:href="#DejaVuSans-Bold-68" x="369.464844"/>
     <use xlink:href="#DejaVuSans-Bold-6e" x="440.65625"/>
     <use xlink:href="#DejaVuSans-Bold-69" x="511.847656"/>
     <use xlink:href="#DejaVuSans-Bold-63" x="546.125"/>
     <use xlink:href="#DejaVuSans-Bold-61" x="605.402344"/>
     <use xlink:href="#DejaVuSans-Bold-6c" x="672.882812"/>
     <use xlink:href="#DejaVuSans-Bold-20" x="707.160156"/>
     <use xlink:href="#DejaVuSans-Bold-44" x="741.974609"/>
     <use xlink:href="#DejaVuSans-Bold-72" x="824.982422"/>
     <use xlink:href="#DejaVuSans-Bold-61" x="874.298828"/>
     <use xlink:href="#DejaVuSans-Bold-77" x="941.779297"/>
     <use xlink:href="#DejaVuSans-Bold-69" x="1034.162109"/>
     <use xlink:href="#DejaVuSans-Bold-6e" x="1068.439453"/>
     <use xlink:href="#DejaVuSans-Bold-67" x="1139.630859"/>
     <use xlink:href="#DejaVuSans-Bold-20" x="1211.212891"/>
     <use xlink:href="#DejaVuSans-Bold-2d" x="1246.027344"/>
     <use xlink:href="#DejaVuSans-Bold-20" x="1287.53125"/>
     <use xlink:href="#DejaVuSans-Bold-53" x="1322.345703"/>
     <use xlink:href="#DejaVuSans-Bold-69" x="1394.367188"/>
     <use xlink:href="#DejaVuSans-Bold-64" x="1428.644531"/>
     <use xlink:href="#DejaVuSans-Bold-65" x="1500.226562"/>
     <use xlink:href="#DejaVuSans-Bold-20" x="1568.048828"/>
     <use xlink:href="#DejaVuSans-Bold-56" x="1602.863281"/>
     <use xlink:href="#DejaVuSans-Bold-69" x="1678.505859"/>
     <use xlink:href="#DejaVuSans-Bold-65" x="1712.783203"/>
     <use xlink:href="#DejaVuSans-Bold-77" x="1780.605469"/>
    </g>
    <!-- Scale: 1:10 -->
    <g transform="translate(90.153948 1080.202391) scale(0.14 -0.14)">
     <defs>
      <path id="DejaVuSans-Bold-3a" d="M 716 3500 
L 1844 3500 
L 1844 2291 
L 716 2291 
L 716 3500 
z
M 716 1209 
L 1844 1209 
L 1844 0 
L 716 0 
L 716 1209 
z
" transform="scale(0.015625)"/>
     </defs>
     <use xlink:href="#DejaVuSans-Bold-53"/>
     <use xlink:href="#DejaVuSans-Bold-63" x="72.021484"/>
     <use xlink:href="#DejaVuSans-Bold-61" x="131.298828"/>
     <use xlink:href="#DejaVuSans-Bold-6c" x="198.779297"/>
     <use xlink:href="#DejaVuSans-Bold-65" x="233.056641"/>
     <use xlink:href="#DejaVuSans-Bold-3a" x="300.878906"/>
     <use xlink:href="#DejaVuSans-Bold-20" x="340.869141"/>
     <use xlink:href="#DejaVuSans-Bold-31" x="375.683594"/>
     <use xlink:href="#DejaVuSans-Bold-3a" x="445.263672"/>
     <use xlink:href="#DejaVuSans-Bold-31" x="485.253906"/>
     <use xlink:href="#DejaVuSans-Bold-30" x="554.833984"/>
    </g>
   </g>
   <g id="legend_1">
    <g id="patch_31">
     <path d="M 47.967188 162.620414 
L 172.489219 162.620414 
Q 174.289219 162.620414 174.289219 160.820414 
L 174.289219 68.280414 
Q 174.289219 66.480414 172.489219 66.480414 
L 47.967188 66.480414 
Q 46.167188 66.480414 46.167188 68.280414 
L 46.167188 160.820414 
Q 46.167188 162.620414 47.967188 162.620414 
z
" style="fill: #ffffff; opacity: 0.8; stroke: #cccccc; stroke-linejoin: miter"/>
    </g>
    <g id="text_18">
     <!-- COMPONENTS -->
     <g transform="translate(74.667266 77.678852) scale(0.1 -0.1)">
      <use xlink:href="#DejaVuSans-43"/>
      <use xlink:href="#DejaVuSans-4f" x="69.824219"/>
      <use xlink:href="#DejaVuSans-4d" x="148.535156"/>
      <use xlink:href="#DejaVuSans-50" x="234.814453"/>
      <use xlink:href="#DejaVuSans-4f" x="295.117188"/>
      <use xlink:href="#DejaVuSans-4e" x="373.828125"/>
      <use xlink:href="#DejaVuSans-45" x="448.632812"/>
      <use xlink:href="#DejaVuSans-4e" x="511.816406"/>
      <use xlink:href="#DejaVuSans-54" x="586.621094"/>
      <use xlink:href="#DejaVuSans-53" x="647.705078"/>
     </g>
    </g>
    <g id="line2d_36">
     <path d="M 49.767188 87.947133 
L 58.767188 87.947133 
L 67.767188 87.947133 
" style="fill: none; stroke: #000000; stroke-width: 2; stroke-linecap: square"/>
    </g>
    <g id="text_19">
     <!-- Main Plate -->
     <g transform="translate(74.967188 91.097133) scale(0.09 -0.09)">
      <use xlink:href="#DejaVuSans-4d"/>
      <use xlink:href="#DejaVuSans-61" x="86.279297"/>
      <use xlink:href="#DejaVuSans-69" x="147.558594"/>
      <use xlink:href="#DejaVuSans-6e" x="175.341797"/>
      <use xlink:href="#DejaVuSans-20" x="238.720703"/>
      <use xlink:href="#DejaVuSans-50" x="270.507812"/>
      <use xlink:href="#DejaVuSans-6c" x="330.810547"/>
      <use xlink:href="#DejaVuSans-61" x="358.59375"/>
      <use xlink:href="#DejaVuSans-74" x="419.873047"/>
      <use xlink:href="#DejaVuSans-65" x="459.082031"/>
     </g>
    </g>
    <g id="line2d_37">
     <path d="M 49.767188 101.157446 
L 58.767188 101.157446 
L 67.767188 101.157446 
" style="fill: none"/>
     <defs>
      <path id="mf30f758fe5" d="M 0 4 
C 1.060812 4 2.078319 3.578535 2.828427 2.828427 
C 3.578535 2.078319 4 1.060812 4 0 
C 4 -1.060812 3.578535 -2.078319 2.828427 -2.828427 
C 2.078319 -3.578535 1.060812 -4 0 -4 
C -1.060812 -4 -2.078319 -3.578535 -2.828427 -2.828427 
C -3.578535 -2.078319 -4 -1.060812 -4 0 
C -4 1.060812 -3.578535 2.078319 -2.828427 2.828427 
C -2.078319 3.578535 -1.060812 4 0 4 
z
" style="stroke: #ff0000"/>
     </defs>
     <g>
      <use xlink:href="#mf30f758fe5" x="58.767188" y="101.157446" style="fill: #ff0000; stroke: #ff0000"/>
     </g>
    </g>
    <g id="text_20">
     <!-- Holes -->
     <g transform="translate(74.967188 104.307446) scale(0.09 -0.09)">
      <use xlink:href="#DejaVuSans-48"/>
      <use xlink:href="#DejaVuSans-6f" x="75.195312"/>
      <use xlink:href="#DejaVuSans-6c" x="136.376953"/>
      <use xlink:href="#DejaVuSans-65" x="164.160156"/>
      <use xlink:href="#DejaVuSans-73" x="225.683594"/>
     </g>
    </g>
    <g id="line2d_38">
     <path d="M 49.767188 114.367758 
L 58.767188 114.367758 
L 67.767188 114.367758 
" style="fill: none"/>
     <defs>
      <path id="md6a0d52113" d="M 0 4 
C 1.060812 4 2.078319 3.578535 2.828427 2.828427 
C 3.578535 2.078319 4 1.060812 4 0 
C 4 -1.060812 3.578535 -2.078319 2.828427 -2.828427 
C 2.078319 -3.578535 1.060812 -4 0 -4 
C -1.060812 -4 -2.078319 -3.578535 -2.828427 -2.828427 
C -3.578535 -2.078319 -4 -1.060812 -4 0 
C -4 1.060812 -3.578535 2.078319 -2.828427 2.828427 
C -2.078319 3.578535 -1.060812 4 0 4 
z
" style="stroke: #ffa500"/>
     </defs>
     <g>
      <use xlink:href="#md6a0d52113" x="58.767188" y="114.367758" style="fill: #ffa500; stroke: #ffa500"/>
     </g>
    </g>
    <g id="text_21">
     <!-- Arm Centerline Holes -->
     <g transform="translate(74.967188 117.517758) scale(0.09 -0.09)">
      <use xlink:href="#DejaVuSans-41"/>
      <use xlink:href="#DejaVuSans-72" x="68.408203"/>
      <use xlink:href="#DejaVuSans-6d" x="107.771484"/>
      <use xlink:href="#DejaVuSans-20" x="205.183594"/>
      <use xlink:href="#DejaVuSans-43" x="236.970703"/>
      <use xlink:href="#DejaVuSans-65" x="306.794922"/>
      <use xlink:href="#DejaVuSans-6e" x="368.318359"/>
      <use xlink:href="#DejaVuSans-74" x="431.697266"/>
      <use xlink:href="#DejaVuSans-65" x="470.90625"/>
      <use xlink:href="#DejaVuSans-72" x="532.429688"/>
      <use xlink:href="#DejaVuSans-6c" x="573.542969"/>
      <use xlink:href="#DejaVuSans-69" x="601.326172"/>
      <use xlink:href="#DejaVuSans-6e" x="629.109375"/>
      <use xlink:href="#DejaVuSans-65" x="692.488281"/>
      <use xlink:href="#DejaVuSans-20" x="754.011719"/>
      <use xlink:href="#DejaVuSans-48" x="785.798828"/>
      <use xlink:href="#DejaVuSans-6f" x="860.994141"/>
      <use xlink:href="#DejaVuSans-6c" x="922.175781"/>
      <use xlink:href="#DejaVuSans-65" x="949.958984"/>
      <use xlink:href="#DejaVuSans-73" x="1011.482422"/>
     </g>
    </g>
    <g id="line2d_39">
     <path d="M 49.767188 127.578071 
L 58.767188 127.578071 
L 67.767188 127.578071 
" style="fill: none; stroke-dasharray: 7.4,3.2; stroke-dashoffset: 0; stroke: #0000ff; stroke-width: 2"/>
    </g>
    <g id="text_22">
     <!-- Outer Ring -->
     <g transform="translate(74.967188 130.728071) scale(0.09 -0.09)">
      <defs>
       <path id="DejaVuSans-67" d="M 2906 1791 
Q 2906 2416 2648 2759 
Q 2391 3103 1925 3103 
Q 1463 3103 1205 2759 
Q 947 2416 947 1791 
Q 947 1169 1205 825 
Q 1463 481 1925 481 
Q 2391 481 2648 825 
Q 2906 1169 2906 1791 
z
M 3481 434 
Q 3481 -459 3084 -895 
Q 2688 -1331 1869 -1331 
Q 1566 -1331 1297 -1286 
Q 1028 -1241 775 -1147 
L 775 -588 
Q 1028 -725 1275 -790 
Q 1522 -856 1778 -856 
Q 2344 -856 2625 -561 
Q 2906 -266 2906 331 
L 2906 616 
Q 2728 306 2450 153 
Q 2172 0 1784 0 
Q 1141 0 747 490 
Q 353 981 353 1791 
Q 353 2603 747 3093 
Q 1141 3584 1784 3584 
Q 2172 3584 2450 3431 
Q 2728 3278 2906 2969 
L 2906 3500 
L 3481 3500 
L 3481 434 
z
" transform="scale(0.015625)"/>
      </defs>
      <use xlink:href="#DejaVuSans-4f"/>
      <use xlink:href="#DejaVuSans-75" x="78.710938"/>
      <use xlink:href="#DejaVuSans-74" x="142.089844"/>
      <use xlink:href="#DejaVuSans-65" x="181.298828"/>
      <use xlink:href="#DejaVuSans-72" x="242.822266"/>
      <use xlink:href="#DejaVuSans-20" x="283.935547"/>
      <use xlink:href="#DejaVuSans-52" x="315.722656"/>
      <use xlink:href="#DejaVuSans-69" x="385.205078"/>
      <use xlink:href="#DejaVuSans-6e" x="412.988281"/>
      <use xlink:href="#DejaVuSans-67" x="476.367188"/>
     </g>
    </g>
    <g id="line2d_40">
     <path d="M 49.767188 140.788383 
L 58.767188 140.788383 
L 67.767188 140.788383 
" style="fill: none; stroke-dasharray: 1,1.65; stroke-dashoffset: 0; stroke: #008000"/>
    </g>
    <g id="text_23">
     <!-- PCD References -->
     <g transform="translate(74.967188 143.938383) scale(0.09 -0.09)">
      <defs>
       <path id="DejaVuSans-66" d="M 2375 4863 
L 2375 4384 
L 1825 4384 
Q 1516 4384 1395 4259 
Q 1275 4134 1275 3809 
L 1275 3500 
L 2222 3500 
L 2222 3053 
L 1275 3053 
L 1275 0 
L 697 0 
L 697 3053 
L 147 3053 
L 147 3500 
L 697 3500 
L 697 3744 
Q 697 4328 969 4595 
Q 1241 4863 1831 4863 
L 2375 4863 
z
" transform="scale(0.015625)"/>
      </defs>
      <use xlink:href="#DejaVuSans-50"/>
      <use xlink:href="#DejaVuSans-43" x="60.302734"/>
      <use xlink:href="#DejaVuSans-44" x="130.126953"/>
      <use xlink:href="#DejaVuSans-20" x="207.128906"/>
      <use xlink:href="#DejaVuSans-52" x="238.916016"/>
      <use xlink:href="#DejaVuSans-65" x="303.898438"/>
      <use xlink:href="#DejaVuSans-66" x="365.421875"/>
      <use xlink:href="#DejaVuSans-65" x="400.626953"/>
      <use xlink:href="#DejaVuSans-72" x="462.150391"/>
      <use xlink:href="#DejaVuSans-65" x="501.013672"/>
      <use xlink:href="#DejaVuSans-6e" x="562.537109"/>
      <use xlink:href="#DejaVuSans-63" x="625.916016"/>
      <use xlink:href="#DejaVuSans-65" x="680.896484"/>
      <use xlink:href="#DejaVuSans-73" x="742.419922"/>
     </g>
    </g>
    <g id="line2d_41">
     <path d="M 49.767188 153.998696 
L 58.767188 153.998696 
L 67.767188 153.998696 
" style="fill: none; stroke-dasharray: 6.4,1.6,1,1.6; stroke-dashoffset: 0; stroke: #808080"/>
    </g>
    <g id="text_24">
     <!-- Centerlines -->
     <g transform="translate(74.967188 157.148696) scale(0.09 -0.09)">
      <use xlink:href="#DejaVuSans-43"/>
      <use xlink:href="#DejaVuSans-65" x="69.824219"/>
      <use xlink:href="#DejaVuSans-6e" x="131.347656"/>
      <use xlink:href="#DejaVuSans-74" x="194.726562"/>
      <use xlink:href="#DejaVuSans-65" x="233.935547"/>
      <use xlink:href="#DejaVuSans-72" x="295.458984"/>
      <use xlink:href="#DejaVuSans-6c" x="336.572266"/>
      <use xlink:href="#DejaVuSans-69" x="364.355469"/>
      <use xlink:href="#DejaVuSans-6e" x="392.138672"/>
      <use xlink:href="#DejaVuSans-65" x="455.517578"/>
      <use xlink:href="#DejaVuSans-73" x="517.041016"/>
     </g>
    </g>
   </g>
  </g>
 </g>
 <defs>
  <clipPath id="p3f6a3edd95">
   <rect x="41.667188" y="61.980414" width="1066.708738" height="1066.708738"/>
  </clipPath>
 </defs>
</svg>
